<?xml version="1.0" standalone="no"?>
<!DOCTYPE svg PUBLIC "-//W3C//DTD SVG 1.1//EN" "http://www.w3.org/Graphics/SVG/1.1/DTD/svg11.dtd" >
<svg xmlns="http://www.w3.org/2000/svg" xmlns:xlink="http://www.w3.org/1999/xlink" version="1.1">
<metadata>
Created by FontForge 20170731 at Mon Jun 10 14:27:05 2019
 By Aleksey,,,
Grotters (c) ErgibiStudio 2019. All Rights Reserved
</metadata>
<defs>
<font id="Grotters" horiz-adv-x="533" >
  <font-face 
    font-family="Grotters"
    font-weight="400"
    font-stretch="normal"
    units-per-em="2048"
    panose-1="2 0 5 0 0 0 0 0 0 0"
    ascent="1638"
    descent="-410"
    x-height="1155"
    cap-height="1194"
    bbox="-305 -464 6211 1772"
    underline-thickness="150"
    underline-position="-442"
    unicode-range="U+001D-E232"
  />
<missing-glyph horiz-adv-x="1024" 
d="M100 0v1434h824v-1434h-824zM150 50q353 159 724 0v1334q-384 -118 -724 0v-1334zM419 334l57 58q11 10 20 10q10 0 22 -11l56 -60q9 -11 9 -20q0 -11 -10 -22l-56 -62q-14 -14 -21 -14q-11 0 -20 10l-61 71q-7 9 -7 18q0 10 11 22zM413 1191q53 30 112 30
q92 0 148 -47.5t56 -127.5q0 -49 -23 -98.5t-87 -129.5q-63 -80 -99 -132t-36 -99q0 -38 24 -133h-32q-35 97 -35 148q0 76 81.5 218t81.5 217q0 57 -33 90t-91 33q-8 0 -16 -1l32 -51q7 -12 5 -21q-2 -11 -14 -20l-66 -50q-17 -11 -24 -10q-10 2 -17 14l-47 81q-5 10 -3 19
q1 10 28.5 32.5t54.5 37.5z" />
    <glyph glyph-name="ff" unicode="ff" horiz-adv-x="1489" 
d="M1509 1669h18q167 0 286 -68l4 -5v-10q0 -5 18 -34q7 -15 23 -63q-5 -16 -23 -27q-15 -7 -18 -7h-37q-27 0 -50 -6q-72 5 -110 5h-18q-46 0 -120 -16q-106 -22 -307 -43v-1h4v-1q-3 0 -3 -10q-12 -60 -45 -160q-23 -65 -47 -155q269 48 353 65q3 0 12 1q40 0 121 -35
q34 -25 34 -79q-1 -24 -7 -24q-21 -21 -106 -51q-21 -6 -64 -14q-17 -5 -34 -12q-117 -21 -247 -47q-1 0 -15 8q-3 0 -19 -13l-4 -2h-3q-10 4 -11 4h-2q-6 0 -40 -12q-21 -2 -28 -6q-9 -3 -40 -35q-3 0 -22 -20q-8 0 -10 -12q0 -20 -33 -179q-4 -32 -12 -49q-12 -19 -14 -27
q0 -3 7 -4q1 -2 2 -5q-20 -105 -40 -185q-9 -60 -9 -104v-53q0 -21 11 -27q2 0 4 7q-2 8 -2 16v5q0 8 6 61q-1 30 -1 41q0 15 7 42q0 8 5 24q1 45 26 139q21 58 21 105q8 33 14 82q16 54 17 55q1 -3 2 -3q4 2 23 45q2 2 5 2q7 -1 7 -2q-53 -159 -97 -421q-11 -63 -11 -175
v-189q0 -24 -3 -24l-4 -1q-22 1 -22 5q-1 22 -3 23q-8 -24 -9 -24q-4 -1 -6 -1h-13q-38 0 -51 22q-21 24 -33 36q-25 20 -40 127q-8 67 -8 136q0 176 48 372q15 53 26 95q-10 0 -29 41q-35 -7 -53 -14q0 -4 -64 -14l-193 -37q-15 8 -17 8v0q-4 0 -19 -14q-3 -1 -5 -1
q-9 4 -11 4h-2q-6 0 -37 -12q-7 -2 -22 -3q-14 -3 -46 -35q-8 -5 -19 -18q-2 -5 -13 -9q-3 0 -5 -33q-7 -38 -33 -167q0 -23 -22 -58q-2 -4 -2 -6t8 -4l1 -4q-18 -101 -39 -182q-10 -66 -10 -106q1 -27 1 -49v-8q0 -20 11 -24l4 5q-2 9 -3 20l7 69l-2 30q0 19 8 48q0 5 4 25
q0 19 16 99l24 82q5 19 9 73q6 16 12 69q15 50 16 57h2q0 -3 2 -4h1q4 1 17 36q4 10 11 10h4q2 0 2 -1q-50 -147 -96 -413q-13 -69 -13 -205q1 -121 1 -162q0 -29 -3 -29h-5q-21 1 -21 4q-1 11 -3 24h-1l-7 -22q0 -3 -9 -3h-11q-39 0 -52 23q-22 24 -39 42q-11 17 -21 50
q-20 84 -20 194v23q0 157 45 351l29 104q-12 6 -25 31q-21 37 -26 73q-15 56 -15 84v7q0 43 7 43q19 14 42 14q58 5 76 12h2v0v-11v-1l6 -2q9 0 32 79q7 20 23 72q3 9 18 24q8 6 8 13q-2 18 -2 27v0q0 22 11 50q1 3 1 8v1q0 2 -1 3q16 72 16 149q-19 -5 -33 -5h-7
q-69 0 -94 121q23 11 43 27q4 3 40 16v0h-4v2q2 0 2 2v3q0 2 -7 3h-2q-25 0 -48 -14v0q-8 0 -43 -12v0q-3 8 -3 16q0 78 381 131q88 12 243 27q126 16 429 37q156 14 297 30q40 4 82 4zM1533 1638h-6q-9 0 -53 1q-6 0 -56 -4h-23q-24 0 -58 -11h-23q-50 0 -108 -10l-50 -3
h-7q-29 -3 -84 -7q-206 -30 -251 -30q-4 0 -14 -1q-18 1 -38 1l-56 -4h-22q-24 0 -57 -10q-2 -1 -7 -1h-13q-65 0 -125 -18q-4 -3 -4 -6q0 -6 8 -7q72 7 147 19q12 0 449 39q35 3 49 3q0 -2 5 -3h2q17 4 54 5q21 7 56 7q65 11 124 17q113 8 141 8h16q8 0 106 -6q46 -3 54 -3
q-11 16 -38 16q-74 11 -90 11h-7q-6 0 -21 -3zM274 1491l1 -2q-4 -3 -50 -18q-11 -5 -13 -9v-2q0 -6 10 -6q8 0 18 4v0h-7q-1 0 -1 2q11 7 67 20q20 1 20 5v1q-2 9 -12 9h-2q-6 0 -31 -4zM1170 1394v-1h3v1h-3zM1182 1395v0v-2v0v2zM464 1330v-1h4v-1q-3 0 -3 -6
q-19 -109 -52 -240l-42 -159q265 47 339 62q14 13 39 18q21 3 68 7q4 2 17 5v0q-1 -9 -1 -12q3 -3 7 -3t12 18q37 16 57 60q21 49 21 114q-1 2 -1 5q28 141 28 196q-40 -12 -140 -25q-205 -20 -353 -38zM1143 1381q-13 -34 -25 -89q-5 -8 -34 -127q-2 -8 -3 -8l-1 1
q-4 -11 -7 -27v-1h1q6 24 8 25q2 -7 3 -30h1q0 2 12 43q0 3 17 72q12 55 29 111q1 7 1 12q0 18 -2 18zM459 1329v-1h3v1h-3zM471 1330v0v-2v0v2zM432 1317q-13 -34 -20 -68q-4 -16 -15 -51q-22 -91 -43 -168q-18 -81 -18 -91v-5q1 -2 4 -2h3q8 12 14 34q4 25 14 68
q4 38 14 59q25 110 40 167q9 24 9 36v4q0 7 -2 17zM1061 1147q-13 -51 -13 -65q0 -5 5 -5h3q2 0 10 22q6 21 6 28q-4 0 -9 19l-1 1h-1zM1244 1070q1 -4 5 -4h3q1 0 2 2v5q-1 3 -5 3v0q-5 -2 -5 -6zM1202 1058v-2q2 -3 6 -3q6 2 6 6q-2 5 -6 5q-6 0 -6 -6zM1158 1047v-4
q0 -1 2 -2h3q8 0 8 9q-1 2 -4 4h-2q-7 -1 -7 -7zM1080 1018v-1q0 -1 7 -5q15 0 36 16q9 6 9 14q-2 6 -7 6q-27 -7 -41 -23q-4 -3 -4 -7zM532 925v-1q1 -3 5 -3h1q4 0 4 4v1q0 4 -5 4q-4 0 -5 -5zM489 912q0 -3 6 -4q4 0 7 4q-1 6 -6 6h-1q-6 -1 -6 -6zM445 900q0 -5 4 -5h2
q6 0 7 9q-1 4 -3 4h-3q-6 0 -7 -8zM367 871q0 -2 8 -4q22 0 43 22q2 6 2 8q-3 6 -8 6q-30 -8 -45 -28v-4zM864 147q0 -3 -1 -10q1 -9 3 -9q0 1 1 8q0 2 -2 11h-1zM856 68v-7q0 -16 5 -41h1q9 30 9 55q0 17 -5 43q-2 0 -7 -22q-3 -15 -3 -28zM152 2l-1 -6v-4q0 -3 1 -11h1
l1 5v4v1zM152 -27q-9 -29 -9 -55q0 -15 5 -44h1q9 31 9 55q0 19 -5 44h-1z" />
    <glyph glyph-name="ee" unicode="ee" horiz-adv-x="1708" 
d="M1688 1394q52 0 112 -52q26 -25 26 -48v-6q0 -22 -18 -44q-36 -14 -72 -14q-114 -29 -235 -66q-61 -13 -100 -13q-1 -1 -2 -1v-1q1 0 9 -6q-16 -4 -119 -13q-36 -6 -56 -12v-1q83 -31 305 -102q9 -3 44 -12q22 -8 22 -15q2 -3 3 -28q14 -37 14 -62q-1 -3 -1 -8v-3
q-15 -14 -83 -40q-48 -17 -68 -17q-192 -29 -323 -67l-67 -20q0 -1 13 -11q-30 -23 -38 -34q-12 -25 -28 -55q-7 -16 -16 -51q-4 0 -9 -49q-2 -27 -6 -27q-8 0 -14 -37q-7 -19 -12 -60q-10 -61 -10 -77q0 -30 16 -48q5 -9 18 -21q-9 39 -9 54v8q1 26 1 28l1 2q-1 14 -5 24
q0 4 13 25q10 19 10 41q-2 21 -2 23v8q0 69 45 165q12 23 31 43q8 5 13 24q2 6 10 6q18 -3 18 -16q0 -7 -24 -55q-79 -159 -79 -273q0 -59 19 -121h1q54 4 260 96q109 48 160 83q66 36 106 36h8q24 -2 24 -15v-3l-5 -35q1 -6 2 -11q-35 -18 -68 -45l-8 -8q16 2 38 16
q19 16 33 22h1q0 -1 -2 -8q4 -23 4 -26v-3q-8 -21 -49 -54q-22 -18 -53 -37q-78 -48 -195 -93v1v3v4q-45 -21 -93 -21q-30 -7 -52 -20q-31 -14 -52 -14q-66 -11 -106 -24q-51 0 -83 30q-85 71 -85 212q0 136 73 325v0q-21 0 -36 38q-9 19 -17 58q0 1 4 50q0 11 6 40
q0 10 15 13q21 6 86 24q8 3 8 6t-11 4h-3q-10 0 -53 -14q-26 -6 -29 -6q-1 0 -3 14q3 13 8 16q0 7 15 9q241 55 506 98l6 1v0q-271 69 -410 112q0 1 -19 7q-185 -36 -299 -66q-56 -10 -90 -10l9 -9q-25 -4 -120 -12q-35 -6 -56 -12v0q84 -32 314 -106q58 -12 58 -24
q2 0 4 -30q13 -33 13 -61q0 -14 -5 -14q-32 -20 -93 -41q-26 -10 -104 -19q-205 -35 -340 -80q2 -3 13 -10v-1q-40 -30 -40 -40q-7 -14 -26 -48q-7 -18 -21 -68l-7 -60q-11 0 -12 -19q-15 -55 -16 -76q-10 -61 -10 -72v-11q0 -32 27 -58q0 -2 5 -6h1q-8 38 -8 46q-1 2 -1 12
q0 5 2 34q0 7 -4 23v2q0 2 13 24q9 19 9 36v7q-2 18 -2 23v1q0 71 44 166q13 27 39 54l6 17q3 5 10 5q18 -3 18 -16q0 -8 -19 -44q-84 -169 -84 -277v-15q0 -50 19 -113h1q39 0 254 93q113 50 171 90q65 32 104 32q28 -2 28 -12q1 0 1 -3v-3l-4 -34v-3q1 -6 1 -10
q-31 -15 -65 -41q-10 -10 -10 -11h1q11 0 37 16q20 17 33 22v0q-1 -5 -1 -8v-1q0 -4 3 -26q0 -15 -48 -56q-63 -48 -141 -84q-45 -22 -107 -47l-1 2v7q-42 -21 -89 -21q-29 -5 -51 -18q-31 -15 -53 -15q-73 -12 -108 -25q-53 0 -84 30q-86 71 -86 213q0 134 74 325h-5
q-26 0 -48 90l-1 4q0 21 4 49v5t7 37q0 9 12 12q78 21 95 28l1 1v3q0 2 -9 3h-8q-6 0 -55 -15l-24 -5q-1 5 -2 13q2 12 7 18q2 7 12 7q225 53 512 100h3v0q-112 30 -272 68l-43 12q-17 -1 -26 -1h-4q-58 0 -90 50q-8 11 -17 41q-5 39 -13 66q-6 17 -6 28v4q0 17 20 22
q94 21 329 49q440 55 995 105q184 16 240 16zM430 1237v-2q0 -8 19 -8q789 84 790 84q179 19 218 23h5q20 -1 25 -1l2 3q0 10 -19 12h-6q-32 0 -342 -30q-530 -55 -675 -73q-17 -4 -17 -8zM174 1187q5 -12 17 -12h2q25 0 60 15q33 11 114 25q30 7 30 11v2q-1 5 -25 6
q-5 0 -59 -12q-37 -7 -95 -12q-43 -10 -43 -20q0 -2 -1 -3zM1129 941q0 -1 4 -3q3 0 4 4q0 4 -5 4q-3 -1 -3 -5zM1094 932q1 -4 3 -4h4l4 4q-2 4 -6 4h-2q-1 0 -3 -4zM1058 922v-3l3 -2q8 1 8 6v1q0 4 -4 4q-7 0 -7 -6zM995 899v-1q0 -1 6 -3q17 0 35 18q1 3 1 6q-1 4 -5 4
h-1q-14 -1 -35 -20q-1 -2 -1 -4zM309 856v-4h3h2q1 0 2 2v2q0 2 -3 3h-2q-1 0 -2 -3zM274 846v-2q0 -1 2 -3h2q4 0 6 4q-1 3 -4 4h-4q-1 0 -2 -3zM238 833v-2h6q4 2 4 7q-1 3 -2 3h-3q-5 0 -5 -8zM174 812q0 -1 6 -4q17 0 35 18q2 5 2 6q-3 5 -6 5q-26 -7 -37 -23v-2z
M1148 752q6 -1 6 -4q0 -16 -26 -21h-3q-6 1 -6 6v2q0 11 27 17h2zM324 665h4q2 0 5 -3q0 -14 -20 -21q-2 -1 -7 -1h-1q-7 1 -7 7q0 11 26 18zM1487 341q13 2 24 12v1h-2q-10 0 -22 -13zM1426 316q1 -2 2 -2h5q23 0 39 21v1h-4q-25 0 -42 -20zM1414 308v-2q8 3 8 6h-3
q-4 -2 -5 -4zM667 255h1q11 0 22 12h-1q-11 0 -22 -12zM605 228q5 -1 8 -1q23 0 39 22h-2q-31 0 -45 -21zM593 221v-1v0q5 0 8 6v0q-4 0 -8 -5z" />
    <glyph glyph-name="oo" unicode="oo" horiz-adv-x="1662" 
d="M1270 1240q106 0 208 -84q34 -10 53 -34q23 -26 35 -55q46 -104 46 -282v-5q0 -192 -50 -339q-22 -54 -55 -104q-79 -115 -195 -156q-44 -15 -83 -15h-10q-109 0 -201 101q-21 26 -24 26q-102 61 -147 179q-27 78 -27 156v17q0 138 72 295q27 56 73 120q21 28 69 75
q70 62 133 84q55 21 103 21zM448 1193h3q105 0 208 -77q20 -2 51 -29q42 -39 65 -138q17 -80 17 -174q0 -152 -41 -285q-20 -54 -44 -93q-20 -33 -60 -75q-55 -51 -85 -65q-78 -45 -158 -45q-128 0 -227 116q-108 57 -152 170q-25 67 -25 146q0 159 99 322q25 40 69 88
q44 45 77 68q105 71 203 71zM1043 1074h1q22 8 22 17v5v8q-23 -4 -23 -30zM1051 628v-13q0 -153 88 -263q35 -37 47 -45q28 9 49 25q28 25 38 46q34 54 80 185q14 39 28 132q26 208 26 403h-10q-113 0 -185 -72q-3 0 -34 -35q-37 -49 -57 -86q-70 -140 -70 -277zM223 1043
v-1q24 6 24 16q0 2 -2 11q-10 0 -19 -13q-3 -6 -3 -13zM231 628q0 -174 122 -276q12 -10 14 -10q38 11 64 37q26 27 45 64q48 101 68 167q15 52 28 173q15 155 15 280q-1 1 -2 1q-108 0 -172 -49q-12 -6 -47 -41q-48 -53 -66 -89q-69 -124 -69 -257zM1023 1051v-7q5 0 5 3
q-1 3 -3 4h-2zM868 743h3q14 0 16 24q0 17 13 50q24 68 56 119q16 22 35 44q18 29 28 52q2 5 2 9h-6q-9 0 -16 -13q-68 -81 -85 -121q-6 -12 -14 -37q-32 -51 -32 -127zM203 1019v-1l1 -4q4 1 4 2v2q0 1 -3 2v0q-2 0 -2 -1zM48 741v-1h4q10 0 13 11q3 28 10 44q24 64 53 110
q11 17 43 51q17 23 27 45l4 10h-1q-1 0 -6 1q-9 0 -19 -15q-44 -48 -63 -76q-17 -24 -32 -63q-33 -48 -33 -117zM865 719q-7 -20 -7 -39q0 -26 5 -26q5 -1 5 -2q5 0 5 15q2 12 2 28v7q0 16 -7 16q-2 1 -3 1zM45 718q-7 -18 -7 -35v-2q0 -23 4 -23q6 -1 7 -1h1q3 0 6 42v1
q0 16 -6 16q-4 2 -5 2zM735 645v-20q-8 -40 -26 -87q-16 -38 -41 -74q-34 -40 -44 -78h5q12 0 18 13q46 57 66 95q12 25 18 49q22 36 22 83v2q-1 31 -3 31q-15 -2 -15 -14zM1554 632v-16q-15 -79 -47 -144q-15 -25 -35 -53q-18 -26 -28 -63h6q10 0 19 17q68 91 81 148
q16 40 16 46q7 24 7 53q-1 19 -2 35h-1q-16 0 -16 -23zM625 540q5 -15 8 -15q2 5 5 17h-1q-12 -1 -12 -2zM1445 525q5 -17 8 -17q2 0 5 18v1v0q-13 -1 -13 -2zM617 379q0 -1 3 -3h1q2 0 2 2q0 4 -2 4t-4 -3zM580 338q1 -10 2 -12q21 6 21 24v4q-23 -9 -23 -16zM1438 348
q1 -3 4 -3l1 2l-1 5q-4 0 -4 -4zM1400 301q0 -3 1 -12q23 7 23 31v1h-1q-23 -10 -23 -18v-2zM558 311q-32 -23 -32 -32v-2q1 -2 8 -6q23 9 32 27q1 1 4 6q-8 7 -12 7zM1346 236q0 -1 8 -6q23 10 35 33v4q-7 7 -11 7q-32 -25 -32 -38z" />
    <glyph glyph-name="tt" unicode="tt" horiz-adv-x="801" 
d="M868 1751h10q33 0 41 -17q2 -5 2 -15v-15v-12v0q182 31 288 31q177 0 293 -69q27 -19 44 -79q11 -48 11 -69h-1q-81 26 -133 26q-28 0 -258 -28l-161 -19q0 -3 -2 -3q-62 -3 -114 -9v-1h8v-2q-12 0 -12 -7q-59 -305 -134 -596q-16 -73 -35 -177q-3 0 -6 -24
q-18 -82 -38 -227q-2 -27 -20 -156q-14 -119 -14 -163q0 -45 11 -254v-18q0 -5 -2 -5h-20q-8 9 -16 11v4q0 9 14 30q3 6 3 13q0 8 -21 21q-2 11 -2 27q0 25 11 55v4q0 3 -7 27q-4 20 -4 42v11q0 59 12 88q10 11 10 24q0 3 -10 36q-2 13 -2 25q0 14 10 54q4 16 6 75
q7 52 19 106q28 149 28 181q-2 5 -7 5h-2q-8 0 -13 -20q-22 -63 -22 -103q0 -10 -33 -201q-8 -55 -13 -111q-19 -99 -19 -172q1 -38 3 -50q-1 -23 -1 -36v-35q0 -45 3 -96q1 0 1 -1l-2 -1v0q-62 28 -84 73q-32 75 -32 244q0 255 59 516q-2 0 -2 2q25 123 87 376
q38 151 71 329q6 33 9 58h-1q-126 -17 -223 -35q-59 -308 -134 -598q-15 -65 -37 -182q-3 0 -6 -24q-21 -107 -38 -228q0 -11 -19 -151q-15 -122 -15 -167q0 -41 11 -253v-19q0 -5 -2 -5h-20q-9 10 -16 11v6q0 6 16 32q2 5 2 7v1q0 9 -22 23h1q-2 10 -3 26q0 23 12 56v4
q0 2 -7 24q-5 19 -5 45v8q0 61 12 90q10 10 10 25q0 3 -9 35q-2 15 -2 24q0 13 11 65l8 87q7 43 24 129q19 110 19 136q-2 5 -7 5h-2q-8 0 -14 -26q-15 -36 -22 -103q-8 -64 -32 -198l-14 -116q-17 -95 -17 -164q0 -35 2 -50v-49v-13q0 -70 3 -106l-1 -1h-1q-33 12 -70 51
q-45 64 -45 264q0 256 58 518q-1 0 -2 1q74 377 166 736h-1q-191 -49 -358 -112q-64 -22 -80 -22q-43 0 -69 43q-6 12 -10 41q-2 15 -29 58q-6 6 -7 12q0 27 166 76q101 34 175 63q102 33 233 63q0 24 -3 59q114 44 174 44h8q33 0 42 -17q2 -8 2 -19v-4v-5q0 -15 -3 -26h1
q33 5 208 31q0 28 -3 47q114 44 173 44zM425 1591q25 5 25 9v2q0 6 -6 7h-1q-6 0 -18 -18zM-200 1395q11 -3 20 -3q29 0 71 24q165 71 443 152q45 13 81 21v0q-21 2 -38 2h-7q-21 0 -44 -11q-125 -38 -310 -93q-103 -35 -199 -76q-4 -2 -17 -16zM-229 1388q1 -2 6 -2
q8 0 18 8v1q-11 3 -14 3q-10 0 -10 -10zM760 1055q-12 -25 -12 -43v-11v0q16 32 16 49q0 4 -4 5zM331 1004q-13 -25 -13 -45v-10h1q15 32 15 52q0 2 -3 3zM721 910q1 -4 1 -10v0q24 37 24 92v2q-25 -38 -25 -84zM292 866v-17h1q24 37 24 89v5q-25 -38 -25 -77zM708 858
q-8 -18 -8 -33v-2v-12h2q8 18 8 32v2q0 8 -1 13h-1zM279 807q-9 -18 -9 -36q0 -11 2 -11q9 18 9 32v4q0 6 -2 11zM675 723v-3v-1v-7h1q15 32 15 64v4q-16 -29 -16 -57zM261 729q-15 -31 -15 -57v-11h1q15 32 15 62v6h-1z" />
    <glyph glyph-name="la" unicode="la" horiz-adv-x="1281" 
d="M346 1504h8q82 0 109 -98q11 -42 11 -97q0 -186 -120 -600q-69 -230 -98 -355q-5 -24 -5 -26h1q68 29 176 54l147 27q191 42 273 56q19 3 50 4l44 -4q40 -9 40 -38q0 -28 -49 -75q-18 -20 -25 -35h-29q-53 0 -94 -25h-1v-1q19 -3 37 -3h16q27 0 65 6l1 -1q0 -18 -180 -53
q-276 -57 -409 -114q-15 -7 -77 -30v-1q1 -13 1 -19q0 -49 -37 -68q-9 -2 -12 -2q-17 0 -69 45q-15 0 -66 -20q-33 -13 -72 -49q-33 -36 -42 -57q-12 -22 -15 -24q-9 0 -13 123q0 68 13 86q27 48 71 65q23 8 42 8h4q1 0 1 2v8q0 15 11 34q7 16 7 21v2q0 1 -3 2h-1
q-5 -5 -8 -5t-5 27q-5 28 -5 35q19 8 19 24v6q0 183 65 397l93 296q33 114 45 185q18 128 18 188q0 30 -15 47q-1 2 -26 25v3q0 8 94 23q5 1 14 1zM1008 1495q22 0 68 -45h3q25 0 62 -44q11 -9 45 -22q7 -6 7 -10v-3q-13 -43 -13 -60q-14 -99 -14 -112v-3q0 -89 33 -537
q11 -140 11 -179q0 -35 -9 -43q-6 -2 -9 -2q-49 12 -74 31q-39 27 -61 40q-12 24 -27 40q-4 2 -4 6v1q0 1 12 31v5l-5 17q3 20 7 42v9q0 6 -8 24q-3 8 -3 12q4 6 4 10q-4 16 -5 16l-4 1q-22 0 -198 -89q-141 -70 -184 -70h-12q-3 -4 -40 -69h-3q-3 0 -22 19q-3 0 -4 8
q1 11 10 30h-1q-8 4 -11 4h-4q-9 0 -15 -24q-9 -11 -29 -11q-31 0 -58 18q-4 8 -4 15q0 1 300 583q26 49 119 191q70 108 84 128q34 42 56 42zM398 1421q0 -6 7 -50v-7q0 -14 -6 -48v-7q3 -35 3 -47v-12q0 -28 -8 -96q0 -22 -10 -47q2 -8 2 -30q0 -43 -27 -138
q-7 -17 -7 -23v-11q0 -5 -9 -85v-5l2 -3q6 0 9 25q26 103 26 121q0 29 27 127q13 53 13 118q4 55 4 110v7q0 21 -3 80q-5 30 -9 30q0 4 -9 5v0q-5 -2 -5 -14zM858 1057q44 56 75 112q21 38 31 65q-41 -42 -61 -81q0 -4 -35 -57q-10 -23 -10 -39zM742 752v0q84 36 254 101v0
q-31 269 -31 285q-46 -68 -64 -107q-74 -133 -159 -279zM1126 1132q-4 -27 -4 -42v-20q0 -25 17 -48q5 21 5 37v6q0 33 -18 67zM1132 968q0 -2 10 -38q2 -19 2 -25v-54q1 -27 6 -81v-10l-2 -43v-1q0 -95 18 -145q9 -17 14 -23q4 -7 5 -7q-19 83 -19 191q0 124 -8 206
q0 37 -10 43q-6 4 -9 4q-7 -8 -7 -17zM687 760q-13 -16 -13 -27h1q14 9 14 26zM205 363q0 -1 1 -1q-5 -30 -5 -36v-7q0 -14 5 -28h2q20 33 20 69q23 118 46 181q10 32 29 108q26 79 33 106q-21 -16 -33 -66q-52 -139 -52 -149q-11 -35 -46 -177zM672 730v-1q1 0 1 1h-1z
M572 547q36 48 64 102q21 41 33 75q-39 -41 -57 -82q-12 -26 -31 -55q-9 -22 -9 -40zM278 709q-17 -35 -17 -57v-9h1l13 30q4 13 4 22v11v3h-1zM692 252h1q28 3 63 22l22 15v1q-9 1 -16 1h-5q-38 0 -65 -39z" />
    <glyph glyph-name="le" unicode="le" horiz-adv-x="1401" 
d="M381 1504h12q71 0 102 -80q16 -47 16 -110v-9q0 -191 -130 -632q-82 -282 -82 -296q-5 -17 -11 -49h1q62 26 159 50q56 12 140 26q212 45 266 55q53 10 81 10q35 -2 45 -4q39 -9 39 -38q0 -28 -46 -72q-20 -23 -28 -38h-28q-53 0 -95 -25v-1q17 -3 38 -3h15q26 0 65 6v-3
q-4 -8 -35 -18q-66 -18 -246 -55q-205 -47 -318 -97l-67 -25q1 -8 1 -16v-8q0 -39 -30 -61q-9 -5 -18 -5q-18 0 -67 43q-2 2 -3 2q-67 -13 -113 -47q-34 -28 -48 -50q-14 -18 -31 -51l-3 -2v0q-9 2 -12 114v11q0 69 13 84q25 47 71 65q21 8 42 8h4v4q0 22 12 41q6 17 6 21
q0 3 -4 3q-2 -5 -7 -5h-1q-3 0 -5 30q-1 0 -5 32q20 7 20 30v19q0 183 88 455q65 199 97 322q12 43 19 88q16 122 16 177v11q0 32 -29 55q-12 10 -12 13q0 9 90 24q6 1 16 1zM1215 1451q97 0 130 -8q40 -13 78 -47q28 -25 28 -49v-3q0 -23 -19 -47q-37 -13 -80 -13
q-25 -1 -127 -29q-79 -22 -126 -22h-1q9 -7 9 -8v-1l-123 -13q-24 -4 -52 -10q0 -1 50 -22q98 -49 138 -67q57 -22 69 -22q37 -11 37 -17q3 -4 4 -31q13 -36 13 -58v-10q0 -8 -6 -10q-32 -18 -76 -34q-46 -17 -65 -17q-84 -13 -146 -31l-171 -57v-1q1 0 13 -10
q-41 -30 -41 -42q-25 -46 -27 -47h-12q-4 -21 -4 -35q0 -21 23 -49v6q0 8 -3 26v0q0 16 22 68q0 9 9 12q5 9 26 31q2 5 6 17q4 5 10 5q17 -3 17 -15v-3q0 -5 -16 -38q0 -6 -27 -74q-6 -21 -6 -35q1 -12 2 -15q26 0 148 46q181 68 276 118q40 25 85 41q37 11 58 11
q26 -2 26 -11v-4q0 -4 -11 -39l-1 -6q1 -2 1 -4q-45 -22 -81 -49l-4 -4h1q19 2 50 23q21 15 26 15q0 -1 1 -1q-4 -6 -4 -22v-8q0 -24 -89 -80q-83 -49 -163 -81q-36 -15 -77 -30v1l2 8h-1q-45 -21 -93 -21q-23 -3 -66 -23q-19 -8 -81 -16q-43 -10 -76 -18h-2q-49 0 -75 28
q-56 53 -56 147q0 48 15 109q-13 12 -22 34q-11 26 -17 57v0q0 11 4 51q0 13 6 41q0 7 7 10q24 7 89 24q12 5 12 6q1 2 1 3q-3 3 -11 3h-3q-12 0 -50 -13q-30 -7 -32 -7q-2 5 -2 14q2 13 6 16q3 8 8 8q217 54 407 94q32 6 36 6v0q-65 19 -165 57q-39 13 -74 23h-21h-8
q-63 0 -94 55q-16 33 -18 69q-14 44 -14 54q0 18 35 28q48 17 136 31q216 31 419 31zM436 1423v-4q0 -6 6 -46v-14q0 -12 -6 -41v-7q4 -37 4 -55q0 -31 -8 -100q0 -20 -11 -51q2 -4 2 -24v-9q0 -36 -24 -125q-10 -27 -10 -33v-11q-9 -80 -9 -87q1 -3 3 -4q4 2 6 13
q6 35 21 89q6 28 10 73q6 27 26 105q11 48 11 103q5 73 5 122q-3 94 -6 94q-4 24 -15 24h-1q-4 0 -4 -12zM950 1404q0 -8 19 -8q51 6 137 14q3 2 28 2q3 0 24 -1q2 0 3 3q0 11 -19 12q-16 0 -24 1q-71 0 -155 -14q-13 -3 -13 -9zM695 1357v-1q0 -9 18 -12q27 0 60 15
q35 11 112 25q32 7 32 10l1 4q-6 5 -21 5h-7q-5 0 -50 -10q-42 -9 -98 -13q-30 -6 -45 -16q-2 -4 -2 -7zM829 1024v-1q0 -1 2 -2h4q1 0 1 1v4q0 2 -4 2q-3 -1 -3 -4zM794 1015q0 -4 3 -5h2q5 0 5 5q-1 3 -5 3v0q-4 0 -5 -3zM758 1004q1 -4 2 -4h3q6 0 6 6q0 4 -4 4h-1
q-5 0 -6 -6zM695 983v-3q0 -1 6 -3q16 0 35 18q1 5 1 6q0 5 -6 5q-13 0 -35 -21zM848 834q4 0 6 -3q0 -15 -24 -22h-5q-6 1 -6 6v2q0 10 27 17h2zM239 323q2 -32 6 -32q18 31 18 53q11 73 36 159q20 56 40 143q34 105 34 109q-17 -17 -24 -36q-9 -36 -39 -113
q-29 -78 -67 -244q-4 -35 -4 -39zM1238 709h1q16 4 23 12h-1q-9 0 -23 -11v-1zM316 710q-18 -36 -18 -64v-3q19 31 19 56q-1 9 -1 11zM1171 683q6 -1 7 -1q23 0 43 21v1h-4q-27 0 -46 -21zM1157 675h2q8 2 8 6h-1q-4 0 -9 -6zM730 252q21 2 55 17q16 9 30 21q-9 1 -14 1h-8
q-32 0 -59 -32q-4 -6 -4 -7z" />
    <glyph glyph-name="li" unicode="li" horiz-adv-x="990" 
d="M952 1615h3q21 0 32 -5v-1q-44 -33 -79 -50q-31 -15 -62 -40q-35 -37 -53 -71q-27 -29 -30 -47q-7 -7 -7 -11q0 -3 4 -6q13 0 15 14q16 13 22 27q58 106 204 168q10 -6 14 -9q22 -20 22 -74q4 -39 4 -70q0 -30 -57 -71q-97 -36 -130 -107q-16 -37 -18 -68q-2 -41 -10 -45
q-4 -3 -11 -3q-25 0 -79 58q-48 31 -48 83v10q0 56 40 139q23 47 70 100q77 79 154 79zM383 1504h10q66 0 98 -70q20 -49 20 -126q0 -194 -132 -641q-54 -179 -85 -311q-5 -21 -5 -28q71 28 129 43q49 13 128 25q83 15 290 61q70 12 100 12l46 -4q37 -10 37 -38
q0 -27 -40 -65q-27 -30 -34 -45h-29q-55 0 -94 -26q18 -3 34 -3h19q26 0 65 6v-2q0 -17 -212 -59q-252 -53 -381 -109l-73 -28v-1q1 -12 1 -20q0 -46 -34 -66q-8 -3 -14 -3q-13 0 -37 19q-11 7 -33 26q-65 -10 -121 -53q-45 -41 -61 -77q-8 -15 -12 -20h-1q-9 0 -12 111v26
q0 56 15 75q24 45 72 64q21 6 38 6h4q1 0 1 2v7q0 16 13 38l5 16v4q0 1 -3 2v0q-6 -5 -9 -5t-4 22q-4 24 -6 40q19 7 19 25v1q0 195 70 415q15 49 86 276q47 163 47 190q18 121 18 190q0 28 -13 43q-1 4 -28 28v3q0 8 94 23q6 1 14 1zM435 1421q0 -5 7 -50v-6q0 -16 -6 -50
v-5q3 -36 3 -46v-16q0 -26 -8 -95q0 -20 -10 -48q3 -2 3 -30q0 -35 -23 -121q-12 -35 -12 -37v-13q0 -6 -9 -84v-4q0 -3 3 -4q6 4 6 14q0 4 22 97q5 25 10 69q9 38 25 101q11 50 11 108q4 57 4 108v14q-2 85 -5 85q-4 23 -8 23q-2 4 -6 4h-2q-5 -2 -5 -14zM693 1076h4
q16 0 108 -25q11 -3 37 -3q20 -6 20 -25v-5q0 -12 -12 -51q-10 -60 -37 -170q0 -4 -6 -14h-1q-6 0 -8 9v1q21 72 21 77v2h-1q-23 -66 -23 -93q0 -10 1 -32l-7 -55q-12 -117 -12 -138q0 -31 12 -42q3 -4 3 -8v-2q-4 -15 -31 -15l-3 1h-1q-26 0 -26 6q-11 31 -11 62q2 34 2 40
q0 11 -7 32v4q0 5 17 27q17 29 17 56q0 8 -5 37q-1 7 -1 10q2 23 2 32q-3 9 -10 9h-3q-13 0 -19 -36q-18 -58 -18 -86q-15 -91 -15 -102v-12q0 -43 26 -67l2 -2v-1h-1q-94 15 -121 29q-21 15 -21 23q-3 0 -11 86q-1 22 -1 42v5q0 70 29 169l37 145l10 34q28 46 64 46z
M769 889v-3q0 -14 8 -14h1q13 0 22 32q1 5 18 21v5q-1 4 -7 9q8 21 11 53q6 16 6 18v4q-2 8 -8 8q-15 0 -28 -51q-1 -21 -20 -59q-3 -9 -3 -23zM819 874v-2h1v2h-1zM239 325v-4q0 -16 4 -30h1q14 20 17 42l7 44q22 105 46 173q21 81 31 117q19 54 28 88q-21 -17 -31 -62
q-30 -80 -48 -134q-18 -57 -51 -197q-4 -30 -4 -37zM315 709q-17 -36 -17 -57v-9h1q17 35 17 48v17q0 1 -1 1zM730 253v-1q34 3 74 29q10 8 11 8v1q-9 1 -16 1h-5q-37 0 -64 -38z" />
    <glyph glyph-name="lo" unicode="lo" horiz-adv-x="1277" 
d="M382 1504h8q90 0 113 -116q6 -34 6 -69v-20q0 -183 -130 -627q-60 -200 -85 -310q-4 -15 -7 -34q71 29 162 51q55 11 152 28q200 44 278 57q22 4 55 5l44 -4q40 -9 40 -38q0 -28 -47 -72q-20 -25 -28 -38h-28q-53 0 -95 -25v-1q19 -3 35 -3h18q27 0 65 6q0 -1 1 -1
q0 -17 -165 -50q-293 -61 -422 -117q-14 -6 -80 -30q2 -6 2 -15v-8q0 -45 -37 -65q-9 -2 -12 -2q-17 0 -67 43q-2 2 -3 2q-61 -10 -117 -51q-33 -29 -48 -52q-11 -16 -27 -45l-2 -2h-1q-7 0 -12 107v18q0 63 11 79q7 17 32 44q38 34 84 34h4v1q0 26 12 44q6 17 6 20
q-1 4 -4 4q-4 -5 -8 -5q-3 0 -4 20l-6 42q19 8 19 26v19q0 191 91 467q59 183 88 288q26 102 26 127q15 106 15 162v16q0 31 -38 61l-2 2v4q0 5 54 15q32 8 54 8zM434 1424v-3q0 -8 6 -47q1 -8 1 -10q0 -13 -7 -51v-2q4 -35 4 -54v-2q0 -33 -8 -99q0 -21 -10 -51q2 -5 2 -27
q0 -40 -25 -132q-7 -19 -10 -30q0 -1 1 -13q-10 -83 -10 -87q1 -3 4 -4q6 4 6 15q6 30 22 96q4 25 10 75q22 81 28 109q6 21 11 164q1 30 1 47q0 15 -3 80q-6 36 -13 36q0 1 -5 1q-5 -1 -5 -11zM943 1357h12q85 0 175 -65q16 -1 46 -26q35 -38 54 -116q15 -70 15 -147v-9
q0 -149 -44 -265q-17 -41 -45 -79q-7 -15 -56 -61q-65 -55 -133 -70q-30 -6 -51 -6h-10q-102 0 -184 91q-5 7 -20 15q-85 50 -121 147q-18 55 -18 115v5q0 147 97 294q85 121 203 163q48 14 80 14zM754 1227h1q20 6 20 14v1q0 9 -3 9q-18 -5 -18 -24zM761 872
q0 -138 90 -226q12 -11 26 -22q41 11 65 41q34 41 82 170q12 31 23 102q21 144 21 309q-5 0 -6 1q-76 0 -131 -34q-21 -12 -50 -40q-47 -52 -66 -92q-54 -103 -54 -209zM737 1208v-3q1 -1 2 -1v0q1 0 3 3l-3 2q-2 0 -2 -1zM604 969v-2h1q15 0 15 26q2 18 35 86q14 28 40 59
q25 25 36 52l5 11h-1h-6q-7 0 -17 -14q-53 -60 -66 -86q-8 -14 -12 -28q-30 -44 -30 -104zM601 948q-6 -13 -6 -31v-1q0 -19 4 -19q3 -1 4 -1h3q4 21 4 36v3q0 13 -8 13h-1zM1195 880v-12q-9 -48 -29 -89q-10 -29 -45 -71q-20 -35 -20 -46h2q11 0 15 9q65 81 72 119
q17 37 17 45q4 17 4 35q0 21 -2 27h-1q-13 0 -13 -17zM1101 796q4 -14 7 -14q2 0 3 15q-1 0 -10 -1zM237 323q0 -17 5 -32h1q14 19 19 53q0 28 33 152q23 66 43 152q21 62 34 107q-26 -26 -29 -55q-16 -46 -44 -119q-23 -71 -57 -217q-5 -37 -5 -41zM314 710
q-18 -36 -18 -64l1 -2h1q17 33 17 46v9v11h-1zM1095 658v-2q0 -1 2 -2h2v2v3h-2q-1 -1 -2 -1zM1062 623v-4q0 -6 2 -9q18 6 18 20v5q-19 -8 -20 -12zM1043 598q-27 -21 -27 -29v-2l7 -4q23 11 30 29q-7 6 -10 6zM728 252h1q18 0 58 19q15 9 26 19q-8 1 -14 1h-6
q-38 0 -65 -39z" />
    <glyph glyph-name="lk" unicode="lk" horiz-adv-x="1496" 
d="M1481 1518q17 0 28 -33q4 -12 28 -34q17 -16 17 -33q0 -43 -129 -184q-47 -55 -131 -146q-84 -93 -301 -326q75 -134 124 -208q141 -210 328 -210h14q2 -1 2 -2q-5 -37 -20 -63q-40 -65 -132 -65q-90 0 -195 57q-28 16 -67 50q-51 52 -75 83q-64 82 -105 147q0 13 -25 45
q-7 16 -10 18q-3 0 -11 -10q-8 0 -16 -10q-11 -11 -14 -11l-8 3q-3 0 -14 -12q-15 -10 -21 -29q-3 -13 -11 -13q-24 0 -50 -35l-42 -17q-8 -1 -10 -1q-15 4 -20 4h-3q-18 0 -58 -13q-14 -2 -21 -2h-8q-33 0 -41 24v2q47 198 133 499q37 142 37 159q21 149 45 240
q14 22 39 35q35 18 59 18h8q51 0 71 -53q12 -34 12 -90q0 -120 -42 -292q-10 -31 -35 -96l-4 -18v0q45 5 48 6q4 5 27 29q62 69 248 282q61 69 149 158q143 141 202 147zM383 1504h10q62 0 94 -61q24 -49 24 -135q0 -192 -128 -625q-57 -195 -84 -305q-6 -23 -11 -50h1
q49 21 104 38q69 19 168 33q167 38 209 46q35 5 52 5l46 -5q41 -8 41 -36v-4q0 -25 -43 -68q-23 -25 -30 -40h-32q-51 0 -92 -26q20 -3 39 -3h12q28 0 67 6l1 -2q0 -18 -148 -47q-215 -48 -337 -102l-72 -27v-1q1 -9 1 -18v0q0 -51 -37 -69q-9 -2 -12 -2q-17 0 -69 45
q-65 -10 -121 -53q-44 -40 -60 -74q-9 -18 -14 -23v0q-9 0 -12 111v22q0 58 12 74q7 19 38 48q35 27 78 27h2v8q0 17 11 36q6 15 7 21q0 3 -3 4h-1q-4 -5 -8 -5q-3 0 -6 33q-1 4 -4 29q19 8 19 24q0 184 60 383q20 71 87 281q31 100 53 199q21 136 21 210q0 31 -16 47
q0 1 -24 24q-1 1 -1 2v1q0 8 93 23q7 1 15 1zM435 1421q0 -4 7 -49v-9q0 -14 -6 -48v-4q3 -35 4 -55q0 -28 -9 -104q0 -17 -10 -47v0q2 -5 2 -29q0 -41 -26 -133q-8 -22 -8 -28v-11q0 -6 -9 -85v-4l3 -3q5 0 8 24l20 87q5 23 10 69q0 2 27 107q7 30 10 116q3 57 3 90v22
q-2 82 -5 82q-3 26 -15 26h-1q-4 0 -5 -14zM1405 1288l2 -1h2q20 1 85 86q1 1 25 33v0q-20 -8 -69 -69q-18 -18 -37 -31q-8 -10 -8 -18zM840 1326l4 -40q0 -18 -14 -60q-2 -6 -2 -15v-17q-4 0 -14 -47q0 -17 -14 -51v-1q1 -5 1 -6v-20q-5 -11 -10 -39q-11 -38 -24 -73
q-1 -2 -1 -6v-10q0 -5 -14 -86q2 -3 3 -3q6 0 11 27q29 94 29 100q2 28 10 62q9 43 20 66q12 24 12 36q15 93 19 93q0 -1 1 -1h1l6 76q-4 34 -14 34h-2q-8 0 -8 -19zM1371 1237q20 18 27 31q5 12 5 14h-1q-31 -25 -31 -45zM1266 1135v-5q-8 -16 -8 -31v-1q46 50 118 131h-2
q-21 0 -39 -23q-69 -67 -69 -71zM1003 839q0 -3 4 -5h5q31 29 41 44q28 33 113 127q45 54 81 92h-1q-16 -1 -37 -20q-24 -22 -65 -57q-12 -13 -30 -41q-18 -24 -58 -65q-53 -60 -53 -75zM736 803v-2q0 -1 3 -2h5q6 2 6 26q-7 0 -14 -22zM238 324v-2q0 -16 5 -31h1
q19 30 19 55q1 23 34 151q21 58 42 149q23 72 34 110q-21 -23 -27 -45q0 -9 -44 -126q-22 -65 -59 -223q-5 -32 -5 -38zM722 739q-16 -27 -16 -48v-2q0 -16 3 -17q14 26 14 49v18h-1zM315 709q-17 -35 -17 -60v-6h1q17 34 17 50v15q0 1 -1 1zM694 642v-7h1q13 7 13 28v4
q-14 -11 -14 -25zM620 233v-1q17 1 53 16q15 8 33 21v1q-8 1 -16 1h-7q-31 0 -58 -31q0 -1 -5 -7z" />
    <glyph glyph-name="ka" unicode="ka" horiz-adv-x="1561" 
d="M1052 1518q17 0 26 -29q6 -18 27 -35q20 -19 20 -36q0 -43 -129 -184q0 -2 -79 -89q-132 -146 -353 -383q63 -112 122 -207q17 -33 45 -64q6 -7 13 -9q0 -1 1 -2q0 -5 -22 -18q-48 -23 -101 -23h-1q-82 0 -146 56q-37 54 -37 57q0 12 -24 42q-9 17 -10 19q0 1 -3 1
q-8 -10 -11 -10q-5 0 -14 -10q-11 -11 -15 -11q-4 2 -7 3q-3 0 -15 -13q-11 -8 -19 -24q-4 -16 -8 -16q-40 0 -71 -67q-8 -18 -14 -56q0 -4 -7 -26v0h5q-12 -27 -12 -28q-11 -35 -14 -56q0 -13 -5 -58q0 -26 -8 -93q-1 -13 -2 -47q0 -11 3 -59q0 -8 -2 -32h-1v1
q-1 0 -13 -19h-1v5q0 14 -8 37v2q0 3 8 6q2 0 8 140q0 100 22 187l-3 -4h-1v0l15 53v1v0q-18 -24 -18 -50q-17 -84 -33 -230q-4 -52 -4 -68v-3q0 -14 3 -23q-3 -34 -3 -45q-8 -12 -8 -27q0 -10 6 -17q-1 -2 -1 -4q13 -19 44 -52v-1v0q-110 27 -145 52q-52 39 -52 171
q0 216 145 737q60 214 84 328q21 154 46 251q17 31 70 49q16 5 30 5h1h3q53 0 74 -54q10 -32 10 -77v-21q0 -117 -40 -303q-14 -57 -33 -101q-8 -21 -13 -41h1q39 4 48 6q95 104 274 311q159 176 252 251q73 54 100 54zM976 1290q1 -3 2 -3h1q20 0 87 88l24 31v0
q-17 -7 -48 -44q-24 -32 -59 -58q-7 -11 -7 -14zM417 1376l3 -43q0 -18 -14 -59q-2 -10 -2 -21v-8l1 -4q-6 0 -17 -60q-4 -20 -12 -39q1 -2 1 -4v-12q0 -31 -11 -76q-12 -52 -29 -93v-2q0 -22 -12 -89q-2 -8 -2 -11q1 -3 3 -3q5 0 9 19l28 96q4 19 7 50q13 59 28 102
q11 38 20 104q11 61 14 61q1 0 1 -2h1q4 41 6 78q-4 33 -14 33h-3q-5 0 -6 -17zM1314 1388h2q24 0 69 -45q28 0 63 -41q11 -11 43 -24q11 -5 11 -12v-1q-13 -43 -13 -60q-13 -99 -13 -111v-13q0 -91 41 -660q2 -19 2 -40v-14q0 -39 -16 -39h-1q-46 11 -64 24q-51 34 -72 46
q-12 25 -28 42q-1 0 -3 5l12 33v2q0 3 -5 18v1q3 20 8 44v6q0 7 -9 24q-3 8 -3 13q4 6 4 9q-2 9 -4 17q-2 1 -4 1q-24 0 -201 -90q-139 -70 -183 -70h-12l-63 -111q-33 -65 -53 -116q-30 -78 -30 -112q-1 -3 -1 -17v-3q0 -21 2 -45q-1 -7 -3 -7h-1q-45 8 -88 42
q-21 15 -41 27q-12 23 -12 49v1q0 77 77 219q332 645 349 676q47 77 111 174q61 94 76 117q36 41 53 41zM942 1237q24 22 28 33q2 4 4 12h-1q-31 -25 -31 -45zM836 1135v-1l2 -2q-10 -19 -10 -33v-1q43 45 118 131h-1q-21 0 -38 -22q-68 -66 -71 -72zM1167 950v-1h1
q60 80 95 153l10 25q-21 -20 -32 -37q-20 -25 -43 -70q-31 -40 -31 -70zM574 839q1 -6 6 -6q7 0 47 48q22 27 102 115q49 59 89 101h-1q-18 -2 -45 -27q-17 -15 -57 -50q-14 -15 -31 -42q-14 -20 -67 -74q-43 -53 -43 -65zM1273 1032q-45 -70 -59 -101q-54 -98 -164 -287
q73 33 228 91q27 11 28 12q-32 264 -32 285h-1zM1435 1025q-5 -30 -5 -51q0 -38 18 -58v0q5 20 5 39q0 33 -17 70h-1zM1448 878q-6 -8 -6 -18q0 -3 9 -37q3 -23 3 -26q-1 -38 -1 -53t7 -82v-8l-4 -48q3 -70 10 -110q4 -28 27 -61h1v1q-19 84 -19 202q0 125 -8 186
q-1 48 -7 48q-5 6 -12 6zM307 802q1 -3 3 -3h5q6 0 6 26h-1q-5 0 -12 -19q-1 -1 -1 -4zM293 739q-17 -27 -17 -48v-1q0 -9 3 -19h1q14 29 14 47v8v4v9h-1zM264 642q1 -2 1 -7q13 6 13 27v5q-14 -12 -14 -25zM983 626q14 8 14 22v4q-14 -12 -14 -26zM981 624v-2h1l1 2h-2z
M881 440q22 28 41 61q35 59 57 116v1q-40 -44 -51 -71q-15 -30 -38 -67q-9 -20 -9 -40zM857 403q-37 -55 -37 -88q0 -6 1 -17h1q36 47 36 96v9h-1zM779 215l1 -14q20 17 20 41q0 3 -2 14v0q-19 -17 -19 -41z" />
    <glyph glyph-name="ST" unicode="ST" horiz-adv-x="1201" 
d="M1583 1730h13q124 0 214 -37q37 -16 44 -25q17 -18 26 -43q8 -20 14 -49q4 -18 6 -45q0 -6 -6 -13q-7 -6 -17 -6q-24 0 -71 30q-27 12 -63 12h-10q-68 0 -245 -41q-96 -23 -193 -37q-41 -5 -102 -11q-14 -3 -20 -6q-8 -4 -11 -16t-10 -69q-6 -39 -11 -51
q-14 -55 -37 -124q-25 -81 -25 -109q-19 -102 -41 -164q-25 -75 -46 -182q-10 -65 -24 -128q-33 -170 -33 -185q-2 -22 -13 -85q-27 -174 -27 -237v-8q0 -44 6 -213q1 -16 1 -19q0 -18 -3 -18q-2 -1 -3 -1q-2 0 -5 1q-3 -1 -4 -1q-6 1 -8 1q-5 6 -10 9q-5 1 -5 2v3
q0 9 14 29q4 7 4 11v2q0 9 -21 21v1h1q-2 12 -2 22q0 27 12 56v4q0 5 -4 17q-6 19 -6 51q0 46 10 87q2 8 8 15q6 10 6 20q0 5 -6 23q-4 17 -4 31q0 19 9 47q8 36 8 62q4 43 9 65q3 20 14 67q29 143 29 166v3q-1 5 -6 5h-2q-8 -2 -8 -6q-10 -23 -22 -67q-5 -22 -5 -32
q-6 -47 -17 -106q-17 -77 -27 -142q-3 -28 -9 -69q-22 -106 -22 -184q0 -18 2 -37q-2 -53 -2 -100v-3q0 -29 1 -59v-1q-1 -1 -8 -1q-24 0 -41 24q-15 16 -22 23q-11 15 -16 27q-27 67 -27 199v12q0 110 18 252q20 125 53 269q69 301 145 573q22 62 22 160v8
q-56 -15 -105 -36q-61 -26 -135 -70q-110 -66 -214 -144q-55 -42 -126 -105q-42 -38 -58 -53h-5h-3q-5 0 -5 -4q0 -1 1 -8q-28 -25 -66 -63q34 -34 51 -46q16 -11 41 -25q33 -21 74 -52q63 -50 110 -90q10 -19 36 -51q15 -16 28 -34q22 -25 30 -41q1 -2 19 -32v0v0l-29 64v1
q24 -33 42 -70q35 -75 35 -142v-5q0 -5 -1 -13v0q-2 6 -5 11v0q0 -5 -10 -13q-5 -8 -5 -17q-6 -26 -6 -34q0 -13 -6 -50q-6 -15 -6 -37q0 -16 -11 -28q-6 -7 -10 -15q-8 -12 -30 -38l3 -4q-41 -38 -77 -64q-70 -50 -106 -64q-27 -7 -38 -7h-2q-1 0 -4 12h-1q-8 -4 -16 -6
l-3 -4q8 -2 18 -2v0q-9 -3 -35 -18q-15 -8 -31 -12q-23 -7 -46 -13q-38 -9 -64 -9q-13 0 -24 3q-18 -3 -34 -3q-26 0 -46 13q-49 27 -78 114q-7 20 -14 56q-6 33 -6 46v1q34 -23 83 -23q89 0 209 69q37 22 74 54q6 5 47 41q38 36 46 47q32 37 42 71q4 14 4 32v3q0 14 -2 14
q-20 34 -23 39q-18 17 -30 24q-29 20 -103 62q-63 35 -117 73q-89 65 -102 108q-3 7 -6 25q-27 25 -34 35q-21 27 -21 65q0 84 19 124q9 20 23 42q13 20 48 58q24 24 32 30q44 35 97 69q76 51 157 95q2 7 17 18q31 23 153 73q2 0 163 68q83 35 187 71q135 48 296 86
q202 48 345 48zM855 1526q5 0 20 4q5 3 5 6q-2 7 -7 7v0q-6 0 -18 -17zM846 1524h-4q-31 0 -66 -18q-23 -7 -79 -31q-124 -50 -223 -96l-11 -6q-5 -2 -8 -5q-2 -4 -2 -8v0q0 -8 14 -9h3q15 10 83 42q135 62 296 130v1h-3zM141 1100v0v0q19 0 34 23q6 10 17 20q52 51 85 78
q56 46 109 77q21 13 47 34q0 1 2 2q-4 7 -7 10q-80 -48 -149 -101q-17 -13 -37 -33q-23 -18 -43 -36q-33 -34 -44 -51q-7 -11 -14 -23zM1033 1033q-12 -25 -12 -43v-11v0q15 31 15 47v3q0 2 -3 4zM995 894v-8v-5q24 35 24 83v10q-24 -39 -24 -80zM982 841q-9 -18 -9 -35
q0 -5 1 -13h1q9 17 9 34v1q0 5 -1 13h-1zM965 764q-15 -31 -15 -57v-11v0q16 31 16 67v1h-1zM397 739q26 -21 47 -26l5 -1q-7 11 -19 18q-18 9 -33 9zM450 712v-1h1v1h-1zM452 710q1 -7 3 -10q10 -8 42 -40q33 -37 45 -56q23 -32 39 -64q10 -13 18 -13q0 -1 2 -1
q-1 12 -5 18q-17 33 -45 72q-18 24 -41 48q-36 38 -51 43q-6 3 -7 3zM608 258q-15 -16 -77 -79q-8 -9 -18 -18q-14 -9 -47 -29q-7 -5 -8 -7v-5q6 -6 12 -6q36 18 73 44q14 10 37 34q22 25 30 41q3 6 8 17q-8 8 -10 8z" />
    <glyph glyph-name="ll" unicode="ll" horiz-adv-x="987" 
d="M622 1614h4q83 0 127 -47q-2 -17 -6 -31q-1 0 -1 -2q0 -1 1 -4q2 -19 3 -33q0 -23 -8 -65q0 -9 -13 -58q-8 -22 -8 -25q1 -16 1 -17q0 -3 -5 -67q-1 -5 -1 -13v-3q0 -2 3 -4q5 2 5 4l7 42q15 63 15 74q1 10 3 45q5 32 11 56q14 55 14 65l1 5h1q24 -45 24 -105
q-25 -142 -68 -312q-51 -202 -76 -312q-14 -69 -14 -76v0q75 22 160 22q54 0 165 -10q32 -7 43 -19q12 -12 12 -29q0 -24 -30 -52q-28 -28 -33 -37l-6 -11q-37 6 -56 6q-33 0 -68 -16v0q41 -12 97 -12h8h15v-4v-4q0 -5 -6 -5q-23 1 -28 1h-3q-73 0 -204 -41l-71 -19
q0 -2 -3 -3q-43 -10 -192 -22q-48 -4 -48 -5q-8 -9 -11 -9h-2q-1 0 -1 3v1q1 19 30 70q8 14 27 36q-3 8 -3 16q0 11 4 24h1h1q-1 4 -1 5v8q0 12 8 26q3 6 6 16q2 2 2 6v2q0 3 -5 4q-3 -4 -6 -4q-5 0 -5 14l-9 49q26 42 56 149q33 114 61 286q23 148 23 251q0 138 -42 169
q-9 6 -14 6v1q65 14 108 14zM338 1504q124 0 124 -195q0 -162 -87 -480q0 -5 -83 -294q-29 -96 -47 -176q-4 -20 -6 -31h1q43 19 126 43q62 16 137 27q89 16 213 44t169 28h1q14 0 21 -3h1h2q46 0 57 -27q2 -6 2 -12v0q0 -27 -36 -62q0 -1 -10 -11q-23 -26 -27 -38
q-12 1 -19 1h-1q-49 0 -73 -11q-13 -5 -32 -15v0q21 -4 41 -4h11q27 0 67 6h1v-1q0 -10 -56 -25q-47 -12 -210 -46q-202 -45 -306 -89q-31 -13 -94 -37q2 -9 2 -19q0 -36 -22 -58q-13 -12 -27 -12q-11 0 -24 10q-20 13 -45 35q-27 -5 -45 -12q-26 -9 -45 -20
q-17 -10 -37 -26q-28 -27 -32 -35q-17 -21 -31 -51q-4 -6 -6 -6q-8 7 -12 100v23q0 63 9 78q10 22 33 46q38 35 89 35v4q0 22 8 33q4 10 7 19q2 0 3 9q0 3 -5 4v0q-3 -5 -7 -5t-4 13q-6 46 -6 49q19 7 19 25v5q0 148 39 302q27 106 71 239q42 130 72 241q13 49 19 87
q9 50 16 134q3 34 3 56v10q0 20 -7 30q-4 11 -21 26q-12 10 -12 13v1q0 6 42 14q45 11 69 11zM386 1420q0 -10 6 -39q1 -7 1 -15v-4q0 -16 -6 -42q-1 -4 -1 -9q0 -3 4 -35v-21q0 -35 -7 -91q-2 -25 -4 -37q-4 -13 -7 -21q2 -5 2 -22q1 0 1 -6q0 -29 -12 -75q-7 -39 -17 -67
q-6 -16 -6 -20v-5v-9q0 -4 -8 -68q-1 -15 -1 -18q1 -2 3 -4q5 3 5 10q8 40 19 78q8 30 11 73q4 25 10 49q22 79 22 90q6 35 6 65q5 90 5 138q0 21 -2 85q-2 5 -5 20q-5 15 -12 15h-3q-4 -3 -4 -14v-1zM595 771v-3q-3 -24 -3 -30v-2q0 -17 6 -35l1 -1q9 12 12 23q6 19 6 40
q5 39 19 105q9 34 23 80q8 32 17 75q7 32 29 107q4 13 5 19q-18 -15 -26 -43q0 -10 -29 -90q-24 -67 -44 -170q-16 -72 -16 -75zM654 1111q-15 -33 -15 -56v-10h1q10 21 12 28q4 12 4 22q0 6 -2 16zM190 324v-1q0 -17 4 -31l1 -1q4 4 11 19q8 23 8 33q2 21 9 51
q19 88 36 137q13 39 26 96q9 30 34 111q4 13 5 18q-15 -16 -19 -26q-9 -18 -9 -24q-10 -35 -34 -94q-25 -71 -45 -157q-23 -89 -23 -93q0 -5 -4 -30v-8zM267 711q-18 -36 -18 -64v-4h1q11 23 14 33q4 11 4 20v5q0 6 -1 10zM739 557v0h1h3q42 0 81 27q0 1 -17 4q-6 1 -11 1
q-30 0 -52 -25zM680 253v0q9 0 36 8q24 9 50 30q-9 1 -16 1h-4q-32 0 -58 -28q-1 -1 -8 -11z" />
    <glyph glyph-name="jt" unicode="jt" horiz-adv-x="1085" 
d="M974 1699h5q33 0 42 -14q4 -6 4 -19v-6q0 -6 -1 -19v0q182 31 288 31q172 0 287 -66q27 -16 44 -64q6 -20 11 -41q6 -36 6 -47q0 -4 -11 -7q-5 -1 -11 -1q-29 0 -95 25q-35 12 -72 12q-40 0 -140 -20q-65 -13 -163 -24q-134 -12 -176 -18v0q8 0 8 -2q-3 -1 -11 -2
q-42 -217 -95 -439q-31 -122 -49 -201q-14 -67 -27 -138h-2q-10 -51 -21 -117q-16 -94 -21 -133q0 -11 -12 -93q-22 -166 -22 -227q0 -53 11 -233v-27v-6q0 -10 -2 -10h-15q-7 0 -7 2q-7 8 -13 10q-1 0 -1 1v2q0 9 13 27q5 9 5 15q0 10 -22 22v1v0h1q-1 0 -2 21v7
q0 24 11 53v3q0 6 -6 20q-6 24 -6 51v9q0 50 10 84q2 5 7 10q5 10 5 19v0q0 7 -6 23q-5 18 -5 36t8 46q7 33 7 67q2 30 7 58q4 28 14 71q26 146 26 171v4q-1 6 -8 6q-9 -3 -9 -8q-11 -26 -20 -67q-5 -18 -6 -42q0 -13 -21 -134q-10 -52 -20 -128q-4 -50 -11 -84
q-13 -81 -13 -139v-13q0 -23 2 -44v-57v-9q0 -53 2 -101v0h-1q-20 9 -40 24q-26 20 -36 36q-39 69 -39 256q0 136 19 299q14 100 28 164q11 53 11 54v0q-2 0 -2 1q32 166 79 372q48 212 86 363q-135 -34 -274 -82q-105 -38 -139 -48q-16 -4 -23 -4q-34 0 -59 26
q-14 16 -18 39q-3 21 -8 34q-7 15 -18 33q-13 18 -13 19v3q0 22 108 57q119 40 156 53q87 33 91 33q82 27 218 59h1l-1 2q0 17 -3 57q39 16 102 33q43 10 73 10zM685 1528v-1q18 3 24 7q1 2 1 4q-2 7 -7 7q-6 0 -18 -17zM333 1395q11 -4 21 -4q19 0 48 12q95 29 170 65
q57 27 107 57h-3q-39 0 -78 -21q-14 -6 -64 -22q-85 -30 -183 -71q-4 -2 -18 -16zM305 1388q1 -2 5 -2q7 0 18 7l1 1q-11 3 -15 3q-9 -1 -9 -9zM410 1143q29 0 74 -42q62 -66 62 -121h1q-7 -36 -8 -36q-47 -189 -81 -354q-37 -185 -68 -438q-10 -62 -22 -96q-13 -36 -28 -63
q-10 -18 -33 -46q-85 -97 -221 -97q-99 0 -196 50q-24 12 -49 33q-28 26 -28 45q0 11 8 17q10 4 47 12q21 6 26 11l8 8q6 4 10 4q7 0 27 -13q15 -8 32 -13q32 -9 60 -9h5q39 0 57 37q9 15 21 46q2 3 4 3h2q3 0 16 -7h3q7 1 7 7q2 29 4 29q7 5 9 12q2 5 3 11q3 6 6 16
q1 5 11 17q44 180 84 528q25 208 35 286h2q9 59 9 93v9q0 9 -1 28v1q0 18 15 25q9 5 53 5q18 0 34 2zM864 1005q-13 -27 -13 -44v-12v0q16 32 16 47v5q0 2 -3 4zM245 14q2 -8 3 -8q0 -1 2 -1q12 0 31 10q17 9 26 34l21 59q27 79 51 203q8 46 15 112v0h1q4 15 16 100
q5 33 11 64q3 19 6 65q0 5 5 26q22 146 41 218q10 31 10 42q-1 12 -6 12h-2q-8 0 -16 -19q-2 -7 -12 -56q-14 -66 -22 -97q-9 -45 -9 -56q-2 -25 -4 -39q-3 -12 -13 -46q-12 -54 -12 -112q-2 -57 -4 -57q-16 -59 -23 -93q-4 -24 -8 -59q-6 -34 -15 -68q0 -38 -28 -107
q-19 -56 -29 -74q-5 -8 -17 -25q-15 -22 -19 -28zM825 861v-4v-8v0q25 37 25 84v11q-25 -39 -25 -83zM803 773q0 -8 1 -13v0q10 17 10 33v2q0 5 -2 13q-9 -17 -9 -35zM795 730q-17 -31 -17 -59v-10h1q16 31 16 67v2z" />
    <glyph glyph-name="it" unicode="it" horiz-adv-x="896" 
d="M836 1699h5q37 0 43 -18q3 -5 3 -18q0 -11 -1 -22v0q182 31 288 31q178 0 293 -70q34 -26 49 -105q4 -18 6 -43q0 -2 -6 -6q-6 -2 -15 -2q-30 0 -96 25q-35 12 -72 12q-40 0 -142 -20q-67 -14 -170 -25q-120 -11 -167 -17v0l7 -1v0q0 -1 -10 -3q-55 -278 -116 -524
q-26 -98 -55 -254q-3 0 -3 -4q-15 -75 -37 -215q-3 -17 -7 -62q-31 -218 -31 -281v-14q0 -48 10 -225q1 -15 1 -33q0 -12 -2 -12h-15q-7 0 -7 2q-7 8 -14 10v3q0 9 13 28q4 8 4 13v2q0 9 -21 21v1h1q-1 1 -1 3v1q-2 12 -2 22q0 26 12 55v4q0 6 -5 17q-7 24 -7 58q0 53 10 87
q2 6 6 10q6 10 6 20q0 7 -6 25q-5 17 -5 33v3q0 17 7 41q7 33 7 67q4 37 8 66q17 85 17 88q23 125 23 152q0 4 -4 6q-3 1 -4 1q-4 0 -9 -6q-11 -30 -20 -67q-5 -19 -6 -43q0 -13 -19 -127q-13 -61 -22 -142q-4 -43 -10 -76q-14 -81 -14 -148q0 -23 2 -49q0 -51 -1 -62
q0 -55 4 -105l-2 -1q-17 7 -45 27q-21 18 -29 29q-8 12 -16 35q-25 77 -25 217v16q0 123 18 284q16 109 29 171l11 54h-2q50 254 105 489q31 131 60 247q-158 -40 -319 -98q-100 -36 -117 -36q-37 0 -63 31q-11 18 -11 22q-5 13 -5 23q0 7 -9 30q-10 20 -27 43q-1 0 -1 5
q0 22 109 58q80 26 142 47q30 11 80 31q101 33 242 66v0q0 15 -3 59q44 18 103 33q41 10 72 10zM547 1527v0q25 4 25 10q-2 8 -7 8q-6 0 -18 -18zM195 1395q10 -4 21 -4q19 0 48 12q86 26 160 60q55 26 117 62v0h-3q-39 0 -77 -21q-16 -7 -51 -18q-105 -36 -196 -74
q-3 0 -19 -17zM167 1388q0 -2 5 -2q7 0 18 7v1v1q-11 2 -14 2q-8 0 -9 -8v-1zM206 1076h3q17 0 100 -28q20 -6 30 -6q1 0 7 1q23 0 30 -21q2 -9 2 -15v-5q0 -14 -8 -52q0 -13 -9 -86q-13 -91 -18 -132l-5 -10q-9 5 -9 13q3 9 15 82q1 7 1 16v0v0q-16 -70 -16 -80
q-2 -14 -2 -31v0q0 -6 1 -28q0 -25 -16 -74q-8 -26 -15 -68q-31 -155 -31 -193l-3 -109q0 -62 14 -75q6 -8 6 -14q0 -16 -26 -19h-5q-11 0 -27 4q-17 47 -17 93v24q0 24 -10 47v4v3q0 7 8 18q20 36 20 74q0 19 -6 41q-3 19 -3 43v14q0 12 -9 16q-3 1 -4 1q-10 0 -13 -15
l-15 -88q-2 -18 -3 -63q-7 -84 -7 -91q-1 0 -1 -6q0 -68 26 -96q9 -11 9 -12h-1q-20 5 -76 14q-21 5 -36 12q-24 11 -32 32q-8 18 -8 86v23q0 68 6 164q10 72 20 115q10 42 10 78q0 23 -3 47q13 71 15 74q11 18 21 59q6 27 15 90l11 65q0 11 19 38q21 26 45 26zM293 859v-4
q0 -26 12 -26q5 0 10 9q3 8 5 16q4 22 10 27q10 11 10 17q0 5 -7 13v2q6 29 6 43q0 18 5 38v5q-1 12 -8 12q-9 0 -15 -21q-11 -29 -11 -53q-2 -19 -6 -32q-11 -26 -11 -39v-7zM726 1005q-13 -25 -13 -44v-4v-5v-3v0q16 32 16 49q0 5 -3 7zM711 944q-24 -40 -24 -80v-12v-3v0
q12 17 18 37q7 22 7 51v7h-1zM674 808q-9 -18 -9 -34v-2q0 -12 1 -12q10 17 10 34q0 5 -1 14h-1zM657 730q-17 -32 -17 -62q1 -5 1 -8v0q16 33 16 62v8z" />
    <glyph glyph-name="ft" unicode="ft" horiz-adv-x="1367" 
d="M1219 1772h46q269 0 502 -23q107 -13 168 -27q41 -11 59 -22l12 -10q3 -2 6 -5v-6q0 -11 7 -21q10 -16 18 -36l15 -45q-2 -10 -14 -20q-11 -9 -22 -12q0 -1 -4 -2q-24 1 -30 1q-35 0 -58 -7q-84 6 -237 6q-140 0 -343 -5q-28 -148 -52 -267q-50 -232 -96 -411
q-21 -87 -46 -221h-2q-10 -51 -19 -106q-22 -130 -22 -143q-3 -27 -12 -86q-23 -174 -23 -234q0 -54 11 -235v-25v-7q0 -10 -1 -10h-16q-6 0 -7 3q-5 6 -14 9v1v1q0 10 13 28q5 9 5 15q0 10 -22 22v1h1q-1 0 -2 23v5q0 24 11 53v3q0 6 -6 20q-6 24 -6 51v10q0 40 8 76
q3 11 8 16q6 10 6 20v1q0 6 -5 20q-6 19 -6 38q0 18 8 48q6 31 6 60q3 36 8 63q5 28 14 71q26 146 26 171v4q-1 6 -8 6q-10 -3 -10 -9q-10 -25 -19 -64q-5 -23 -5 -39q-9 -68 -22 -140q-12 -61 -21 -139q-3 -37 -11 -82q-12 -75 -12 -130v-12q0 -23 2 -44v-59v-8
q0 -52 3 -99v0q-1 -1 -2 -1q-14 6 -30 16q-42 29 -53 58q-32 71 -32 242q0 135 19 299q15 102 36 205q3 9 3 13h-2q35 179 88 417q54 243 89 426q5 24 9 49v0h-2q-304 -12 -447 -25q-73 -7 -217 -25v0v0h1l16 1v-1q-6 0 -6 -1q-7 -44 -19 -100q-33 -147 -76 -307v0
q239 43 323 59q27 7 45 7q35 0 91 -24q31 -11 35 -16q28 -24 28 -75q0 -18 -3 -21q-11 -11 -33 -22q-37 -19 -82 -33q-15 -5 -45 -9q-26 -7 -44 -14q0 -1 -33 -7q-124 -23 -220 -42l-16 8q0 1 -1 1h-1q-4 0 -13 -11q-5 -5 -10 -5q-2 0 -9 4h-5q-6 0 -30 -10q-12 -4 -21 -4
h-1q-19 0 -54 -38q-7 -3 -12 -9q-5 -7 -12 -13q-4 0 -9 -6q-1 -2 -3 -22q0 -12 -24 -126q-9 -49 -11 -64q-3 -13 -9 -26q-14 -20 -14 -24v-1q0 -3 7 -3q2 -2 2 -4v-1q0 -2 -14 -73q-6 -35 -23 -101q-5 -19 -9 -62q-3 -36 -3 -59v-1q0 -13 1 -23q0 -17 -1 -23q0 -24 11 -30h1
q1 0 4 6q-3 9 -3 20t6 56q1 5 1 13v1q-1 22 -1 24v8q0 21 7 44q0 11 3 18l2 7v1v0v0q3 33 8 61q12 62 29 113q10 42 10 71q3 16 8 33q2 12 5 42q2 11 17 63h1q0 -2 3 -5q5 0 14 30q7 17 11 17q0 1 6 1h1q1 0 2 -1q-46 -139 -89 -372q-16 -94 -16 -117q-4 -45 -4 -139
q0 -34 1 -141q0 -45 -2 -45q-2 -1 -6 -1q-21 2 -21 4q0 10 -3 26v0q0 -2 -7 -21l-1 -5l-19 -1q-36 0 -47 16q-1 0 -18 20q-2 3 -20 22q-17 15 -28 57q-21 83 -21 207v3q0 114 19 229q15 97 35 165q12 44 20 74q-9 4 -19 21q-13 19 -23 47q-8 26 -17 72q-7 23 -7 49v6
q1 42 5 42q9 10 33 15q14 2 53 5q17 2 37 9q0 -1 1 -1q-1 -4 -2 -11q1 -3 6 -3h2q4 3 7 9q4 8 11 29q3 7 33 106q6 20 24 34q6 6 6 13q-2 11 -2 26q0 22 10 46q1 5 1 9v2v5q6 21 11 67q5 54 5 83q-22 -6 -37 -6q-72 0 -97 114q-1 4 -1 8q21 10 39 24q4 4 22 10q16 6 24 10v0
h-3h-2q-1 0 -1 1q3 1 3 5q0 3 -10 4q-21 0 -47 -14v0h1v-1h-2v0v1v0q-23 -5 -34 -10q-1 0 -8 -3q-4 8 -4 15q0 63 237 110q104 22 308 43q297 27 586 27zM720 1724q-5 0 -24 1q-22 0 -53 -11q-3 -1 -7 -1h-13q-62 0 -125 -16q-7 -4 -7 -8v0q1 -7 6 -7h2q61 5 106 13
q46 9 254 21q181 9 368 9h57q275 0 526 -19q71 -3 74 -4v1q-12 13 -19 13q-6 2 -64 9q-159 23 -485 23q-298 0 -530 -17q-52 -6 -66 -7zM285 1644v0h2v-1q-3 -3 -32 -12q-32 -10 -32 -16t8 -7h5q8 0 17 4v0h-2h-7l-1 1q5 4 43 15q28 7 41 7q4 1 4 3v2q0 7 -14 9q-2 0 -32 -5
zM465 1481v0h2v0h-2zM463 1481v-1v0v1zM444 1470q-12 -34 -19 -65q-5 -26 -11 -39q-28 -112 -36 -141q-9 -29 -21 -88q-9 -38 -9 -49v-2q0 -4 4 -4h3q2 0 6 10q9 23 9 31q4 22 11 50q4 17 7 41q0 2 9 29q5 24 15 65q15 72 33 128q2 6 2 15v0q0 8 -2 19h-1zM545 1075
q0 -4 6 -4q4 0 4 4v2q-1 3 -4 3h-1q-5 0 -5 -5zM503 1064v-2q0 -4 5 -4q7 1 7 5q-2 6 -6 6q-6 -1 -6 -5zM458 1049q0 -4 3 -4h3q6 0 7 9v1q-2 4 -4 4q-9 0 -9 -10zM379 1023v-1q0 -3 7 -4q0 -1 1 -1q9 0 24 7q8 4 19 15l2 7q-2 7 -7 7h-1q-27 -7 -41 -24q-4 -3 -4 -6z
M1196 1005q-13 -26 -13 -44v-12v0q16 32 16 47v6q-2 3 -3 3zM1157 861v-4v-8v0q25 37 25 84v11q-25 -39 -25 -83zM1144 808q-9 -18 -9 -35q0 -8 1 -13v0q10 17 10 33v2q0 5 -2 13zM1111 670v-10q16 30 16 68v2q-5 -7 -11 -24q-5 -19 -5 -36zM182 349v-1h1v1h-1zM162 145v-10
q0 -2 2 -10v0q1 5 1 8v3q0 4 -2 11q-1 -1 -1 -2zM164 118q-10 -27 -10 -55q0 -20 5 -46h1q9 29 9 57q0 20 -5 44z" />
    <glyph glyph-name="ss" unicode="ss" horiz-adv-x="1251" 
d="M660 1459q22 0 45 -5q34 -9 51 -32q15 -18 15 -37q0 -17 -13 -38q-8 -8 -15 -13q-31 -22 -76 -46q-15 -8 -32 -17q-73 -46 -123 -80q-28 -20 -41 -29q-37 -28 -81 -66q-27 -23 -79 -73l-7 -7h-1q-11 0 -11 -3q-1 0 -1 -3q1 -4 1 -6q-7 -7 -14 -18q-33 -48 -33 -89v0
q0 -52 58 -84q2 0 15 -8q5 -5 14 -10q48 -31 145 -113q14 -11 23 -19q12 -20 32 -44q18 -21 24 -29q11 -15 24 -31q13 -18 28 -45q3 -5 4 -7v1l-28 62l-1 2v0q76 -108 76 -210v-2v-15h-1q-4 10 -5 11q0 -5 -8 -12q-5 -6 -6 -12q0 -5 -6 -29q-1 -4 -1 -23q-4 -30 -5 -36
q-6 -16 -6 -31q0 -20 -7 -28q-9 -11 -11 -15q-5 -10 -32 -42q1 -1 3 -4q-29 -27 -48 -42q-38 -30 -74 -52q-32 -21 -53 -30q-4 -2 -25 -6q-11 -2 -18 -2h-1q-1 0 -4 9q0 2 -1 3q-8 -5 -16 -7l-3 -4q8 -2 18 -2v0q-5 -1 -32 -16q-14 -8 -25 -11l-30 -9q-52 -14 -84 -14h-2
q-13 0 -24 2q-19 -2 -32 -2h-2q-26 0 -46 12q-46 27 -74 109q-9 24 -16 64q-5 30 -5 40v0q33 -22 81 -22q72 0 168 47q35 17 75 45q21 14 48 39q30 26 59 53q27 29 36 42q11 17 19 33q9 21 10 33q1 8 1 18q0 15 -2 15q-14 24 -22 37q-3 5 -17 19q-20 17 -47 33
q-28 18 -107 65q-57 33 -105 68q-22 16 -49 42q-81 77 -81 159q0 19 5 42v1q0 69 9 99q13 48 62 109q15 18 36 39q29 27 55 47q52 41 116 83q78 50 157 90q40 20 81 36q18 8 39 14q24 7 53 7h3zM1158 1458h3q10 0 63 -5q13 0 27 -7q33 -20 33 -86q0 -27 -6 -62
q-3 -10 -13 -33q-21 -48 -39 -99q-26 -80 -52 -180q-3 -23 -4 -32q-4 -18 -13 -26q-11 -10 -23 -10h-1q-5 0 -10 1q-3 -1 -4 -1l-1 1q21 117 26 142v1h-1q-14 -42 -30 -114q-6 -25 -6 -27h-1q-28 0 -40 16q-4 5 -13 20q-3 4 -9 10q-9 15 -9 67v4q0 64 12 170
q-77 -51 -132 -92q-50 -36 -124 -100q-31 -27 -78 -70v0h-6q-6 0 -7 -3v-1q1 -6 1 -8q-14 -13 -65 -62q29 -29 39 -35q17 -15 29 -21q26 -15 58 -37q33 -24 74 -57q60 -50 71 -59q11 -20 31 -44q19 -21 26 -32q10 -13 22 -27q12 -16 31 -50l1 -1v0q-3 7 -27 60q-1 2 -1 3
q16 -23 28 -46l8 -14q6 -5 8 -11q5 -11 11 -32q6 -15 10 -31v0h-2l1 -3h1l3 -10q8 -32 8 -64q-1 -12 -1 -16v0q-3 6 -5 9h-1v0q0 -5 -7 -13q-6 -8 -7 -17q0 -5 -6 -32l-1 -22q-3 -27 -4 -35q-6 -19 -6 -29q0 -22 -5 -29q-1 -4 -7 -12q-3 -5 -10 -18q-11 -21 -29 -45v-1
q1 -1 3 -2v0q-20 -26 -47 -56q-16 -19 -50 -52q-43 -42 -59 -54q-20 -17 -28 -21q-19 -11 -35 -16q-2 3 -4 10v0q-10 -8 -17 -11l-3 -5q4 0 18 4q-7 -5 -32 -26q-19 -16 -24 -19q-15 -9 -21 -12q-2 -2 -24 -14q-29 -16 -54 -26q-23 -9 -28 -9q-5 -1 -14 -2q-38 -17 -58 -17
h-2q-24 0 -48 18q-12 11 -19 20q-10 14 -15 24q-12 22 -22 58q-4 17 -8 44q-3 17 -3 23h1q15 -5 31 -5h4q43 0 107 33q31 15 69 42q29 20 66 53q17 14 37 34q30 30 37 39q10 13 28 37q86 117 86 196q0 56 -40 104q-7 8 -17 18q-26 26 -41 37q-29 24 -73 57q-40 30 -76 60
q-21 17 -52 48q-25 25 -29 32t-9 17q-7 17 -7 22q-1 7 -1 11q-4 2 -25 23q-14 16 -19 27q-11 20 -11 48q2 53 4 63q4 31 13 54q6 15 15 29q11 19 26 39q11 14 37 41q19 19 32 29q27 21 60 43q56 39 120 77q107 63 194 103q31 14 65 25q25 8 52 8v0q17 0 37 -3q3 17 7 26
q8 20 22 27q11 4 25 4zM472 1364v0q0 -2 4 -5l3 -1q53 23 56 31l-5 4q-34 -9 -58 -29zM448 1354v0q3 0 7 3v0q0 2 -2 2v0q-3 0 -5 -5zM139 1089v0q9 1 18 7q8 8 12 14q10 16 12 18q17 19 36 39q31 31 49 47q38 34 62 51q20 15 45 31q22 14 49 36q15 12 22 19h-2
q-14 0 -27 -11q-55 -33 -108 -73q-24 -18 -46 -37q-7 -7 -22 -23q-7 -6 -26 -23q-22 -21 -28 -29q-15 -17 -23 -30q-14 -19 -23 -36zM883 1305q3 -6 5 -6h2q47 20 56 31l1 2l-5 4q-14 -4 -29 -11q-14 -7 -29 -18q-1 -1 -1 -2zM858 1295h1q2 0 7 3q0 3 -2 3h-1q-3 0 -5 -6z
M542 1042h1q11 0 22 8q7 8 12 17q6 8 10 12q48 47 67 62q37 33 70 56q29 21 50 34q19 10 56 39q12 10 25 22h-3h-2q-12 0 -25 -10q-52 -31 -109 -71q-29 -21 -57 -44q-19 -20 -26 -24q-14 -10 -34 -29q-24 -25 -31 -35q-14 -17 -25 -37h-1zM1131 939q13 1 15 1l4 12l-2 2
q-3 0 -9 -8q-3 -3 -8 -7zM388 688q8 -7 19 -14q19 -11 32 -13q-2 4 -8 10q-10 9 -21 13q-14 4 -22 4zM795 688q24 -21 46 -26q1 -1 5 -1v0q-3 5 -13 13q-10 9 -28 12q-8 2 -10 2zM440 660v0h1v0h-1zM847 660v0h1v0h-1zM442 659v0q1 -7 3 -10q14 -12 27 -25q29 -30 43 -48
q25 -32 44 -66q7 -14 13 -23q8 -7 11 -7l6 -2q-1 2 -2 10q-14 29 -37 63q-15 22 -41 52q-25 27 -36 36q-12 12 -27 18zM848 659q2 -8 4 -10q9 -8 37 -35q29 -31 42 -51q24 -33 42 -67q8 -14 16 -16q5 -2 6 -2q-1 4 -2 10q-10 22 -26 48q-15 23 -34 47q-13 16 -36 39
q-28 27 -31 28q-6 4 -17 9h-1zM448 84v-5v0q6 -6 12 -6q32 16 64 38q59 42 82 96q-9 8 -10 8h-1q-16 -18 -48 -51q-23 -22 -37 -38q-15 -12 -43 -29q-12 -7 -19 -13zM854 21v-3q0 -3 2 -3q3 -3 7 -3h1q2 0 5 3q23 18 56 50q29 30 38 41q14 19 27 39q13 23 22 45q-7 5 -10 5
v0q-26 -36 -61 -80l-26 -35q-11 -13 -30 -31q-14 -11 -31 -28z" />
    <glyph glyph-name=".notdef" horiz-adv-x="1024" 
d="M100 0v1434h824v-1434h-824zM150 50q353 159 724 0v1334q-384 -118 -724 0v-1334zM419 334l57 58q11 10 20 10q10 0 22 -11l56 -60q9 -11 9 -20q0 -11 -10 -22l-56 -62q-14 -14 -21 -14q-11 0 -20 10l-61 71q-7 9 -7 18q0 10 11 22zM413 1191q53 30 112 30
q92 0 148 -47.5t56 -127.5q0 -49 -23 -98.5t-87 -129.5q-63 -80 -99 -132t-36 -99q0 -38 24 -133h-32q-35 97 -35 148q0 76 81.5 218t81.5 217q0 57 -33 90t-91 33q-8 0 -16 -1l32 -51q7 -12 5 -21q-2 -11 -14 -20l-66 -50q-17 -11 -24 -10q-10 2 -17 14l-47 81q-5 10 -3 19
q1 10 28.5 32.5t54.5 37.5z" />
    <glyph glyph-name="uni0000" horiz-adv-x="0" 
 />
    <glyph glyph-name="uni0000" horiz-adv-x="0" 
 />
    <glyph glyph-name="nonmarkingreturn" horiz-adv-x="508" 
 />
    <glyph glyph-name="space" unicode=" " horiz-adv-x="596" 
 />
    <glyph glyph-name="space" unicode="&#xa0;" horiz-adv-x="596" 
 />
    <glyph glyph-name="exclam" unicode="!" 
 />
    <glyph glyph-name="quotedbl" unicode="&#x22;" 
 />
    <glyph glyph-name="numbersign" unicode="#" 
 />
    <glyph glyph-name="dollar" unicode="$" 
 />
    <glyph glyph-name="percent" unicode="%" 
 />
    <glyph glyph-name="ampersand" unicode="&#x26;" 
 />
    <glyph glyph-name="quotesingle" unicode="'" 
 />
    <glyph glyph-name="parenleft" unicode="(" 
 />
    <glyph glyph-name="parenright" unicode=")" 
 />
    <glyph glyph-name="asterisk" unicode="*" 
 />
    <glyph glyph-name="plus" unicode="+" 
 />
    <glyph glyph-name="comma" unicode="," 
 />
    <glyph glyph-name="hyphen" unicode="-" 
 />
    <glyph glyph-name="hyphen" unicode="&#xad;" 
 />
    <glyph glyph-name="period" unicode="." 
 />
    <glyph glyph-name="slash" unicode="/" 
 />
    <glyph glyph-name="zero" unicode="0" 
 />
    <glyph glyph-name="one" unicode="1" 
 />
    <glyph glyph-name="two" unicode="2" 
 />
    <glyph glyph-name="three" unicode="3" 
 />
    <glyph glyph-name="four" unicode="4" 
 />
    <glyph glyph-name="five" unicode="5" 
 />
    <glyph glyph-name="six" unicode="6" 
 />
    <glyph glyph-name="seven" unicode="7" 
 />
    <glyph glyph-name="eight" unicode="8" 
 />
    <glyph glyph-name="nine" unicode="9" 
 />
    <glyph glyph-name="colon" unicode=":" 
 />
    <glyph glyph-name="semicolon" unicode=";" 
 />
    <glyph glyph-name="semicolon" unicode="&#x37e;" 
 />
    <glyph glyph-name="less" unicode="&#x3c;" 
 />
    <glyph glyph-name="equal" unicode="=" 
 />
    <glyph glyph-name="greater" unicode="&#x3e;" 
 />
    <glyph glyph-name="question" unicode="?" 
 />
    <glyph glyph-name="at" unicode="@" 
 />
    <glyph glyph-name="A" unicode="A" horiz-adv-x="893" 
d="M592 1245q23 0 71 -48h2q27 0 64 -44q16 -14 34 -20q23 -10 23 -19q0 -2 -6 -23q-7 -36 -17 -158v-1q0 -70 59 -621q10 -89 25 -232q10 -70 10 -98q0 -44 -21 -44q-49 12 -69 25q-16 11 -59 42q-16 7 -20 18q-7 12 -20 46q-19 62 -19 114q0 26 7 51l1 2q0 3 -6 20v2
q2 15 3 28q4 8 4 23q0 10 -9 26q-3 6 -4 15q4 8 4 12q-10 23 -17 49q-3 3 -10 3h-5q-29 0 -183 -50q-105 -33 -119 -33q-18 -5 -42 -5l-5 1q-86 -162 -126 -253q-29 -66 -46 -116q-17 -48 -17 -90v-5q0 -16 3 -60q0 -6 -5 -6q-45 10 -90 45q-20 15 -43 30q-13 22 -13 51v6
q0 56 50 174q12 32 43 119q35 90 69 168q-40 37 -40 76q0 35 28 81v0q11 -10 16 -29q3 -8 16 -19q16 -11 25 -11q103 220 218 409q83 139 172 294q39 55 64 55zM447 773q49 66 85 141q11 23 22 51q-29 -30 -45 -57q-12 -20 -29 -55l-20 -32q-13 -25 -13 -48zM556 862
q-42 -69 -49 -87q-58 -118 -145 -275v-1v0q32 8 58 19q60 29 168 73q-24 178 -32 269v2zM723 854q-4 -24 -4 -44v-6q0 -39 13 -57l6 -11h1q4 21 4 39q0 38 -20 79zM734 680v-2q0 -6 9 -36q5 -26 5 -41q0 -8 -1 -37q0 -30 13 -118l13 -146q16 -139 22 -152q10 -30 26 -51h1
q-18 79 -34 210q-8 58 -15 167q0 49 -16 207q-7 15 -17 15q-6 -7 -6 -16zM265 425h1q14 9 14 26l-1 3q-14 -14 -14 -29zM264 423q-1 -2 -1 -3l2 2zM164 229v-5h1q41 63 68 120q14 31 28 73q-40 -44 -60 -97q-14 -27 -28 -50q-9 -21 -9 -41zM163 222v-1h1v1h-1zM141 186
q-37 -59 -37 -90v-7q0 -6 1 -17q36 46 36 105v9zM64 -16q1 -16 2 -16q19 19 19 42q0 3 -2 17h-1q-18 -18 -18 -43z" />
    <glyph glyph-name="B" unicode="B" horiz-adv-x="962" 
d="M516 1427q79 0 234 -62q27 -12 65 -41q44 -39 63 -64q6 -21 10 -61q9 -11 9 -21h-1q-12 17 -17 17q-2 -1 -3 -2q0 -2 1 -3q-1 -4 -1 -7v-2q3 -35 3 -46v-5q0 -45 -15 -102q-16 -47 -31 -67q-15 -23 -18 -45q-1 0 -1 -9q32 34 37 51q4 10 21 42q8 18 15 48q5 6 9 27
q6 45 12 72q2 2 2 8h1q20 -21 20 -60q0 -40 -17 -97q-32 -87 -136 -242q-36 -50 -70 -88q-16 -17 -19 -17q-3 -1 -3 -2v-1q3 -4 5 -15q15 -10 17 -12q4 -4 17 -22q28 -27 28 -31q2 -17 5 -17q16 -22 60 -91q15 -17 17 -28q5 -22 10 -30q9 -12 27 -18q6 -28 6 -53v-11
q0 -95 -59 -207q-22 -40 -60 -88q-12 -15 -57 -59l-36 -31q-76 -59 -140 -97q-94 -56 -179 -88q-27 -12 -74 -23q-40 -9 -50 -9q-11 14 -19 32l-2 6q-7 -4 -22 -19q-8 -6 -22 -23q-59 0 -107 29q-30 21 -42 46q-9 17 -19 55q15 39 19 43q6 6 9 12v4l-1 1l1 1q10 -6 39 -13
q18 -3 38 -5q42 0 154 44q114 49 204 105q34 22 68 50q38 40 59 70q32 45 47 76q40 78 40 135v10q0 65 -55 111q-17 12 -32 20q1 2 1 8q-24 12 -35 12q-7 0 -20 -4q-1 0 -4 12h3q3 2 3 5v2q0 4 -3 5q-4 0 -5 -6v-3v-1l-4 1h-9q-5 0 -13 -1q-9 3 -11 3q-9 -5 -24 -8
q-5 0 -72 -35l-12 -4l-7 1q-7 -8 -45 -18q-4 -2 -16 -5q0 1 2 4h-1q-9 -3 -27 -11q-8 0 -8 -4q-85 -273 -85 -346q0 -12 8 -42q4 -19 4 -34q0 -25 -7 -25q-18 -8 -19 -8v0q-30 30 -44 50q-75 102 -75 166q0 94 37 313q10 51 21 89q29 33 29 41v1q0 7 -14 16q2 8 50 194
q52 200 52 206q14 93 27 122q2 2 10 19q29 47 100 127q13 20 23 32l9 7h1v-4q0 -1 -1 -3v0v0q16 18 22 22q13 9 25 11q43 12 70 12zM391 929l4 4h1v-1l2 -19q0 -3 -5 -25q0 -4 -4 -16v-2q0 -4 3 -9q-6 -28 -11 -34q-11 -15 -11 -17q0 -7 -3 -26q0 -43 -9 -53q0 -4 -21 -27h1
q91 19 141 39q35 13 63 35q31 29 48 50q41 53 84 127q45 77 62 103q8 12 18 20q1 9 1 18v9q0 54 -45 109q-37 37 -57 50q-21 16 -42 29h-1q-23 0 -47 10h-4q-22 0 -51 -22q0 -7 -4 -9q-3 -3 -11 -26q-2 -5 -14 -16q-18 -21 -29 -48q-14 -29 -14 -40q0 -22 -45 -213z
M393 1100l2 -18q18 17 18 40q-4 4 -6 4q-11 0 -14 -21v-5zM382 1020q-17 -22 -21 -34q-18 -42 -18 -75v-11h1q38 58 38 120v0zM397 937v0q1 0 1 -1q-1 -2 -2 -2v0v2q0 1 1 1zM741 782v-1q-1 -1 -12 -9q-9 -11 -11 -18q2 -7 6 -7q8 0 14 13q3 5 8 18q10 4 25 27q38 56 41 67
q11 24 16 33v0q-20 -11 -32 -37q-12 -19 -28 -39q-22 -19 -25 -33q-2 -7 -2 -14zM322 833q-2 -8 -10 -25q-5 -17 -5 -35v-5q0 -7 1 -21h1q17 28 17 55v6q0 10 -4 25zM142 661q21 -22 27 -40q5 -21 11 -21q3 -2 9 -2h2q6 0 7 23l9 101q-1 22 -8 22q-1 2 -6 2q-11 -8 -16 -24
q0 -18 -10 -38q-12 -13 -25 -23zM687 722v-3q0 -4 4 -4v0q3 2 3 5v2q0 6 -2 6q-5 0 -5 -6zM279 693q0 -8 7 -8q5 0 6 10q0 6 -4 11q-9 0 -9 -13zM655 653v-2q0 -4 5 -4q2 3 2 5v3q-1 4 -2 4h-2q-3 -1 -3 -6zM276 636q-8 -21 -8 -38q0 -7 3 -23v0q10 24 10 48v0q0 8 -5 13z
M250 557q-24 -53 -44 -128q-7 -29 -20 -92l-19 -73q-5 -24 -5 -50v-3q0 -10 1 -27h1q39 114 70 277q8 38 16 95v1zM835 268q-15 -40 -41 -86q-21 -36 -71 -98q-33 -41 -109 -121l-23 -28v0q76 26 168 153q65 96 74 156q2 14 2 23v1zM658 80q-13 -9 -20 -30v0q21 8 26 20
q0 1 1 2q0 8 -7 8zM564 -36q34 17 64 68q5 9 6 13q-47 -31 -70 -81zM506 -88q17 6 39 28l15 19v1h-1q-5 0 -25 -12q-21 -18 -27 -33q-1 -2 -1 -3zM558 -87q0 -9 6 -9q4 1 14 15l2 5q-1 3 -8 3q-9 -3 -14 -12v-2zM203 -243h1q88 0 316 116q11 3 17 13q1 4 2 10v0
q-104 -35 -196 -77q-45 -19 -90 -34q-26 -10 -50 -28z" />
    <glyph glyph-name="C" unicode="C" horiz-adv-x="837" 
d="M815 1427h5q22 0 51 -33q56 -61 56 -70q2 -7 2 -18q0 -32 -11 -58q-3 -5 -10 -13q-43 -62 -89 -177h-1q9 41 20 71q15 40 37 79q4 10 18 22q12 7 12 13v1q0 7 -6 8q-10 0 -30 -25q-31 -38 -50 -74q-20 -39 -36 -94q-12 -39 -30 -135q-16 -61 -21 -88q-2 -13 -2 -19v-13
q0 -28 -8 -58q-1 -8 -2 -28q0 -5 2 -40q5 -5 12 -8q5 -31 21 -51q-4 -21 -4 -31v0v0q13 16 13 21h1q10 -9 27 -13q7 -4 20 -15v-1q-12 -8 -43 -19q-30 -9 -55 -9q-41 0 -75 30q-29 27 -39 43q-57 82 -57 190v10q0 71 34 177q-19 -17 -37 -42q-70 -94 -115 -181
q-88 -157 -164 -358q-68 -187 -68 -294q0 -56 21 -76q16 -17 33 -17q5 0 28 4q15 0 36 10q12 4 41 7q26 6 26 11q30 23 36 23v0h-1q-23 -3 -29 -3v1q174 62 243 105q87 43 110 43q13 0 26 -36q5 -15 5 -23q-14 -11 -56 -47q-45 -36 -71 -47q-10 -5 -22 -18h1q27 0 61 25
q15 10 68 46q11 6 23 17q2 -3 9 -8q2 -3 2 -6q0 -18 -54 -53q-14 -18 -33 -32q-44 -34 -92 -56q-63 -31 -157 -59q-144 -41 -248 -41q-31 0 -59 5q-18 -4 -30 -4q-89 0 -112 168q-5 44 -5 88q0 95 28 192q26 96 66 201q107 279 232 479q41 67 99 142q142 175 251 175h5
q19 0 41 -7q7 13 63 71q1 0 12 10q12 10 25 10zM102 479q0 -5 2 -5q11 6 11 23q10 23 24 67q47 130 107 238q39 73 100 166q32 54 85 121q25 31 73 79q26 27 39 44q12 14 12 21q0 9 -5 9q-7 0 -20 -18q-23 -27 -68 -72q-48 -56 -63 -74q-36 -48 -50 -78q-65 -92 -92 -147
q-40 -73 -60 -110q-33 -65 -60 -141q-21 -59 -26 -82q-4 -21 -9 -39v-2zM745 1054h1q16 23 28 60q7 18 25 81h-4q-11 0 -27 -42q-23 -65 -23 -93v-6zM740 1007v-8q7 7 7 17v2l-1 6v0q-6 -8 -6 -17zM719 920q0 -10 4 -16q13 15 13 30v2q0 6 -2 15h-1q-14 -14 -14 -31z
M689 921v0h1q4 2 4 9h-1q-4 -2 -4 -9zM216 674q24 28 29 53h-1q-18 -12 -26 -38q-2 -11 -2 -15zM205 648v-3q9 9 9 23v1q-9 -10 -9 -21zM187 606q10 12 10 23q-10 -12 -10 -23zM178 589q-6 -12 -6 -19v0v0q4 8 7 19v0h-1zM171 569v-1h1v1h-1zM91 465v-3v-1v0l1 2v2h-1z
M86 451q-4 -7 -7 -22v-1v0q4 8 8 23v0h-1zM76 422q-23 -43 -23 -73v-4h1q9 17 17 42q4 18 6 35v0h-1zM35 309q0 -2 3 -4q5 0 7 9q1 6 1 8q-1 3 -2 3h-1q-5 0 -5 -2q-3 -12 -3 -14zM246 23v-1q10 -5 15 -5l22 8v1h-1q-3 -1 -27 -2z" />
    <glyph glyph-name="D" unicode="D" horiz-adv-x="930" 
d="M400 1369h11q109 0 222 -34q54 -19 98 -42q30 -16 67 -44q18 -12 55 -51q41 -47 62 -92q14 -30 23 -62l1 -2h-1q-5 5 -7 5q-6 -6 -6 -14q5 -38 5 -76v-3q0 -76 -22 -158q-3 -19 -5 -39q15 13 21 28q29 57 29 137v18q0 19 -1 34h1q4 -34 4 -61v-13q0 -161 -112 -395
l-22 -43h-1q-5 5 -7 6q-17 -4 -17 -7q-19 -20 -19 -67v-5q0 -2 -25 -39q-35 -51 -86 -112q-18 -16 -31 -34q-40 -44 -104 -103q-35 -32 -52 -43q-40 -29 -59 -34q-48 -38 -104 -66q-63 -27 -124 -64q-12 -7 -18 -9q-8 0 -72 21q-33 13 -51 21v1l25 18q37 24 137 118
q105 104 144 151q82 92 149 182q90 123 135 205q31 54 59 119q27 63 40 120q3 16 3 19l-2 -2v0q12 15 14 31q9 45 9 75v1v1v0q-3 -11 -12 -29h-1q0 110 -82 177q-28 21 -57 35v1h1q-19 15 -27 15q-57 14 -86 25q-4 1 -11 1h-23q-17 0 -24 6q-11 3 -11 10q-2 4 -3 4h-2
q-6 -1 -34 -24v-1q2 -6 3 -19q0 -17 -3 -17v0q0 -2 1 -3q-7 -37 -10 -37q-21 -32 -26 -62q-40 -139 -40 -154q-8 -35 -8 -67v-3q-27 -105 -31 -114q-33 -77 -49 -126q-6 -21 -6 -32q0 -6 3 -13q-84 -244 -84 -309q0 -10 7 -33q5 -17 5 -32v-4q0 -24 -13 -32q-2 -1 -4 -1v0
q-12 0 -59 53q-60 75 -68 136q-3 24 -3 44q0 89 38 240q2 1 2 2v1l-1 1q20 82 58 201q9 13 14 26q4 15 8 39l-2 -2v1q37 119 63 231q3 13 5 22q-30 18 -48 35q-13 13 -13 32q0 13 7 43q1 6 3 22q-2 0 -2 6q0 11 19 34q0 4 37 24q48 26 95 38q51 12 108 12zM411 1349v-1
q5 -5 16 -5q17 3 20 3q32 0 98 -16q116 -35 183 -73q43 -23 100 -59q5 -3 20 -25q12 -16 20 -23h1q0 10 -51 64q-49 43 -82 53q-6 4 -56 19q-22 8 -41 21q-8 7 -36 15q-47 14 -143 26q-27 3 -42 3q-1 0 -7 -2zM496 1333v0q15 -5 20 -5v0v1q-14 4 -19 4h-1zM532 1325
q0 -1 1 -1l1 1h-2zM599 1300v0q9 -4 16 -6v0v1q-11 5 -16 5zM629 1291q10 -8 19 -8q-10 8 -19 8zM662 1276v0q8 -8 20 -8q-8 8 -20 8zM687 1263q16 -17 45 -24v0q-8 15 -33 22q-9 2 -12 2zM137 811q0 -2 8 -8l1 -4v-2q-25 -85 -42 -147q-39 -120 -39 -130q-12 -42 -24 -126
q-3 -21 -6 -70q0 -25 27 -41q5 4 5 5q-2 16 -8 48q-1 2 -1 13q4 41 5 78q4 23 9 38q5 10 9 38q7 30 18 63q5 20 15 71q17 66 38 119q15 29 25 67q4 18 10 56q10 26 20 63q6 37 30 136q1 7 1 12q0 14 -9 20l-1 -1l-2 1q-9 0 -9 -31q-6 -54 -14 -89q-9 -33 -24 -83l-14 -50
q-6 -17 -20 -33q-7 -7 -8 -13zM901 751q-23 -45 -23 -62q-1 0 -1 -10v-7q27 30 27 62q0 9 -2 17h-1zM73 598v-1h1q1 0 1 1t-1 1zM762 440q18 17 18 29l1 3q-3 3 -5 3q-11 0 -14 -25v-10zM689 334q29 27 38 44q13 21 21 46v0q-15 -10 -32 -33q-23 -33 -27 -57zM637 258
q34 20 43 51q2 5 2 6l-19 -16q-18 -19 -26 -41zM617 240q-72 -71 -108 -98q-68 -54 -163 -117q-32 -22 -126 -83l-21 -15h1q77 20 217 124q36 26 79 63q31 25 80 74q34 39 42 52h-1z" />
    <glyph glyph-name="E" unicode="E" horiz-adv-x="919" 
d="M667 1180h27q95 0 121 -13q28 -10 63 -40q21 -20 26 -32q3 -9 3 -22q0 -20 -16 -43q-34 -11 -47 -11q-25 -1 -51 -8l-203 -56q-50 -10 -87 -10l9 -8v0q-25 -4 -109 -11q-1 -1 -32 -5q-16 -42 -35 -104h1q63 12 117 19q90 10 165 17q25 -3 33 -5q8 -3 8 -9q31 -6 48 -14
q7 -2 10 -12l4 -26q15 -36 15 -59v-12q-12 -10 -67 -33q-55 -21 -76 -21q-181 -27 -308 -63q-48 -14 -72 -23v0q13 -9 13 -10v-1q-34 -26 -35 -34l-15 -29q-18 -34 -21 -57q-2 -7 -3 -7v-2q-3 -18 3 -25l-1 -9q-7 0 -9 -7q-15 -62 -15 -89q-7 -53 -7 -67q0 -35 15 -51
q6 -10 20 -23v0q-11 39 -11 57q0 5 1 35q0 5 -5 21v2q0 3 11 21q8 19 8 37q0 2 -3 32v5q-7 51 32 124q7 13 29 37q3 6 6 17q3 4 8 4h2q17 -2 17 -16q0 -6 -20 -50q-25 -55 -35 -78q-23 -71 -23 -128q0 -63 24 -134q43 2 214 77q148 66 181 92q70 41 115 41q29 0 29 -18
l-4 -32v-1q0 -5 3 -12q-30 -16 -57 -36q-11 -9 -16 -16q24 5 40 19q20 17 28 19q0 -1 -1 -7l5 -27q0 -16 -45 -55q-58 -45 -128 -78q-53 -27 -110 -49v1v7q-12 -7 -40 -15q-26 -5 -48 -5q-10 -1 -43 -14q-10 -8 -31 -14q-12 -3 -60 -11q-34 -7 -70 -17h-3q-45 0 -74 24
q-97 73 -97 230q0 100 44 260q72 264 104 352q34 100 47 152v1l-1 13q0 36 23 67q7 11 44 24q39 16 128 32q153 25 290 25zM379 1102q0 -8 19 -8q83 7 156 15h9q14 -1 19 -1q3 1 3 3q0 9 -16 12q-4 0 -4 1q-1 0 -2 -1q-6 0 -14 1q-83 0 -162 -15q-8 -3 -8 -7zM234 1080v-1
q0 -5 10 -9q2 -2 5 -2q59 10 98 22q1 3 1 4q-3 7 -25 7q-8 0 -29 -6v1q8 5 8 6v0q-1 2 -4 2h-4q-29 0 -57 -16q-3 -4 -3 -8zM441 814q0 -2 5 -2q3 0 3 3v2q-1 2 -4 2q-4 0 -4 -5zM415 810q0 -2 3 -4h2q5 1 5 4q-1 4 -4 4h-2q-4 0 -4 -4zM385 804q1 -4 2 -4h4q4 0 5 7
q-1 3 -4 3h-1q-5 0 -6 -6zM324 780q0 -2 6 -4v-1q14 2 27 11q8 7 8 13q-2 5 -6 5h-1q-12 -1 -32 -19q-2 -3 -2 -5zM281 586q3 0 6 -3q0 -16 -23 -22h-3q-7 1 -7 6v1q0 11 24 17zM639 231q13 3 19 9l3 4h-1q-11 0 -21 -13zM580 206l3 -1h5q22 0 36 21q-3 0 -5 1
q-24 0 -39 -21zM568 198v0v0q5 0 8 6h-1q-4 0 -7 -6z" />
    <glyph glyph-name="F" unicode="F" horiz-adv-x="994" 
d="M1010 1572h16q164 0 281 -65q6 -5 6 -6q0 -18 9 -28q12 -17 30 -77q-4 -15 -21 -26q-8 -4 -17 -7h-31q-34 0 -55 -6q-70 5 -104 5h-19q-51 0 -178 -24q-156 -25 -365 -50q-67 -9 -67 -10q-14 -81 -36 -173q-28 -114 -57 -224v0q257 46 346 64q17 2 38 2h7q69 0 145 -18
q28 -8 41 -25q16 -25 16 -62q0 -22 -5 -22q0 -1 -10 -9q-31 -20 -97 -43q-21 -6 -82 -15l-294 -56q-42 -9 -45 -9q-15 9 -16 9q-4 0 -17 -14q-4 -1 -5 -1h-2q-9 4 -11 4h-2q-6 0 -35 -12q-6 -2 -23 -3q-12 -2 -37 -27q-8 -10 -16 -14q-15 -17 -17 -17q-9 -3 -9 -14
q0 -19 -24 -133l-13 -69q-2 -13 -19 -39l-2 -7q1 -4 8 -4q1 -2 1 -4q-20 -109 -32 -166q-9 -29 -18 -88q-10 -70 -10 -112l1 -23v-23v-1q0 -22 11 -27v0l4 5q-3 12 -3 23q1 14 6 62q1 5 1 10q-2 12 -2 20q0 20 8 49q0 21 12 76q3 19 9 70q14 78 32 125q7 29 10 77
q7 21 12 69q16 57 17 58q2 -4 4 -4q4 2 17 37q3 9 12 9h3v-1q-25 -81 -43 -148q-32 -116 -57 -288q-16 -107 -16 -216v-3q0 -32 1 -174q0 -43 -4 -43h-5q-21 1 -21 3q0 10 -3 25v0q-8 -23 -8 -25h-18q-36 0 -48 17q-23 27 -37 40q-14 14 -25 53q-18 70 -18 187v5
q0 232 64 481q8 33 17 67q-9 4 -20 21q-15 25 -23 53q-21 81 -21 104q-1 3 -1 10q1 44 6 44q12 11 33 14l62 7q22 6 24 6v0v-10v-2q0 -2 6 -2q5 0 12 20q10 25 42 128q5 13 21 27q5 6 5 12q-2 10 -2 23v2q0 22 10 46q1 3 2 19q14 66 14 142v0q-99 -27 -172 -60
q-25 -10 -38 -10h-3q-41 0 -81 63q-24 43 -24 65v4l18 10q37 22 106 46q33 13 44 20q1 1 1 2v3q0 1 -9 3q-20 0 -44 -12q-37 -17 -108 -37q-12 -2 -25 -9q-2 2 -3 10q0 69 425 150q232 46 547 84q58 7 110 7zM1036 1542q-28 0 -58 2l-62 -5h-3q-6 0 -13 1q-24 0 -56 -11
q-3 -1 -7 -1h-13q-55 0 -120 -16q-8 -4 -8 -7q0 -6 10 -7q74 7 115 15q43 7 182 14h21q23 0 103 -6l61 -3q-11 16 -38 16q-67 10 -92 10h-1q-15 0 -21 -2zM147 1389q0 -6 8 -6h5q8 0 48 12q79 21 99 28q13 4 40 7q2 0 4 2v1q0 8 -14 10q-52 -8 -95 -19q-78 -21 -92 -31
q-3 -3 -3 -4zM461 1268q-13 -37 -19 -67q-5 -20 -11 -39q-27 -103 -44 -165q-21 -92 -21 -102q1 -6 6 -6t8 12q9 24 9 36q11 42 15 65q0 18 9 40q17 69 34 143q16 52 16 60v8q0 6 -1 15h-1zM560 884v-1q0 -4 3 -4h3q2 0 3 2v5q-1 2 -4 2h-1q-4 -1 -4 -4zM518 870q1 -4 5 -4
v0q5 0 7 5q-1 6 -6 6q-6 0 -6 -7zM474 858q0 -4 4 -4h3q5 0 6 8q0 3 -4 5q-9 0 -9 -9zM397 831q0 -2 8 -5q19 0 41 20q3 5 3 10q-2 5 -6 5q-14 0 -38 -19q-8 -7 -8 -11zM174 -112l1 -8q2 0 2 6v3q0 4 -2 11q-1 0 -1 -12zM175 -129q-9 -26 -9 -50v-4q0 -19 5 -43q3 5 7 20
q3 16 3 33v4q0 17 -5 40h-1z" />
    <glyph glyph-name="G" unicode="G" horiz-adv-x="1002" 
d="M821 1435q30 0 129 -102q5 -8 5 -24v-6q0 -33 -12 -57q-18 -18 -27 -33q-43 -66 -76 -144h-1q8 36 18 63q14 34 36 72q11 22 33 34q4 3 4 7v1q-1 10 -7 10h-3q-7 0 -21 -23q-33 -46 -58 -96q-69 -140 -69 -240v-5q0 -68 36 -116q-4 -18 -4 -30q12 13 13 19h2q8 -7 26 -14
q6 -2 23 -18q-46 -20 -88 -20q-49 0 -85 30q-124 89 -124 190q3 53 3 75q6 12 11 28q-15 -11 -48 -50q-71 -88 -124 -180q-95 -160 -156 -311q-12 -30 -12 -36q-14 -92 -28 -127q0 -18 -10 -68q-3 -17 -3 -34q0 -82 60 -112q24 -10 53 -10q59 3 59 11q31 19 38 19v1h-1
q-10 -1 -17 -1h-15v1q158 39 239 73q16 9 53 22v0q-35 9 -51 19q-17 16 -19 35q-3 9 -5 75q-2 14 -3 17q0 20 255 52q22 0 55 -32q28 -32 28 -66q0 -14 -5 -16q-18 -28 -31 -63v-5q1 -7 6 -7q10 0 15 11l2 15q4 12 13 28h2q11 -8 11 -14q0 -1 -10 -16q-16 -29 -46 -101
q-10 -21 -35 -114q-36 -133 -57 -227q-13 -85 -22 -105q-5 -9 -9 -12q-16 4 -16 5q6 31 19 104q8 27 19 50q16 47 16 86q22 81 35 135q-2 4 -4 4q-5 0 -9 -18q-31 -98 -40 -122q-6 -14 -14 -25v-2q2 -10 2 -19v0q0 -21 -14 -80q-10 -33 -24 -57v-2q0 -1 6 -14q1 -5 1 -8
q-4 -25 -4 -28v0q-18 7 -65 36q-8 9 -16 23q-11 23 -11 35q0 18 -1 66q0 62 24 175h-1q-49 -25 -134 -49q-158 -39 -278 -39h-19q-57 0 -96 9q-40 33 -73 45q-40 11 -45 20q-13 15 -17 38q-17 58 -25 211q0 43 10 117q39 138 91 257q73 172 177 341q46 77 122 174
q32 38 57 63q55 54 75 66q84 63 151 63h9q25 0 55 -11q18 21 52 51q31 27 39 27zM86 559v-2q0 -2 2 -5q12 6 12 22q9 20 27 73q43 106 96 197q47 83 159 233q31 40 73 82q30 31 61 56q46 45 46 50v5q-1 8 -6 8q-7 0 -16 -12q-33 -33 -67 -62q-84 -83 -87 -90
q-23 -29 -44 -63q-77 -99 -96 -139q-48 -77 -73 -123q-29 -55 -53 -117l-22 -61l-9 -39q-3 -7 -3 -13zM762 1072v-1q9 9 18 27q17 35 39 109l-5 1h-1q-10 -2 -25 -35q-16 -42 -23 -72q-3 -12 -3 -29zM763 1042q-6 -9 -6 -18q0 -1 1 -7q6 7 6 17q0 2 -1 8zM736 942v-3
q0 -10 3 -15q14 13 14 30q0 8 -2 16h-1q-14 -13 -14 -28zM703 944q1 0 1 -1q4 3 4 8v1v0q-5 -3 -5 -8zM205 741q14 13 21 26q10 20 10 25q-19 -9 -27 -34q-2 -6 -4 -17zM194 714q10 8 10 23v0q-10 -9 -10 -23zM176 677q10 11 10 21q-10 -10 -10 -21zM166 661q-7 -13 -7 -19
v0h1q4 9 7 19v0h-1zM75 544q-1 -2 -1 -3q1 0 1 1v2zM69 531q-4 -8 -8 -22v0h1q7 15 8 22v0h-1zM59 504q-24 -41 -24 -70v-5q6 8 15 30q9 29 9 43q1 0 1 1v1h-1zM16 395q0 -3 3 -5q5 0 7 10l1 5q0 5 -3 5q-6 0 -6 -4q-2 -10 -2 -11zM880 227v-3q4 -2 5 -2h4q11 0 16 11v1
q0 5 -4 5q-9 0 -21 -12zM630 93h6h1q24 0 45 13q3 16 3 18q-13 -8 -37 -17q-12 -6 -18 -14z" />
    <glyph glyph-name="H" unicode="H" horiz-adv-x="1071" 
d="M328 1473q19 -2 45 -26q27 -31 43 -47q17 -13 41 -23q17 -10 17 -18q4 -11 4 -30q0 -34 -84 -399q-29 -128 -47 -242v0q208 22 276 31q39 9 67 9h16q25 0 52 -3q9 62 22 113q27 92 40 154q8 52 19 79q26 64 71 86q16 5 26 5h1q2 0 2 1q27 0 56 -23q26 -16 35 -16
q6 -2 25 -4q8 -6 8 -13q2 -10 2 -36q0 -50 -46 -199q-19 -63 -27 -113q-29 -129 -64 -269q-4 -8 -6 -27q-31 -122 -31 -126h-1l10 150v4q0 7 -2 13q18 72 40 147q14 53 38 160q11 40 11 50q0 15 -16 26h-1q-17 -11 -17 -44q0 -57 -27 -124q-12 -33 -26 -106
q-21 -111 -47 -208q-27 -114 -50 -246q-2 -15 -2 -29v-7q0 -34 11 -71h1q3 31 7 57h1q7 -16 7 -30q0 -18 -17 -61q-4 -15 -8 -45q-2 -9 -3 -9q-19 11 -65 11q-44 0 -55 20q-8 10 -17 51q-7 34 -7 52v7q0 23 17 109q23 128 54 323q-113 -22 -117 -22q-122 -8 -185 -18
q-48 -8 -71 -18q-17 -6 -19 -6v1q9 3 21 18q0 3 2 7q0 7 -10 10h-1q-28 -8 -43 -25q-8 -7 -8 -10v-2q0 -4 9 -6q0 -1 1 -1v0q0 -1 -5 -3q-39 -185 -40 -187q-15 -16 -15 -18q-33 -142 -33 -148l-2 -17v-1v0q25 67 26 67v0q-24 -125 -45 -356q-3 -33 -3 -54q0 -7 1 -20
q0 -16 -15 -23q-4 -4 -57 -4q-8 -1 -19 -1q-21 0 -56 32q-33 36 -41 60q-16 34 -16 65q0 37 93 556q-13 21 -22 46q-22 85 -22 108v10q1 45 5 45q13 11 38 15q37 3 43 4q42 229 71 343q39 167 74 346q27 143 62 143zM219 913v-8q0 -10 7 -10h1q6 0 17 27q3 11 3 19v11
q0 11 7 24q12 24 12 49q2 17 12 38q-1 9 -1 12v4q0 12 9 34q6 27 26 139q13 62 34 148q0 1 1 2q0 10 -10 10q-9 0 -16 -45q-16 -93 -39 -178q-27 -104 -27 -123q-3 -17 -11 -38q-10 -30 -19 -87q-6 -25 -6 -28zM980 939v-10q0 -27 13 -27q7 2 11 8q4 8 10 39q3 8 13 18
q6 8 6 12q0 7 -9 15v2q7 31 7 53q0 14 5 41q0 15 -9 17h-1q-12 0 -21 -42q-6 -20 -6 -43q-4 -26 -13 -51q-6 -12 -6 -32zM989 947h2q4 0 7 -6q-3 -6 -8 -6q-6 2 -6 6q0 6 5 6zM265 900v-2q0 -4 2 -6q7 0 7 9v5l-3 3h-2q-4 -4 -4 -9zM138 549v0q0 -2 3 -15q2 -9 2 -18v-5
q0 -28 -7 -82q-6 -30 -16 -56q-8 -19 -8 -21q0 -4 7 -14q4 -8 4 -17q-1 -28 -1 -34q2 -48 6 -48l2 -3q2 0 8 64q7 93 10 117q7 31 16 56q8 25 11 60q1 0 1 15q0 10 -1 36q21 123 26 169l-4 5q-6 0 -8 -12q-26 -118 -32 -149q-5 -20 -15 -39q-4 -4 -4 -9zM736 563v0
q4 -2 10 -2q7 0 14 6h-7h-3q-7 0 -14 -4zM564 543h1q87 0 162 19v1q-21 2 -37 2q-20 0 -62 -6q-12 -2 -34 -3q-19 -5 -30 -13zM731 563v-1h2v1h-2zM502 539q0 2 -4 3h-2q-4 0 -5 -6q-13 -4 -24 -13q8 -1 16 -1h7q33 0 69 19v1h-11h-5q-20 0 -41 -3zM417 511q8 -2 12 -2h5
q16 0 30 13q-8 2 -12 2h-3q-17 0 -32 -13zM388 507v-3q0 -5 6 -5q10 0 10 11q-2 5 -7 5h-1q-8 0 -8 -8zM855 318h1v-13q0 -64 -16 -108q-5 -21 -5 -36v-3q0 -7 2 -19q0 -5 -13 -17q0 -1 -2 -1v0q13 91 33 197zM210 91v-1h1v1h-1z" />
    <glyph glyph-name="I" unicode="I" horiz-adv-x="396" 
d="M154 1194h1q28 -1 28 -5q16 -45 16 -93v-18q0 -24 10 -48q1 -2 1 -4v-1q0 -9 -10 -22q-17 -34 -17 -66v-5q0 -15 7 -45q3 -18 3 -47v-2q0 -13 10 -16q1 0 2 -1q11 0 14 23l13 82l3 70q6 74 6 83q0 64 -27 94l-7 10v0v0q26 -5 80 -14q22 -6 35 -13q22 -13 29 -35
q6 -25 6 -103q0 -68 -4 -158q-11 -74 -24 -136q-34 -193 -48 -299v-10q0 -20 4 -41q-13 -71 -16 -75q-9 -15 -18 -55q-8 -33 -16 -92q-7 -34 -11 -67q-20 -55 -56 -55h-3q-19 0 -103 28q-19 5 -37 5q-11 4 -18 16q-10 18 -10 38q0 6 7 38q0 30 24 212q2 3 4 9q6 0 9 -12
q-15 -84 -15 -96v-1h1q17 75 17 106q0 3 -2 24q0 44 65 355q36 193 36 229q0 24 2 104q0 64 -14 78q-6 7 -6 13q0 14 22 18h7zM32 205v-1q0 -5 7 -12v-5q0 -8 -5 -35q0 -18 -5 -44v-2q0 -13 9 -13q11 0 22 51q0 24 10 62q7 16 7 34v7q0 24 -10 24h-1q-12 0 -18 -39
q-3 -8 -12 -18q-4 -6 -4 -9z" />
    <glyph glyph-name="J" unicode="J" horiz-adv-x="789" 
d="M738 1284q15 0 15 -9v-7q-29 -14 -81 -33q-19 -11 -19 -18q2 -8 10 -8q28 2 40 6q13 5 31 18q14 7 28 7q6 1 11 1q33 -29 41 -41q9 -17 9 -33q0 -29 -32 -47q-16 -12 -27 -15q-73 -273 -133 -602q-33 -183 -63 -424q-9 -53 -21 -90q-28 -82 -91 -136q-76 -63 -161 -63
q-99 0 -186 82q-37 39 -48 60q-29 46 -65 129q-17 45 -17 69q0 25 18 32l2 1q6 0 46 -22q12 -5 19 -5q8 1 12 1q11 0 18 -26q9 -23 26 -48q23 -31 41 -40q45 -27 122 -27q15 9 18 18q2 1 4 1h1q2 0 16 -6h2q7 0 7 9q2 26 4 26q8 5 10 15q1 5 6 17q0 7 13 22q47 203 95 622
q27 230 41 335q-56 -14 -111 -14q-120 0 -226 60q-63 36 -73 72q-3 10 -3 24v19q0 2 -1 6q0 12 46 17q25 2 50 2q64 0 198 -10h20q78 0 253 39q59 14 85 14zM146 1217q5 -7 24 -11h4q6 0 6 4q0 6 -5 9q-3 1 -4 1h-3q-22 -1 -22 -3zM257 1203v-1q31 -11 52 -11v0q17 0 34 8v1
q-31 8 -43 8h-5q-15 0 -38 -5zM349 1199v0q16 -11 27 -11h2q5 0 13 2q-10 11 -25 11q-9 0 -17 -2zM428 -50q2 -9 4 -9q19 0 39 15q12 10 22 42q15 36 28 83q24 76 43 194l16 131q13 74 31 192q9 46 9 81q5 21 21 136q9 52 20 93q13 44 27 81q1 5 1 8q0 8 -8 11h-1
q-11 0 -22 -22q-5 -14 -12 -60q-20 -91 -31 -142q-5 -27 -8 -69q-4 -17 -16 -60q-11 -50 -11 -111q-4 -64 -9 -95q-7 -48 -18 -97q-17 -63 -17 -87q-3 -33 -12 -67q-5 -11 -8 -46q0 -8 -11 -47q-12 -26 -23 -57q-9 -30 -19 -47q-23 -32 -35 -51z" />
    <glyph glyph-name="K" unicode="K" horiz-adv-x="1115" 
d="M1081 1509h3q15 0 24 -27q5 -13 23 -33q7 -12 7 -26q0 -62 -108 -194q-113 -131 -415 -457q-118 -127 -127 -137q40 -73 162 -221q67 -80 171 -188q115 -115 147 -143q62 -58 117 -103q28 -26 28 -41q0 -22 -46 -26h-16q-76 0 -180 37q-43 16 -79 40q-28 21 -125 114
q-148 147 -174 177q-102 108 -124 142q-3 2 -6 16q0 4 -24 36q-5 14 -8 15h-2q-9 -9 -10 -9q-6 0 -12 -8q-12 -12 -17 -12q-7 2 -8 2q-2 0 -12 -12q-7 -2 -17 -18q-2 -4 -8 -20q-3 -2 -16 -3q-18 -6 -30 -22q-25 -27 -36 -78q-4 -16 -5 -27q-6 -14 -6 -17h1l3 1l1 -1
q0 -1 -11 -25q-5 -22 -12 -44q-2 -12 -2 -24v-9q-4 -19 -6 -68q0 -4 -6 -57q-2 -24 -2 -39v-14q0 -10 2 -50v-5q0 -12 -2 -29h-1v2q-12 -18 -12 -19h-1v6q0 14 -8 32v5q0 2 7 5q3 0 3 36q5 54 6 148q4 49 11 89q6 31 10 47l-4 -6v1l15 53q-11 -11 -17 -40q0 -6 -14 -88
q-23 -163 -23 -210v-3q0 -12 3 -24q-3 -31 -3 -43q-8 -11 -8 -27q0 -9 6 -16v-1l-1 -3q16 -21 44 -52h-1q-105 26 -141 51q-50 37 -50 173q0 197 109 631q82 320 101 397q20 89 20 107q23 152 49 286q12 19 43 19q45 0 91 -37q26 -26 34 -46q14 -39 14 -107v-15
q0 -130 -37 -307q-17 -73 -36 -120q-10 -27 -21 -61l47 6q92 100 279 316q112 128 221 242q173 176 228 180zM954 1217q1 -2 2 -2h3q8 0 37 30q25 28 69 86v0q-24 -11 -44 -39q-17 -22 -41 -45q-26 -17 -26 -30zM353 1305v-2q0 -8 2 -31q0 -25 -12 -59q-2 0 -3 -47
q-5 -40 -13 -75q-7 -22 -11 -53q-3 -11 -11 -32v0l1 -4v-9q0 -35 -11 -78q-10 -43 -24 -81q-4 -6 -4 -12v-8q0 -12 -13 -83q0 -1 -1 -5q1 -3 3 -4q5 3 7 10q0 5 27 95q5 19 8 48q12 64 25 96q22 85 22 106q27 148 27 178q1 0 3 37q-2 24 -6 27q-3 5 -7 5h-2q-7 0 -7 -19z
M920 1167h1q21 20 26 30q3 6 5 14q-17 -13 -25 -25q-5 -7 -7 -19zM746 962q86 93 179 197h-1q-21 0 -40 -24q-67 -66 -103 -109q-33 -38 -33 -50q-1 0 -2 -14zM498 710q0 -4 5 -5h2q5 0 41 42q13 17 66 75q39 43 98 112q14 16 26 28h-1q-15 -2 -36 -20q-30 -27 -54 -46
q-25 -25 -27 -31q-16 -26 -53 -66q-32 -33 -55 -64q-12 -18 -12 -25zM238 674q0 -4 5 -4h2q5 3 5 10q1 1 1 16q-6 0 -13 -20v-2zM224 613q-16 -27 -16 -47v-3q0 -7 2 -17q15 24 15 53v14h-1zM196 519v-1q0 -2 1 -7v0q13 6 13 27v3h-1q-13 -10 -13 -22z" />
    <glyph glyph-name="L" unicode="L" horiz-adv-x="946" 
d="M356 1472q79 0 104 -98q12 -46 12 -105v-12q0 -201 -117 -640q-34 -126 -111 -403q-30 -119 -30 -130q54 22 137 45q45 12 137 26q84 16 240 50q80 17 116 17h1q10 0 23 -3h6q33 0 49 -23q3 -8 3 -16q0 -26 -42 -67q-26 -30 -29 -40h-19q-56 0 -86 -16q-1 0 -16 -8v-1
q16 -3 44 -4q30 0 71 7l1 -1q0 -17 -165 -50q-178 -37 -286 -69q-79 -24 -131 -48q-66 -24 -68 -26q0 -2 -12 -6q-87 -37 -101 -37q-11 0 -11 14q0 11 -19 27q-12 5 -45 40q-7 9 -7 22q3 26 7 26v6q0 19 10 35q7 19 7 23q0 2 -3 3h-1q-4 -5 -7 -5h-1q-3 0 -4 25q-1 4 -5 35
q18 9 18 23v2q0 149 53 363q44 183 98 361q57 193 93 338q12 58 22 172q2 32 2 53q0 25 -9 37q-3 7 -22 24q-8 7 -8 10v1q0 7 86 22zM410 1391l1 -2v-1q0 -7 6 -43v-12q0 -14 -6 -45v-4q4 -40 4 -55q0 -28 -8 -95q0 -23 -10 -50q0 -1 1 -4q1 -17 1 -24q0 -26 -11 -75
q-9 -43 -22 -79q-1 -1 -1 -3v-13q0 -7 -8 -76v-10l2 -3h1q4 0 7 23q6 25 21 87q4 26 9 66q7 35 21 83q14 53 14 116q4 73 4 115q0 29 -3 84l-4 21q-5 13 -13 13q-5 0 -6 -14zM166 83v-8q0 -13 4 -27h1q11 15 16 37q3 11 6 39q21 105 46 176q10 34 23 88q28 86 35 113v0
q-20 -18 -28 -51q-7 -26 -33 -91q-25 -68 -52 -184q-15 -53 -15 -61q-3 -25 -3 -31zM240 456q-16 -35 -16 -56v-9v0q17 34 17 46q1 6 1 8q-1 8 -1 11h-1zM644 10h1q28 4 50 15q20 11 32 22q-7 1 -15 1h-4q-35 0 -61 -34z" />
    <glyph glyph-name="M" unicode="M" horiz-adv-x="1206" 
d="M291 1380q35 -3 52 -8q30 -10 70 -31q17 -10 19 -15q15 -14 36 -73q25 -70 52 -204v-1q-1 -31 -1 -39q0 -14 6 -39q4 -58 8 -58q3 6 5 38h1v0q4 -34 10 -60q0 -15 5 -18q4 -3 7 -18q24 -103 45 -199h1q83 138 216 437q52 120 115 266q7 7 15 7h2q13 0 47 -19
q32 -11 65 -40q31 -32 38 -51q14 -29 14 -52q20 -15 20 -135q0 -68 -13 -353q-2 -61 -2 -100q0 -70 7 -117q1 -7 1 -10q0 -35 -5 -91v-3q0 -9 2 -23q-9 -288 -9 -348q-2 -20 -7 -38q-17 -51 -47 -51q-17 0 -29 23q-21 23 -36 30q-21 11 -59 26q-14 6 -22 28q-8 30 -8 54
q-10 160 -10 274q0 67 4 322l1 64v0v0q-52 -94 -64 -123q-22 -47 -62 -126h-1q1 20 1 52v7q0 2 5 18v1l-5 3q0 60 -10 137v0q-10 -30 -10 -57q1 -21 1 -26v-4q0 -12 -5 -75q-1 -3 -1 -13q-13 -26 -25 -59l-12 -23q0 -4 7 -5q4 0 10 12q7 10 21 35h1v0q0 -7 5 -38
q-36 -69 -56 -102q-9 -16 -21 -72q-7 -30 -15 -40q-8 -12 -28 -12q-40 0 -88 30l-24 19q-13 7 -37 29q-18 24 -26 45q-15 36 -51 172l-52 208v0q-9 -51 -23 -106q-95 -377 -141 -558q-24 -119 -45 -147q-7 -8 -14 -8q-24 0 -77 66v2q6 35 6 38q1 5 1 15v24q0 53 28 76l1 4v0
q0 8 -10 25q-1 3 -1 5v0q0 3 9 17q12 28 12 79q3 26 11 56l27 86q17 68 17 87l6 57q7 33 7 35q0 9 -6 9q0 1 -5 1q-8 0 -28 -80q-35 -120 -35 -127q-4 -20 -10 -70q-7 -29 -28 -101q-22 -81 -44 -193q-19 10 -24 22q13 63 87 363l34 133q12 8 12 21v5q-2 16 -3 31q0 7 6 52
v14q0 11 -6 25q24 79 59 292q5 17 12 56q14 38 14 83q0 13 9 52q7 20 24 38q13 9 13 16v0q0 7 -11 33v5q0 4 12 21q12 22 18 56q1 5 3 21q1 1 2 1h7zM919 1231q-38 -61 -96 -198q-28 -61 -55 -119q-8 -26 -8 -38v0q0 -5 8 -5h1q8 0 20 42q16 43 59 140l72 178v0h-1zM751 865
q0 -3 2 -3q4 1 4 7l-2 2q-4 -2 -4 -6zM726 811l-4 -18v0q1 0 14 4v1zM673 388q2 -6 6 -6q7 0 15 17q3 9 6 23q-17 -10 -25 -27q-1 0 -2 -7z" />
    <glyph glyph-name="N" unicode="N" horiz-adv-x="1059" 
d="M903 1458q26 0 72 -22q5 -5 18 -22q1 0 4 -3q-4 -19 -7 -51q-9 -55 -22 -99q-13 -41 -25 -119q-5 -39 -22 -147q-7 -44 -11 -102q-1 -22 -1 -25q3 -30 5 -30q4 -9 10 -9h1q7 0 7 27q-2 31 -2 38v1q0 29 13 68q2 8 3 54q6 53 13 84q8 34 12 67q5 22 12 37v4l-1 2v13
q0 42 12 92q10 48 23 85q5 3 9 3q13 0 18 -25v0q-27 -142 -83 -485q-61 -363 -97 -565q-43 -241 -69 -344q-10 -32 -12 -32q-23 0 -101 22q-23 4 -43 14q-50 25 -50 98q0 18 9 108q1 10 1 28v0q0 64 -29 104q-81 147 -208 388q-61 115 -74 142h-1q-8 -108 -20 -180
q-43 -306 -70 -489q-15 -155 -41 -155h-4q-22 1 -80 40q-27 19 -53 43q-13 12 -13 21v10q0 84 41 454q15 120 29 182q46 232 46 428q0 47 -4 118q0 41 17 63l1 1q27 -2 27 -5q0 -2 19 -17q11 0 33 -11q23 -18 43 -26q26 -11 48 -22h2q9 3 11 3q11 0 26 -47q12 -30 18 -30
q2 -2 15 -10q40 -78 88 -210q17 -47 49 -107q75 -151 113 -228v-6q0 -2 7 -30q0 -6 10 -22l12 -30q16 -12 18 -12h1l108 509l50 223q16 93 28 117q14 26 41 26zM548 736q3 -18 18 -35q12 -12 18 -12h5q7 3 7 10v1q-3 14 -21 34q-15 13 -18 13h-2q-5 0 -6 -10q-1 0 -1 -1z
M592 655v-1q0 -10 9 -10q8 1 8 6q-1 9 -8 9h-1q-8 0 -8 -4zM613 603v-2q2 -8 8 -8q5 4 5 7q0 9 -6 9q-7 -1 -7 -6zM634 554q1 -6 3 -6h3q6 1 6 5v3q-2 4 -5 4h-2q-4 0 -5 -6zM149 254q1 -12 1 -19v-11q0 -24 10 -43v0q12 26 12 46l-1 31l7 87q3 0 11 59q4 21 5 49
q10 49 15 89q-20 -27 -20 -48q0 -10 -13 -70q-18 -70 -18 -90q-3 -19 -9 -80zM750 -14v-1q1 -3 11 -3q8 12 22 68q16 69 30 166q15 49 15 52q3 13 4 26q0 14 -9 14q-11 0 -12 -14q-2 -9 -9 -38l-10 -70q-16 -95 -36 -167q-6 -27 -6 -33z" />
    <glyph glyph-name="O" unicode="O" horiz-adv-x="935" 
d="M523 1247h5q65 0 106 -26q21 -11 43 -28l20 -16q7 -1 28 -12q13 -7 34 -31q29 -36 39 -59q24 -42 48 -127q33 -133 33 -247v-22q0 -123 -38 -209q-28 -65 -74 -137q-28 -43 -67 -90q-17 -22 -60 -64q-55 -50 -86 -67q-93 -59 -182 -59h-23q-77 0 -138 45q-33 9 -57 21
q-79 39 -116 129q-35 86 -35 208v33q0 7 4 7q17 8 18 9l-18 44l-1 1q10 112 23 179q18 91 41 156q28 75 64 132q89 141 245 199q32 13 96 27q24 4 48 4zM231 606q0 -5 5 -48v-11q0 -34 -20 -52q-11 -11 -11 -21q0 -2 6 -36q7 -40 20 -160q8 -59 17 -86q19 -50 51 -50h5
q48 0 144 102q32 41 51 78q44 77 90 205q33 93 61 218q23 117 23 202q0 138 -60 169q-16 8 -32 8h-6q-42 0 -109 -44q-14 -10 -35 -31q-36 -44 -61 -87q-53 -88 -85 -163q-54 -127 -54 -193zM207 1022q22 18 22 24l1 3l-2 10v0q-21 -14 -21 -37zM189 991l1 -4v0q4 3 4 5
l-1 2h-2q-1 0 -2 -3zM65 688q0 -9 2 -26q10 4 14 14q1 4 1 28q13 58 29 105q20 54 44 94q12 18 25 54q5 12 8 26q-11 -3 -15 -10q-23 -41 -41 -73q-39 -78 -43 -106q-21 -54 -22 -78q-2 -13 -2 -28zM811 636v-8q0 -13 -6 -36q-12 -51 -29 -97q-15 -37 -36 -74
q-16 -22 -30 -65l-5 -16h1q11 3 16 11q4 8 27 48q26 48 42 85q10 27 15 50q18 44 19 62q3 15 3 34v7q0 24 -2 24q-15 -6 -15 -25zM36 594v-2q1 -21 3 -22h2q8 0 8 7q3 19 3 34q-1 18 -4 18q-8 -1 -8 -7q-4 -13 -4 -28zM709 497q4 -12 5 -12q1 -1 3 -1q1 3 4 17v2v0
q-11 -5 -12 -6zM703 336q-3 -3 -4 -6l2 -1q3 0 3 3v0q0 3 -1 4zM664 274q0 -4 1 -11q21 15 21 37v0q-22 -17 -22 -25v-1zM613 195v-1q0 -1 7 -2q26 20 34 46q-5 3 -10 3q-31 -34 -31 -46z" />
    <glyph glyph-name="P" unicode="P" horiz-adv-x="902" 
d="M390 1416h4q175 0 335 -64q51 -23 100 -56q24 -18 47 -40q35 -37 47 -59t23 -50q4 -16 4 -18v0q-5 -5 -5 -9q2 -9 2 -14v-1q0 -9 -8 -39q-8 -16 -8 -27v-1q0 -9 10 -31v-8q0 -8 -17 -44q-22 -57 -26 -60q-2 -2 -11 -7q-6 -6 -20 -28q-21 -30 -39 -66q-6 -22 -63 -85v-1
q38 33 58 50v0q-30 -41 -73 -91q-40 -48 -131 -141q-96 -92 -137 -123q-61 -51 -110 -81h-1q3 5 19 34h-1q-25 -22 -42 -22q-11 -5 -31 -16q-4 -2 -9 -2q-3 0 -10 4l-2 1q-5 0 -16 -20q-15 -19 -36 -19q-16 0 -39 -22q-49 -169 -49 -241q0 -23 9 -73q2 -14 2 -25v-3
q0 -30 -17 -44q-3 -5 -15 -5h-6q-38 0 -87 26q-17 9 -40 32q-38 45 -38 106v4q0 148 126 615q86 313 122 452q11 44 23 100q-34 -11 -58 -11q-45 0 -62 45q-3 15 -20 40q-5 11 -5 18v1q0 6 6 8q44 28 89 48q60 24 123 24q24 2 39 6l14 6v0q-15 1 -33 1h-7q-27 0 -57 -8
q-40 -6 -64 -14q-41 -17 -49 -17q-18 -7 -51 -24l-2 -1v2q4 6 16 15q38 25 70 37q82 36 207 36zM266 1264q1 -5 5 -5q3 0 3 4l-2 5h-3q-3 0 -3 -4zM450 1212l1 -7q0 -8 -12 -43q-2 -14 -4 -40q-33 -162 -81 -351q-44 -175 -76 -276h1q36 24 100 75l53 47q25 22 89 88
q54 58 80 93q112 147 112 247q0 118 -162 154q-26 6 -74 11zM916 1143l8 -46h1q2 14 2 23q0 8 -7 16zM45 358v0q5 -5 10 -5q12 10 38 104q45 159 121 485q19 87 26 110q10 23 18 50q4 17 4 21q0 11 -9 12h-3q-9 0 -12 -20q-11 -28 -16 -59q-10 -46 -52 -205
q-96 -370 -120 -470q-5 -19 -5 -23zM920 1077q1 -2 2 -3h1q3 0 3 3q0 2 -2 13h-1q-1 0 -3 -13zM642 628v-1q0 -1 -12 -5q-14 -9 -19 -25q2 -12 9 -12h4q10 0 24 32q0 4 9 6q12 6 25 24q3 2 34 41q36 31 44 46q16 23 35 48q15 23 25 44q0 4 13 25q11 18 25 67q11 27 19 45
q6 12 12 51v2v0q-5 0 -9 1q-4 0 -4 -6q-3 -11 -5 -29q-30 -69 -78 -160q-18 -36 -27 -49q-28 -10 -41 -37q-14 -20 -43 -49q-22 -16 -22 -17q-18 -18 -18 -42zM915 1016q0 -1 -1 -5v-1v0q2 5 2 6v0h-1zM884 922q5 1 13 15q13 29 13 53v10q-4 -3 -11 -34zM838 842v-1l2 -2
l1 1v1q0 1 -1 1h-2zM54 330q-16 -31 -16 -55l-1 -15q1 -1 3 -1q10 33 12 45q2 10 3 25v1h-1z" />
    <glyph glyph-name="Q" unicode="Q" horiz-adv-x="954" 
d="M515 1278h28q77 0 143 -49q65 -16 109 -54q109 -93 109 -329q-1 -14 -1 -31q-5 -3 -22 -11q16 -44 18 -47l1 -1q-11 -119 -24 -186q-20 -104 -46 -174q-27 -69 -58 -120q-20 -34 -54 -75q-17 -19 -36 -38q32 -48 75 -100q26 -31 131 -166q51 -64 99 -115q23 -24 31 -25
q13 -5 30 -5h16q7 0 7 -2v-1q0 -5 -30 -24q-18 -9 -55 -18q-13 -6 -49 -14q-8 -4 -18 -4h-5q-58 0 -192 109q-72 61 -128 129q-52 63 -74 99q-9 12 -19 29q-87 -31 -139 -31h-2q-1 0 -4 1q-3 -1 -5 -1q-67 0 -114 30q-24 12 -62 44q-22 5 -50 29q-25 25 -39 47
q-24 40 -40 81q-22 53 -42 147q-20 108 -20 203v9q0 143 44 234q23 54 61 116q30 50 79 111q23 28 65 69q41 38 72 59q110 75 210 75zM200 340q0 -149 67 -180q16 -6 30 -6h5q47 0 118 48l2 2q-28 51 -109 195q-37 64 -51 110q-2 9 -4 21q-4 12 -4 24v4q0 26 23 36q8 3 18 3
q24 0 68 -22q24 -38 40 -76q28 -52 52 -126q0 -3 17 -24q14 -21 29 -52h1l10 16q-32 82 -56 122q-7 8 -27 46q-23 46 -36 80l1 1q17 -7 28 -7q4 0 14 3h1q11 0 42 -51q29 -48 72 -126h1q43 77 78 169q34 93 34 147q0 8 -5 46v14v1q0 39 24 59q9 9 9 19q0 2 -8 43
q-8 48 -20 166q-9 61 -19 88q-6 17 -16 32q-17 20 -35 20h-6q-51 0 -153 -108q-44 -60 -78 -130q-52 -105 -97 -255q-60 -209 -60 -352zM255 1132q-25 -23 -32 -41q-3 -6 -3 -7q6 -4 10 -4q4 3 19 22q14 19 14 25v2q0 2 -8 3zM186 1018q23 18 23 26v3q0 9 -1 9
q-22 -14 -22 -38zM167 985q0 -1 1 -4q3 2 5 5l-2 2q-4 0 -4 -3zM37 668v-2q1 -26 2 -26q11 5 14 13q2 0 3 35q20 87 43 142q15 34 39 74q11 20 22 51q2 7 6 22v0q-6 0 -16 -10q-6 -12 -28 -49q-23 -44 -41 -83q-13 -31 -20 -60q-11 -29 -16 -46q-8 -30 -8 -61zM154 825
q-1 -4 -4 -18l-1 -2h1q13 6 13 7l-5 12q-2 1 -4 1zM852 692q1 -18 4 -19q8 2 8 4q5 17 5 30v7q0 8 -2 21h-5q-7 0 -7 -7q-3 -23 -3 -36zM709 301q13 4 17 13q0 1 18 32q60 104 70 157q18 45 18 54q6 24 6 53v2q0 14 -1 27q-10 -4 -14 -12q-2 0 -4 -37q-19 -83 -42 -140
q-18 -40 -39 -74q-13 -23 -25 -60q-4 -14 -4 -15zM702 292l2 -2h2q2 1 2 4t-1 3q-2 -1 -5 -5zM666 231q0 -9 2 -9q21 15 21 39q-23 -19 -23 -25v-5zM821 -36q-4 -5 -4 -11q0 -5 13 -27q14 -28 41 -59q3 -3 21 -18q8 -7 44 -45q17 -14 33 -18q-1 2 -48 52q-66 71 -82 98z" />
    <glyph glyph-name="R" unicode="R" horiz-adv-x="1010" 
d="M417 1395h7q173 21 332 -42q51 -22 89 -48q23 -14 56 -44q33 -33 46 -56q28 -46 33 -76v0q-5 -5 -5 -9q2 -9 2 -14v-1q0 -9 -7 -37q-9 -18 -9 -30q0 -9 9 -29q1 -5 1 -9q0 -9 -14 -40q-19 -47 -25 -59q-4 -8 -15 -12q-6 -7 -23 -34q-24 -32 -42 -73q-5 -14 -57 -74v0
q26 23 58 50v0q-41 -57 -132 -157q-54 -58 -122 -122q-18 -17 -19 -17q73 -132 143 -235q31 -43 71 -91l140 -178q41 -50 85 -96q22 -22 40 -22q4 -1 18 -1h13q6 0 6 -2q0 -3 -16 -16q-19 -12 -37 -18q-9 -3 -33 -9q-14 -6 -41 -12q-11 -4 -20 -5q-4 -1 -8 -1
q-61 0 -197 112q-25 21 -72 68q-68 72 -95 112q-52 69 -86 138q-30 60 -68 130l-21 -14v0q0 1 14 27v0q-1 0 -2 2q-22 -17 -37 -17q-10 -4 -29 -15q-8 -3 -11 -3t-10 4l-2 1q-5 0 -17 -21q-15 -18 -35 -18q-16 0 -39 -22q-49 -170 -49 -241q0 -23 9 -72q2 -15 2 -25v-6
q0 -29 -21 -46q-6 -1 -10 -1h-9q-33 0 -80 23q-83 48 -83 142v2q0 150 126 618q89 321 127 459q11 45 16 70h-1q-32 -11 -57 -11q-48 0 -63 50q0 6 -20 38q-4 9 -4 16q0 6 5 8q101 63 176 70q64 3 75 8q5 1 15 6v0q-15 1 -33 1h-7q-28 0 -56 -8q-41 -6 -64 -14
q-40 -16 -45 -16q-21 -6 -47 -21q-8 -5 -11 -5v2q13 14 29 23q29 19 83 39q76 26 180 26zM294 1244q0 -6 5 -6q3 1 3 2v2q0 1 -2 5h-3q-3 0 -3 -3zM478 1191q0 -1 1 -7q0 -8 -9 -35q-4 -9 -6 -41q-13 -62 -54 -232q-45 -187 -90 -344q3 -3 7 -3v0q7 0 20 17v1q0 2 -1 2v0
q36 14 50 25q6 10 22 26q5 5 14 11q10 9 16 11q2 0 43 40q0 3 50 55q19 13 34 13q168 192 168 315q0 111 -220 142q-18 2 -45 4zM946 1143l8 -47h1q2 16 2 22v1q0 9 -7 18zM75 358q0 -3 10 -5q9 6 28 71q52 175 141 560q13 68 26 92q10 15 10 26q0 12 -11 12h-1
q-9 0 -12 -20q-9 -23 -15 -44q-11 -49 -40 -156q-108 -419 -135 -529q-1 -4 -1 -7zM950 1077q0 -3 3 -3v0q3 0 3 4q0 1 -2 12q-2 0 -4 -12v-1zM672 628v-1l-12 -6q-14 -8 -19 -24q3 -12 9 -12h4q9 0 24 32q0 4 8 6q12 5 20 17q8 9 39 47q39 34 46 48q13 19 31 42
q16 24 25 44q7 17 17 32q10 18 26 71q9 22 19 42q10 37 10 50v0q-5 0 -9 1q-4 0 -4 -9q-3 -8 -5 -26q-37 -84 -101 -204q-3 -6 -8 -7q-24 -9 -37 -35q-15 -22 -41 -47q-12 -11 -22 -16q-20 -20 -20 -45zM945 1016q0 -1 -1 -4v0h1q1 3 1 4v0h-1zM944 1011v-1v0v1zM914 922
q6 2 8 8q18 31 18 61v9q-4 -4 -11 -34q0 -1 -15 -44zM868 841l2 -2q1 0 1 1v1q0 1 -1 1zM84 330q-15 -30 -15 -47l-2 -23q2 -1 3 -1l11 39q4 15 4 31v1h-1zM842 43v-2q0 -6 11 -24q15 -30 41 -60q8 -8 26 -23q14 -14 36 -38q22 -20 37 -22h2q-105 110 -117 130
q-22 30 -31 48q-3 0 -5 -9z" />
    <glyph glyph-name="S" unicode="S" horiz-adv-x="749" 
d="M725 1378q29 0 35 -12q7 -7 11 -26q3 -12 6 -73q1 -15 5 -33q0 -15 -84 -62q-2 -1 -21 -12v1q-93 -59 -183 -129q-63 -50 -147 -127q-21 -18 -21 -19h-7v0q-7 0 -7 -5l1 -7q-27 -25 -68 -66v0q40 -39 54 -47q11 -9 49 -31q61 -39 182 -142q11 -21 52 -69q12 -15 34 -43
q15 -23 30 -51h1v1q-27 57 -30 66q80 -113 80 -221q-1 -5 -1 -14v-2v0q-3 7 -6 10q0 -5 -9 -13q-7 -8 -7 -22q-6 -22 -6 -47q-4 -35 -10 -52q-1 -8 -2 -31q-1 -9 -13 -22l-11 -17q-4 -8 -28 -35l3 -4q-35 -33 -63 -55q-43 -32 -74 -51q-48 -28 -59 -28q-21 -6 -35 -6
q-1 1 -4 13q-8 -5 -18 -7l-2 -4q8 -2 18 -2v0v-1q-4 0 -43 -22q-15 -8 -76 -22q-36 -9 -60 -9h-2q-14 0 -26 3q-19 -3 -34 -3h-2q-72 0 -116 101q-9 20 -19 57q-13 55 -13 79v0q36 -23 86 -23q94 0 222 75q33 20 72 53q42 37 78 71q3 4 17 19q32 40 42 70q6 17 6 39
q0 3 -1 13q-1 1 -24 40q-17 19 -37 31q-42 27 -119 71q-69 38 -130 84q-55 45 -73 77q-9 14 -13 42q-33 30 -39 42q-18 25 -18 58v2q0 94 22 133q10 27 48 74q35 40 62 62q76 57 154 104q120 75 229 126q39 18 74 30q21 7 49 10q29 10 39 10zM505 1265v-1q3 -6 6 -6
q22 8 47 23q11 6 13 11v0q-4 4 -4 5q-36 -11 -62 -32zM479 1253v0q7 3 7 5q0 1 -1 1h-1q-3 0 -5 -6zM147 987v0q19 0 35 24q5 11 74 74q60 52 101 80q42 25 69 45q23 16 48 40q-1 1 -2 1q-16 0 -31 -13q-79 -47 -156 -106q-20 -17 -39 -35q-18 -11 -52 -46q-35 -40 -47 -64z
M412 614q32 -25 53 -28v0q-11 18 -35 25q-13 3 -18 3zM468 584q2 -9 4 -11q43 -38 62 -63q33 -40 50 -69q16 -30 24 -40q9 -7 15 -7q-2 14 -8 22q-14 28 -36 59q-17 26 -58 69q-37 36 -46 37zM629 117q-14 -16 -77 -81q-19 -20 -27 -24q-41 -25 -50 -32l-1 -1v-2q0 -7 13 -9
q119 59 153 140q-9 9 -11 9z" />
    <glyph glyph-name="T" unicode="T" horiz-adv-x="672" 
d="M1061 1714h15q153 0 263 -61q28 -18 44 -73q14 -51 14 -77q0 -8 -10 -16q-7 -3 -14 -3q-24 0 -72 29q-27 14 -66 14h-11q-71 0 -258 -44q-87 -20 -176 -34q-37 -6 -127 -14q-17 -4 -23 -10q-7 -9 -10 -27q-10 -88 -19 -114q-17 -64 -37 -122q-26 -86 -26 -116
q-21 -111 -47 -180q-25 -80 -43 -172q-10 -67 -27 -144q-34 -175 -34 -199q-20 -114 -35 -246q-5 -37 -5 -79q0 -43 7 -237v-5q0 -19 -3 -19h-3h-6h-3h-7h-1q-8 10 -16 12v2q0 10 14 29q5 9 5 15q0 9 -22 23h1q-2 13 -2 24q0 27 12 58q0 1 1 3q0 4 -7 28q-4 20 -4 41v0
q0 62 13 99q7 8 10 15q2 7 2 11v2q0 6 -7 27q-3 14 -3 26v8q0 15 8 45q9 35 9 65q5 46 12 83q21 86 41 210q1 9 1 15v2q0 4 -7 5q-9 0 -14 -17q-12 -31 -19 -61q-4 -18 -7 -52q-13 -78 -35 -185q-6 -37 -17 -123q-23 -110 -23 -189q1 -25 2 -39q-2 -48 -2 -97v-15
q0 -29 1 -56q-2 -1 -4 -1h-5q-25 0 -44 27q-29 30 -31 37q-34 64 -34 224q0 136 22 292q35 198 83 387q63 265 129 495q12 57 12 132v6h-1q-173 -47 -330 -109q-82 -32 -119 -43q-8 -3 -15 -3q-46 0 -69 42q-10 19 -10 37q0 9 -13 34q0 3 -24 37v2v1q0 23 109 61
q115 41 178 66q54 27 210 70q232 65 496 114q144 27 233 27zM289 1512v-1q25 4 25 11q-1 7 -5 7h-1q-7 0 -19 -17zM-66 1378v-1q10 -3 18 -3h4q18 0 48 12q82 25 155 58q72 34 124 66h-1q-41 0 -81 -22q-16 -7 -70 -24q-90 -32 -180 -70q-5 -3 -17 -16zM-96 1372v-2
q0 -1 6 -2q7 0 18 8v1q-10 3 -13 3h-2q-9 -1 -9 -8zM500 988q-13 -25 -13 -43v-13h1q15 33 15 50q0 4 -3 6zM460 846v-15h1q25 37 25 92v3q-9 -10 -18 -35q-8 -24 -8 -45zM438 753q0 -2 1 -12h1q9 17 9 33v2q0 7 -1 13q-10 -16 -10 -36zM430 710q-16 -32 -16 -61v-9v0
q16 33 16 64v6z" />
    <glyph glyph-name="U" unicode="U" horiz-adv-x="1185" 
d="M1055 1306h12q71 0 110 -27v-1q-13 -59 -29 -112q-17 -63 -17 -82q0 -25 -23 -125q-18 -55 -34 -147q-6 -33 -14 -95q-16 -89 -28 -189q0 -8 -9 -40q-37 -131 -65 -269q-13 -70 -13 -118q0 -59 20 -117v-5q-1 -4 -4 -4h-7q-68 0 -111 82q-45 95 -45 263q0 92 14 175
q-41 -55 -85 -106q-23 -28 -88 -92q-49 -47 -86 -75q-182 -143 -344 -143q-56 2 -56 6q-55 34 -86 50q-41 21 -61 72q-10 28 -10 56q0 25 16 98q59 281 134 548q43 149 76 242q7 24 15 42q35 66 85 66q28 0 54 -21q0 -8 -15 -52q-35 -88 -66 -219q-19 -85 -19 -110v-61
q0 -6 -1 -14v-1h1l124 439q0 7 7 7h4q16 0 19 -35v-15q0 -89 -92 -410q-32 -107 -43 -164q0 -31 -38 -138q-27 -77 -27 -120q1 -4 1 -11q0 -3 29 -8q10 -1 17 -1h6q100 0 221 128q49 55 82 101q85 123 142 234q31 56 78 151q11 23 21 36q25 36 63 109q62 122 98 180
q27 41 42 41q10 1 25 1zM1186 1267h1q8 -11 8 -25q0 -10 -10 -49q-21 -121 -59 -289q-6 -26 -7 -31h-1v26q0 38 15 102q12 57 28 108q10 25 10 31v13q0 20 14 103zM1155 1266q-4 -3 -6 -11q-12 -39 -27 -78q-16 -46 -16 -61q-14 -60 -32 -107q-15 -39 -29 -105l-32 -137
q-4 -17 -14 -82v-10v-3q2 -22 9 -22h2q9 4 9 32v16q0 26 16 67q3 7 7 44q7 40 19 81q7 20 13 51q6 21 13 34q0 2 -1 5q0 16 8 54q12 43 19 65q12 33 24 62q0 19 17 80q4 18 4 22q-1 2 -3 3zM1111 842h1q-7 -33 -7 -34h-1q1 12 7 34zM1103 806h1v-1h-1v1zM274 777
q-13 -17 -21 -41q-4 -13 -14 -52q-19 -51 -21 -77q-11 -76 -19 -103q-15 -48 -15 -54l1 -19h1q16 6 33 49q13 34 26 88q14 72 28 199l1 10v0zM170 410q0 -3 4 -6q5 0 9 17v4v1q-13 -9 -13 -16zM380 166h1q97 34 143 67q75 53 98 72q29 26 43 45q17 21 32 44v0
q-94 -83 -95 -83q-41 -34 -76 -55q-57 -38 -110 -66q-23 -14 -36 -24z" />
    <glyph glyph-name="V" unicode="V" horiz-adv-x="905" 
d="M68 1366h1q25 0 89 -31q17 -6 19 -7q-3 -51 -3 -58q1 -118 1 -166q0 -193 -8 -239q-2 -19 -2 -39v-1q0 -51 19 -275q0 -62 31 -133v0q1 8 1 9q0 7 -9 70q-12 106 -12 205q4 153 6 380q0 70 6 240h1q9 -5 15 -20q9 -31 9 -46q5 -39 5 -137q2 -10 2 -20v-32q0 -47 -5 -500
v-90q0 -182 7 -182q0 -3 1 -3q19 38 42 72v0q4 -5 10 -5q14 2 27 11q13 12 18 31q1 6 1 9q0 17 -11 24v1v1q0 8 25 27q8 7 8 14v1q0 4 -5 12q104 205 244 494q60 122 78 155q4 3 28 51q25 50 53 93q30 44 45 44h4q18 -4 33 -4l70 4h11q46 0 60 -37q2 -10 2 -12
q-13 -35 -22 -43q-34 -47 -40 -64q-30 -62 -94 -169q-30 -52 -61 -118q-56 -93 -86 -176q-6 -17 -13 -43q-7 -15 -22 -57q-1 0 -65 -126h-1h-4l-3 -4v0q0 -3 3 -5q-104 -202 -140 -284q-57 -141 -99 -186q-37 -39 -79 -39q-40 0 -90 35q-14 9 -32 16q-26 9 -77 22
q-23 7 -39 22q-7 0 -9 286q-1 102 -1 320v95q0 420 4 578q20 29 53 29zM920 1214q28 31 28 46q0 1 -1 3h-1q-20 -23 -23 -38q-2 -4 -3 -11zM869 1123v0q25 23 34 45q7 13 14 40q-27 -25 -36 -47q-7 -13 -11 -30q-1 -6 -1 -8zM825 1042q21 21 21 44q-21 -22 -21 -44zM775 952
q24 26 34 63q-23 -25 -30 -47q-3 -9 -4 -16zM736 923q-21 -42 -229 -454l-28 -55q2 -2 13 -8h1q132 241 254 513q-2 0 -11 4zM583 519q1 -4 3 -4t4 3v1q0 4 -4 4h-1q-1 0 -2 -4z" />
    <glyph glyph-name="W" unicode="W" horiz-adv-x="1513" 
d="M62 1366h1q25 0 92 -32l16 -6q-1 -17 -3 -60q1 -48 1 -165v-9q0 -183 -8 -226q-2 -22 -2 -42q0 -30 3 -41h5q4 0 11 -98q5 -36 11 -55q4 -12 16 -43h1v11q0 21 -17 99v10q6 192 6 393q2 112 6 217v2q8 0 17 -24q10 -39 10 -67q2 -23 3 -116q2 0 2 -34q-4 -419 -5 -537
v-93q0 -149 7 -156q1 -2 1 -3q121 189 169 269q49 82 49 97q0 4 -6 13q82 159 205 427q16 34 24 46q38 73 57 108q45 75 67 75h1q20 -4 34 -4q6 0 66 4h15q43 0 58 -33q4 -10 4 -17q-15 -36 -21 -40q-33 -46 -42 -70q-21 -41 -66 -119l-4 -500q0 -9 -1 -91q0 -168 7 -179
l1 -2q9 15 46 62q45 60 66 97q8 17 8 25v2q0 3 -5 12q100 196 245 494q61 123 77 154q5 5 26 46q23 49 56 99q30 43 45 43h1q23 -3 34 -3h4q59 3 69 3h9q43 0 59 -32q4 -13 4 -17q-13 -32 -22 -42q-31 -41 -41 -66q-28 -57 -96 -172q-32 -57 -58 -112q-56 -95 -80 -162
q-12 -31 -20 -60l-22 -56q-25 -48 -65 -126v0q-1 0 -4 1q0 -1 -4 -4v-1q0 -2 4 -5q-48 -93 -76 -149q-48 -93 -70 -149q-21 -54 -31 -67q-7 -11 -21 -20q-24 -12 -33 -12q-28 -8 -146 -17q-90 -14 -124 -14h-4q-42 0 -54 17q-5 14 -7 402q-1 67 -1 125v0v0q-44 -88 -47 -90
q-1 0 -3 1l-4 -5q0 -2 3 -6q-99 -193 -135 -271q-52 -127 -83 -172q-46 -65 -100 -65q-42 0 -96 39q-23 12 -48 19q-57 14 -78 24q-19 12 -19 20q-7 123 -7 585v64q0 494 5 625q21 27 52 27zM940 1263q-22 -25 -24 -42q-1 0 -2 -8q22 24 27 41l2 6q-2 3 -3 3zM1532 1197
q28 31 28 47q-2 2 -2 3v0q-22 -25 -24 -40q-2 -9 -2 -10zM863 1123q22 21 27 33q7 10 16 34q5 16 5 18q-24 -23 -32 -40q-14 -27 -16 -45zM1480 1106v0q22 20 28 34q13 21 20 51q-24 -22 -30 -37q-8 -12 -16 -36q0 -5 -2 -12zM1437 1025q20 21 20 45q-20 -23 -20 -45z
M786 993v-19v0q15 28 17 41q-15 -15 -17 -22zM1386 935q21 24 29 47q3 8 5 16q-20 -21 -28 -43q-4 -11 -6 -20zM811 979q-19 -35 -27 -51q0 -29 -6 -87q-1 -10 -1 -30v-3q0 -30 18 -267q1 -18 2 -149q4 -98 11 -108l11 -27v0q1 6 1 8q0 4 -7 63q-8 94 -8 226v51q0 62 5 262
q1 87 1 112v0zM1348 906q-52 -103 -159 -321l15 -8q73 132 111 227l43 98q-1 0 -10 4zM622 709l-149 -295v-1l15 -7q78 144 134 260v43zM577 519q1 -4 3 -4t4 4q-1 4 -4 4h-1q-1 0 -2 -4zM1195 502v0q0 -3 2 -4q4 1 4 5q0 2 -2 3h-2q-2 0 -2 -4z" />
    <glyph glyph-name="X" unicode="X" horiz-adv-x="1131" 
d="M1066 1385q9 -5 51 -19q80 -30 80 -80q0 -34 -41 -85q-56 -78 -223 -259q-48 -51 -97 -107v1l286 355q0 2 3 8v0q-1 5 -3 5q-6 -1 -22 -24q-11 -13 -29 -33q-71 -79 -177 -212l-171 -217q-15 -18 -45 -50q-19 -30 -24 -59v0v0q15 18 27 34q16 18 30 27q4 3 11 16
q16 26 48 61q8 8 30 29h1v-3l6 -6q1 1 2 1v-1q-59 -69 -155 -177q-11 -15 -21 -17q-5 -2 -5 -5q2 -16 23 -43q7 -8 8 -8v0q1 0 2 1v3v0q20 -31 20 -36q6 -21 13 -32q49 -85 49 -88q5 -17 13 -23q9 -9 25 -22q17 -27 17 -32q5 -24 14 -31l17 -14q61 -89 61 -92v-11v-1
q0 -5 -4 -24v-1q0 -7 12 -22q14 -29 19 -31q2 -1 41 -40q1 0 17 -18q8 -6 10 -6q7 1 10 1q5 0 19 -1q8 1 16 3q11 -7 11 -15q0 -13 -33 -24q-6 -5 -66 -6q-48 -4 -100 -17q-15 -2 -18 -2q-39 0 -115 73q-50 51 -71 82q-28 39 -61 97q-52 85 -98 168q-10 -5 -25 -18
q-5 -3 -8 -3q-1 1 -2 7q-2 1 -3 1q-8 0 -18 -12q-150 -169 -201 -225q-78 -85 -94 -110q-35 -46 -35 -88v-1q0 -20 10 -49v-1q0 -8 -12 -8h-1q-24 0 -54 21q-39 40 -45 41q-2 2 -2 3q21 33 22 50q8 23 18 43q11 23 24 34q2 3 5 8v0q-21 -12 -39 -52q-7 -14 -21 -47l-1 -1v0
l-3 4h-1q-2 -2 -12 -31l-2 -3q-32 16 -55 33q-6 8 -6 18q0 31 27 79q64 120 294 413q72 91 105 131q-109 194 -170 317q-20 42 -30 77q-11 32 -36 88q-11 29 -11 45v3q0 26 34 36q8 2 23 2q22 0 46 -11q8 -2 28 -3q25 0 57 9h1q16 0 52 -56q11 -22 23 -47q41 -77 146 -263
q3 3 71 84q138 161 287 323q51 56 133 137q55 51 68 51zM333 1035q16 -53 37 -95q14 -28 41 -70q20 -35 23 -39q16 -23 40 -34l7 -4v1q-14 21 -22 32q-10 14 -17 38q0 1 -12 14q-24 29 -41 62q-24 51 -40 74q-6 10 -16 21zM836 835v-1q0 -1 -2 -1v0q0 1 2 2zM833 831v0v-1v0
v1zM842 828v0q1 0 7 -7v-1q-9 -16 -14 -20l-19 -18h-1v6q0 20 21 34q0 1 6 6zM617 536q7 -43 29 -73q20 -27 31 -49q35 -68 92 -152q26 -37 70 -93h-1l10 -26q3 -7 13 -19q9 4 10 4q-2 3 -2 5l4 -4q-5 9 -6 9v0q1 -2 1 -4q-6 6 -28 34v1q6 -2 12 -6v0l-225 375q-4 -1 -10 -2
zM388 344l7 -9l18 12q11 8 11 25q-1 1 -1 2q-2 -3 -17 -11q-9 -6 -14 -15q0 -1 -4 -4zM340 288v0q13 5 13 7q-3 3 -4 3q-5 0 -7 -6zM132 32v0h1q16 21 28 39q20 22 29 26q6 3 12 18q13 28 48 68q49 49 58 60q18 22 28 42h-1q-33 -23 -77 -64q-46 -47 -59 -68
q-14 -18 -42 -49q-10 -15 -15 -29q-10 -30 -10 -43zM854 161l11 -18v0v1q-6 13 -11 17z" />
    <glyph glyph-name="Y" unicode="Y" horiz-adv-x="942" 
d="M903 1459q11 0 68 -29q45 -22 64 -22q12 -4 12 -17v-1q0 -22 -30 -80q-13 -24 -21 -49q-28 -60 -97 -190l-3 -1q0 1 -1 1q2 7 2 20q0 9 -3 9l-17 -16q-2 -4 -14 -23q-1 -3 -2 -13q-9 -20 -9 -24q-44 -70 -44 -83v-1q0 -2 8 -8l1 -2q-6 -11 -26 -38q-19 -35 -19 -38
q0 -2 -18 -35q-19 -37 -21 -60q-110 -203 -143 -273q-69 -146 -133 -291q-113 -261 -113 -318q0 -4 7 -27q1 -8 1 -14v-4q0 -17 -15 -19q-3 0 -5 -1q-40 0 -127 79q-34 31 -35 43q-6 15 -6 39q0 45 24 107q97 255 222 542v0q-19 -4 -36 -4h-4q-25 0 -65 13q-11 6 -23 18h-1
l1 1q4 -3 26 -5h1v0q-9 4 -20 13q4 3 4 6v1q0 5 -22 22q-4 5 -15 13q-28 53 -28 64q-6 22 -12 33l-3 -1q-5 0 -12 18v15q0 18 -25 37q-78 171 -150 349q-37 98 -37 117q33 53 68 53h1q5 0 19 -1q3 0 13 6q17 7 31 7q48 0 74 -55q28 -50 58 -110v0h-1q-5 0 -14 9q0 2 -24 34
q-10 13 -14 22v0v0q22 -66 43 -89q12 -15 17 -15q9 -7 9 -14t17 -31q0 -20 14 -42q2 -11 17 -21q15 -25 22 -40q26 -39 26 -67v-12q0 -11 19 -37q34 -45 34 -50q15 -25 30 -62q15 -32 21 -34q5 -3 12 -6q4 0 8 18q35 74 68 128q16 25 61 109q91 166 173 297q33 53 73 101
q26 29 39 29zM994 1344q-20 -25 -23 -46q0 -1 -1 -6q27 33 27 49q-2 3 -3 3zM170 1322q8 -25 16 -40q5 -10 17 -23v1q-10 41 -21 50q0 2 -12 12zM922 1197q11 10 20 23q11 19 19 40q5 18 6 26q-22 -23 -28 -38q-6 -8 -14 -35zM206 1254v-9q0 -26 16 -53q14 -30 39 -95
q31 -74 68 -140q43 -82 46 -87q6 -7 16 -22q16 -21 32 -30h2v1q-2 18 -17 45q-18 24 -34 53q-38 65 -62 121q-22 47 -46 90q-17 32 -44 94q-8 17 -16 32zM881 1112v0q19 21 19 44v1v1v0q-19 -22 -19 -46zM335 -44v0v0q8 13 24 66q48 138 110 255q56 113 139 285
q109 220 196 393q45 90 65 128q1 6 1 8v4q0 13 -11 13q-7 0 -22 -30q-26 -47 -68 -139q-133 -278 -257 -521q-22 -43 -41 -74q-20 -36 -79 -191q-26 -68 -40 -103q-14 -46 -14 -60q-1 -7 -3 -34z" />
    <glyph glyph-name="Z" unicode="Z" horiz-adv-x="1042" 
d="M848 1295q13 0 26 -5q5 1 8 1q12 0 72 -49q39 -29 59 -36q12 -6 12 -18v-2q0 -20 -33 -70q-19 -28 -23 -42q-23 -39 -107 -162l-4 -4h-2q-1 0 -1 1q3 14 3 23v0q0 6 -2 6q-6 -4 -18 -11q-2 -4 -15 -18q-2 -3 -4 -14q-7 -13 -10 -21q-34 -41 -45 -59q-4 -7 -4 -12v-2
l8 -10q0 -2 -13 -16q-19 -19 -27 -33q-10 -11 -10 -17q-40 -54 -43 -82q-54 -75 -113 -161q-37 -53 -110 -178q-29 -50 -62 -109v-1q54 15 138 26q44 5 114 8q93 5 245 21q61 5 99 5h2q38 0 56 -7q20 -2 39 -13q16 -13 16 -28v-3q0 -29 -50 -71q-43 -6 -78 -6q-3 1 -5 1
q-4 -2 -42 -2h-1q-49 0 -97 6h-2q-2 0 -31 -7q-22 -2 -100 -8q-19 -2 -19 -4l-3 -3v-2q-16 0 -52 -7q-69 -9 -116 -19q-32 -5 -54 -9q-28 -7 -54 -17q-98 -30 -98 -44q0 -5 12 -10h5h2q18 3 18 12q0 4 4 4h1q3 0 12 -2h5q3 0 6 11q13 9 31 9q3 -1 5 -1t14 9q35 15 54 15h3
q7 -2 9 -2q6 0 15 7q14 10 36 10q10 1 44 9l94 13q27 4 27 7q0 2 1 2h43q70 -3 88 -3h2q42 0 69 6q46 5 88 5h22q7 0 18 -1l1 -1q-15 -15 -18 -24q0 -1 -2 -5q0 -1 1 -2q0 -8 -5 -11q-9 -5 -29 -9q-48 -9 -242 -26q-177 -19 -266 -41q-69 -19 -161 -42q-17 -4 -18 -5
q5 -20 5 -32q0 -15 -7 -20q-4 -2 -5 -2h-3q-19 0 -60 36q-112 -29 -158 -50q-7 -2 -18 -15q-7 -8 -18 -37l-2 -2h-1q-7 6 -11 42q-1 3 -1 11q0 17 4 42v2q0 18 5 48q0 47 96 107q0 1 -1 1v13q0 46 24 85q249 449 274 493q100 182 113 204l40 58q32 45 57 79h-1
q-55 -8 -235 -15q-9 0 -31 -1q-195 0 -294 55q-29 16 -46 64q-7 22 -13 60q-3 27 -3 34v0q52 -27 142 -27h2q74 0 253 23q79 9 116 9h3v-1v-3q199 40 302 82q20 7 34 7zM962 1145q5 -7 5 -10v0q5 10 5 15q-1 2 -1 3h-1zM889 1027q32 19 48 70q2 5 2 6v0q-17 -12 -27 -25
q-15 -17 -23 -51zM642 1066v0q12 -1 16 -1q5 0 8 6l10 14v0zM610 1055q2 -7 6 -7h1q6 0 18 16v0q-25 -2 -25 -9zM843 953q22 18 22 41h-1q-13 -10 -19 -33q-2 -4 -2 -8zM332 177v0q18 6 22 8q33 62 86 140q97 157 308 480q58 88 79 120q4 6 4 13v4q0 10 -10 13h-3
q-6 0 -30 -37q-22 -30 -62 -98l-87 -139q-112 -177 -177 -273q-35 -42 -48 -69q-38 -71 -82 -162z" />
    <glyph glyph-name="bracketleft" unicode="[" 
 />
    <glyph glyph-name="backslash" unicode="\" 
 />
    <glyph glyph-name="bracketright" unicode="]" 
 />
    <glyph glyph-name="asciicircum" unicode="^" 
 />
    <glyph glyph-name="underscore" unicode="_" 
 />
    <glyph glyph-name="grave" unicode="`" 
 />
    <glyph glyph-name="a" unicode="a" horiz-adv-x="941" 
d="M696 1308q23 0 68 -45h4q24 0 61 -43q12 -9 43 -22q10 -6 10 -12q-4 -12 -7 -22q-9 -42 -20 -150v-7q0 -95 38 -609q6 -76 6 -103q0 -36 -9 -44q-7 -3 -10 -3l1 1q-34 8 -52 17q-21 13 -74 47q-10 5 -15 15q-9 19 -25 37v0q1 6 12 32v3q0 3 -5 18v2l4 28q4 9 4 19t-8 25
q-4 8 -4 14l4 9v1q-1 2 -4 16q-3 1 -5 1q-21 0 -140 -60q-108 -55 -184 -85q-37 -14 -57 -14h-14q-7 -11 -46 -80q-32 -59 -61 -123q-20 -46 -37 -108q-4 -24 -4 -49q0 -7 2 -46q0 -5 -4 -6q-5 0 -40 13q-20 9 -62 40l-26 17q-12 21 -12 47v6q0 73 79 219q15 29 182 354
q151 294 162 313q55 91 169 265q12 22 38 50q24 22 38 22zM546 870q38 47 68 99q28 51 39 79q-30 -30 -44 -53q-11 -18 -32 -55q-28 -38 -29 -56q-2 -7 -2 -14zM653 953q-46 -71 -57 -96q-77 -140 -166 -292q67 29 218 87l37 15q-31 266 -31 282v4h-1zM814 945
q-4 -25 -4 -44v-16q0 -26 18 -50q5 23 5 40q0 33 -18 70h-1zM828 799q-7 -8 -7 -18q0 -4 8 -34q4 -20 4 -39q-1 -23 -1 -29v-9q0 -25 7 -84v-12l-3 -45v-3q0 -56 11 -117q9 -33 27 -55v1q-19 86 -19 186q0 134 -7 185q-3 64 -7 64q-7 9 -13 9zM363 546v0q14 10 14 25v2v0v0
q-14 -13 -14 -27zM361 544v-2q1 0 1 2h-1zM261 360q39 53 68 110q30 64 30 68q-27 -27 -38 -47q-12 -18 -26 -48q-10 -18 -25 -42q-9 -21 -9 -41zM199 235q0 -7 2 -16q37 42 37 105q-18 -24 -29 -48q-10 -20 -10 -41zM159 137v-1q0 -8 1 -14q19 17 19 40q0 8 -1 15
q-19 -17 -19 -40z" />
    <glyph glyph-name="b" unicode="b" horiz-adv-x="982" 
d="M519 1553q80 0 237 -63q32 -14 65 -39q17 -13 47 -44q19 -21 22 -25q6 -20 11 -62q9 -13 9 -22v0q-14 17 -16 17h-3q-3 -1 -3 -2q0 -2 1 -2l-1 -5v-6q3 -34 3 -46v-8q0 -48 -17 -109q-14 -40 -34 -69q-15 -29 -16 -49q31 34 35 45q7 15 26 52q8 21 15 50q8 10 15 69
q2 15 8 36v2v0q21 -18 21 -59v-2q0 -37 -14 -91q-28 -84 -134 -242q-37 -55 -77 -102q-20 -20 -23 -20t-3 -2q3 -5 5 -16q17 -11 19 -13l18 -24q28 -26 28 -31q0 -13 5 -19q17 -21 57 -87q22 -25 22 -36q5 -21 11 -29q10 -12 25 -16q7 -25 7 -56v-9q0 -98 -60 -212
q-22 -41 -57 -85q-45 -54 -95 -94q-86 -68 -141 -99q-72 -44 -140 -75q-70 -32 -134 -46q-35 -8 -44 -8q-16 21 -21 37q-1 2 -1 3q-7 -5 -22 -20q-9 -6 -23 -24h-4q-49 0 -97 24q-18 10 -34 28q-23 25 -34 70q-1 1 -4 12q8 18 16 38l10 13q0 2 3 5v4l-1 1l1 1q19 -9 46 -14
q24 -4 33 -4q48 0 176 53q114 51 195 103q35 21 69 51q37 39 61 74q86 124 86 216q0 89 -84 136q-5 3 -5 4l1 8q-25 12 -35 12h-3q-7 0 -19 -4q-1 1 -4 12h1h2q3 3 3 6v1q0 4 -3 6q-5 0 -5 -7v-1v-1v-1h-5h-8h-15q-7 2 -9 3q-1 0 -10 -5q-20 -2 -60 -24q-36 -20 -43 -20
q-5 1 -6 1q-8 -7 -30 -13q-11 -5 -32 -10v0q0 1 1 4v0q-3 0 -28 -11q-9 0 -9 -5q-42 -135 -62 -212q-13 -51 -13 -80q0 -9 3 -25v-4q0 -26 -68 -56q-25 -13 -25 -17q-20 -9 -24 -10q-13 13 -19 54q-4 31 -4 68v64v44q0 59 25 231q11 70 24 111q23 26 29 38q0 -1 10 -11
q14 -19 19 -34q4 -17 9 -17q4 -3 13 -3q6 0 6 20q4 29 10 108q-2 21 -7 21q-3 2 -6 2v0q-8 -1 -16 -20l-4 -23q-3 -15 -15 -28q-7 -6 -18 -15h-1l1 5q0 6 -15 16q100 388 104 406q14 94 27 127q10 20 20 35q30 44 77 99q22 23 28 35q6 11 22 23h1v-3l-1 -4q21 23 26 24
q5 6 31 13q39 9 63 9zM390 1042v0l5 4h1q2 -16 2 -20q0 -3 -6 -26q0 -4 -3 -16v-2q0 -4 2 -10q-5 -29 -12 -35q-3 -6 -9 -15q0 -6 -4 -33q0 -39 -9 -48q0 -5 -22 -29q96 19 147 40q46 19 63 36q30 26 46 47q50 63 94 141q45 77 64 105q8 10 14 15q1 9 1 17v9q0 46 -32 95
q-6 11 -36 39q-34 30 -80 60h-3q-22 0 -46 10h-5q-21 0 -52 -23q0 -7 -3 -9q-4 -2 -11 -25q-2 -5 -16 -18q-17 -22 -30 -51t-13 -38q0 -23 -47 -220v0zM393 1218l2 -19q18 19 18 41l-5 4q-10 0 -14 -15q-1 -4 -1 -11zM381 1136q-18 -23 -22 -37q-18 -42 -18 -74q1 -7 1 -11
v-2v0q40 60 40 124v0h-1zM397 1051v0q1 0 1 -1q-1 -2 -2 -3h-1q1 4 2 4zM749 892v-1q-9 -7 -15 -13q-8 -12 -8 -15t5 -7v0q9 0 14 11q4 6 10 21q10 4 25 26q37 55 42 68q6 15 17 36q-21 -12 -33 -39q-14 -22 -34 -44q-23 -20 -23 -43zM320 944q-3 -8 -11 -29q-5 -20 -5 -35
q0 -12 2 -24q19 28 19 59q0 10 -5 29zM694 829v0q0 -4 3 -6h2q3 2 3 7q-1 6 -3 6q-5 -1 -5 -7zM275 801q0 -8 7 -10h1q6 4 6 12q0 6 -4 10h-1q-9 0 -9 -12zM661 758q0 -3 3 -5h3q2 4 2 5q0 4 -2 8h-1q-5 0 -5 -8zM272 742q-7 -22 -7 -39q0 -7 2 -23q4 5 8 21q2 8 3 26
q0 9 -5 14v1h-1zM246 661q-19 -43 -36 -97q-12 -42 -24 -105q-5 -2 -7 -10q-12 -37 -12 -78v-3q0 -16 2 -27v0q30 91 49 165q15 61 28 155v0zM846 365q-22 -59 -58 -114q-27 -40 -88 -112q-29 -32 -66 -72q-21 -23 -38 -44h1q78 28 173 160q30 45 45 76q31 63 31 105v1z
M644 140q16 8 21 14q4 4 7 10q0 7 -7 7v0q-14 -7 -21 -30v-1zM568 53q35 18 66 69q4 9 6 15q-13 -8 -36 -31q-26 -28 -36 -53zM508 0q19 7 37 25q8 7 16 20l3 3v1q-31 -10 -49 -36q-7 -12 -7 -13zM562 2v-3q1 -8 6 -8h1q9 8 15 17v4q-3 3 -8 3q-14 -8 -14 -13zM198 -159v-1
h3q88 0 321 118q20 8 20 25v0q-75 -25 -164 -63q-51 -24 -134 -53q-21 -8 -45 -26h-1z" />
    <glyph glyph-name="c" unicode="c" horiz-adv-x="1008" 
d="M861 1422q25 0 55 -36q57 -60 57 -70q1 -7 1 -14v-7q0 -34 -12 -60q-11 -11 -22 -29q-41 -69 -78 -162h-1q12 60 37 112q22 46 29 53q9 10 21 18q2 4 2 7q-1 9 -4 9h-3q-9 0 -23 -18q-25 -28 -42 -56q-23 -39 -39 -81q-15 -39 -27 -90q-19 -98 -32 -147q-9 -39 -9 -55
v-12q0 -29 -8 -58q-2 -13 -2 -29q0 -23 1 -43q8 -8 13 -8q1 -13 12 -39q4 -7 9 -14q-4 -18 -4 -31q10 11 13 21h1q11 -8 29 -14q10 -6 20 -15q-9 -6 -41 -18q-32 -11 -58 -11h-2q-43 0 -78 33q-21 18 -33 34q-65 87 -65 202v10q0 76 36 183q-21 -20 -49 -56
q-76 -95 -133 -192q-74 -124 -120 -242q-23 -61 -35 -107q-24 -93 -24 -155v-5q0 -54 22 -75q15 -17 30 -17q10 0 31 4q5 -1 6 -1q6 0 38 12q9 3 38 6q22 5 27 13q26 20 35 22v0v0q-27 -3 -32 -3v1q144 51 225 92q45 27 90 45q37 15 48 15t24 -31q8 -22 8 -30
q-12 -9 -55 -46q-54 -43 -78 -52q-11 -5 -19 -17h4q25 0 62 28q79 52 87 59l3 3v-1v-1q8 -4 8 -8v0q0 -19 -38 -48q-14 -9 -14 -11q-18 -20 -38 -35q-51 -38 -107 -63q-73 -34 -187 -64q-122 -31 -211 -31q-37 0 -61 6q-19 -5 -31 -5q-90 0 -114 165q-6 48 -6 98
q0 102 31 206q16 57 43 131q78 206 179 375q46 78 114 168q159 197 290 197q23 0 50 -8q5 11 64 70q20 21 32 22q8 1 10 1zM126 451v-2q1 -4 3 -4q11 6 11 23q8 20 16 46q33 96 76 188q51 106 134 233q37 62 89 128q24 33 79 89q25 25 37 41q20 23 20 27v5q0 7 -6 7
q-7 0 -17 -15q-23 -26 -73 -78l-62 -72q-33 -45 -50 -76q-6 -11 -42 -63q-36 -54 -54 -90q-16 -32 -52 -97q-44 -79 -81 -187q-2 -10 -13 -40q-5 -15 -11 -48q-4 -8 -4 -15zM786 1046v-6q15 16 34 71l21 73h-6q-10 -3 -25 -40q-7 -21 -12 -38q-12 -35 -12 -60zM786 1009
q-5 -9 -5 -16v-7l1 -2q6 7 6 15v4l-1 6h-1zM760 905v-4q0 -9 3 -15q14 14 14 32v0q0 8 -3 16q-14 -14 -14 -29zM728 903h1q4 3 4 6v4q-2 0 -5 -10zM243 649q21 21 30 55h-1q-18 -13 -26 -37q-2 -8 -3 -18zM232 620q10 9 10 25q-10 -10 -10 -25zM214 581q10 13 10 23
q-10 -12 -10 -23zM205 563q-7 -14 -7 -20v-1h1q6 18 6 21v0zM115 434v-2v-1v0q0 1 1 2v1h-1zM110 422q-7 -19 -7 -23v-1v0q8 19 8 23v1h-1zM100 392q-23 -44 -23 -73v-6v0q14 22 21 59l3 19v1h-1zM337 128h-7q-10 0 -22 -2v-1q10 -5 13 -5t24 8v1q-4 -1 -8 -1z" />
    <glyph glyph-name="d" unicode="d" horiz-adv-x="990" 
d="M229 -2q-33 7 -64 43q-144 163 -155 257q-2 18 -2 44q0 92 39 241q2 0 2 3q-1 0 -1 1q50 193 68 218q14 28 14 53l-2 -1q50 157 70 260q-30 19 -49 35q-13 14 -13 36q0 13 8 53v18.5t19 34.5q1 5 33 22q52 28 96 40q56 14 123 14q127 0 249 -40q236 -85 298 -296l-8 6
q-6 -6 -6 -14q5 -42 5 -80q0 -79 -23 -165q-5 -30 -5 -38q19 15 33 55q19 46 19 123l-1 42h1q4 -35 4 -67q0 -103 -39 -225q-9 -30 -9 -47l-21 -40q-6 5 -9 6q-15 -4 -15 -6q-21 -21 -21 -68q0 -12 -58 -92q-31 -41 -57 -70q-22 -22 -37 -43q-131 -133 -144 -134
q-46 -36 -70 -43q-50 -38 -85 -56l-143 -69q-37 -7 -44 -11zM890 1145q0 10 -48 61q-52 49 -108 67q-48 14 -70 27q-39 27 -172 47q-43 5 -63 5q-4 0 -9 -3v-2q10 -3 16 -3l21 3q64 -1 193 -47q86 -34 201 -107q21 -30 37 -48h2zM528 1329q-11 4 -21 5q14 -5 21 -5z
M546 1324l-2 1q1 -1 2 -1zM630 1294q-12 6 -17 5q14 -6 17 -5zM663 1282q-10 8 -20 8q12 -8 20 -8zM699 1267q-8 8 -21 8q7 -8 21 -8zM750 1237q-14 22 -47 25q23 -21 47 -25zM206 161q89 0 264 209q182 226 266 405q26 57 28 73l-3 -2q23 28 23 110q-3 -10 -13 -29
q0 121 -95 190q-66 44 -71 44q-63 14 -93 26q-48 0 -52 4q-16 6 -17 11t-4 5q-8 0 -36 -24q3 -9 3 -21q0 -15 -3 -16l1 -6q-7 -35 -10 -35q-20 -28 -31 -74q-46 -152 -46 -224l-28 -107q-59 -134 -59 -168q0 -7 3 -12l-38 -111q-49 -143 -49 -204q0 -11 22 -31
q16 -13 38 -13zM64 257l4 4l-10 54q0 86 20 145q1 18 18 71q8 22 16 70q18 78 41 134q28 67 36 128l18 54l37 166q0 14 -9 21q-12 0 -13 -15q-6 -91 -36 -181q-12 -39 -18 -60.5t-22 -36.5q-6 -8 -6 -14l8 -10q0 -4 -46 -167q-24 -65 -41 -136q-26 -121 -26 -188
q0 -23 27 -39h2zM898 655q28 32 28 64q-1 17 -3 17q-25 -46 -25 -81zM850 561q15 14 19 32l-4 4q-15 0 -15 -36zM73 578l2 2q-2 0 -2 -2zM775 452q43 38 61 93q-16 -9 -36 -37q-22 -33 -25 -56zM722 375q37 21 45 58q-45 -42 -45 -58zM273 34q71 18 210 119q51 36 116 92
q75 68 102 111q-123 -121 -340 -262z" />
    <glyph glyph-name="e" unicode="e" horiz-adv-x="958" 
d="M899 1291q76 0 100 -12q60 -23 82 -65q6 -10 6 -21v-2q0 -24 -18 -52q-36 -13 -72 -13q-177 -33 -303 -65q-19 -6 -68 -14q-30 -3 -47 -3l9 -8q0 -1 -34 -5q-86 -6 -121 -14q-1 -1 -21 -5v-1q113 -41 254 -85l62 -21q32 -6 47 -14q6 -2 8 -6q4 -6 4 -28q14 -43 14 -57
v-14q0 -9 -4 -9q-31 -19 -92 -41q-40 -12 -54 -12q-186 -28 -314 -64q-42 -12 -78 -23q0 -1 14 -12q-21 -15 -35 -29q-3 -3 -18 -34q-17 -25 -25 -60l-9 -27q-4 -23 -7 -60q-1 -5 -3 -5q-8 0 -11 -21q-14 -52 -14 -70q-11 -65 -11 -82v-2q0 -28 12 -43q7 -12 21 -25l-7 37
q-1 7 -1 19v5q0 8 2 30q0 8 -5 25q0 5 10 20q12 23 12 42v5l-2 27q0 62 39 154q17 37 43 63q3 2 7 17q3 6 10 6q18 -2 18 -16q0 -6 -20 -47q-31 -63 -53 -123q-30 -84 -30 -158q0 -58 19 -121h1q42 1 249 91q109 49 156 78q17 13 45 26q48 20 78 20h4q17 0 24 -8q2 -4 2 -9
q-4 -30 -4 -34v-4q0 -2 2 -9q-34 -16 -69 -44q-7 -8 -7 -9v0q7 0 29 10l30 22q5 4 12 7v-1q-1 -2 -1 -7q3 -25 3 -28q-3 -19 -53 -59q-56 -42 -121 -73q-54 -28 -123 -54v9q-17 -9 -40 -15q-18 -5 -53 -7q-28 -7 -43 -14q-13 -10 -38 -16q-77 -11 -125 -26q0 -1 -4 -1
q-49 0 -78 27q-90 70 -90 216q0 133 74 324h-2q-19 0 -33 34q-7 13 -16 48l-3 14q1 22 4 44v1q0 2 1 2l-1 2v2q0 10 6 33q1 15 7 15q23 9 77 22q25 7 25 10v2q0 3 -12 3h-3q-9 0 -44 -11q-31 -8 -37 -8q-2 9 -2 14q3 12 5 12l5 10q138 33 390 79q79 15 134 22v1
q-79 22 -228 56q-48 13 -89 24q-11 -1 -19 -1h-8q-57 0 -89 46q-19 31 -22 66q0 8 -14 52q-1 4 -2 13q0 16 18 23q36 16 155 38q121 23 364 46q158 13 257 13zM431 1216v-1q0 -7 17 -7h2q56 5 132 12q16 4 32 4q4 0 24 -2q4 1 4 4q0 12 -29 12h-15q-76 0 -156 -14
q-11 -3 -11 -8zM175 1167q4 -11 19 -12q26 0 53 12q25 10 84 21q50 9 67 16v4v1q-3 5 -21 5h-6q-7 0 -49 -10q-38 -8 -97 -13q-22 -1 -47 -15q-3 -5 -3 -9zM312 840q-3 -2 -3 -6q1 -2 4 -2h1q3 0 3 3v1q0 4 -5 4zM275 826v-1q0 -4 4 -4t6 4q-1 5 -4 5h-2q-4 0 -4 -4z
M239 815q0 -3 2 -4h2q6 0 6 7v1q-1 3 -4 3q-6 0 -6 -7zM175 793q0 -3 6 -5h1q12 0 30 13q6 6 6 11q-3 6 -6 6q-24 -7 -37 -23v-2zM330 645q1 0 4 -2q0 -13 -17 -21q-5 -1 -10 -1h-1q-6 0 -6 5v2q0 10 25 17h5zM668 235v0q13 1 23 11v1v0q-12 0 -23 -12zM606 209v-1h8
q23 0 39 21l-4 1q-27 0 -43 -21zM593 200h1q9 3 9 6h-1q-5 0 -9 -6z" />
    <glyph glyph-name="f" unicode="f" horiz-adv-x="946" 
d="M825 1620h18q161 0 281 -62q6 -4 13 -11v-9q0 -7 13 -27q12 -24 27 -73q-1 -7 -14 -20q-19 -12 -25 -12v-1q-20 1 -31 1q-34 0 -58 -7q-82 6 -119 6q-59 0 -137 -18q-93 -19 -305 -43v0h2h7v-1q-5 0 -5 -2q-16 -97 -44 -207q-22 -89 -51 -199h1q264 47 343 63q10 3 24 3
q37 0 109 -31q21 -7 33 -27q13 -24 13 -53v-9q0 -16 -7 -20q-29 -22 -100 -48q-22 -8 -50 -12q-11 0 -55 -16q-125 -23 -249 -48q-15 9 -17 9q-4 0 -17 -13q-4 -3 -6 -3l-11 5h-3q-7 0 -31 -10q-10 -5 -27 -5q-10 -2 -31 -19q-22 -23 -26 -23q-15 -18 -16 -18q-7 0 -10 -10
q0 -23 -28 -157q-7 -39 -10 -57q-6 -18 -16 -32q-4 -5 -5 -12q0 -3 7 -4q2 -2 2 -5q-20 -105 -37 -169q-5 -22 -10 -74q-3 -40 -3 -46q1 -25 1 -49v-7q0 -21 10 -27h1q2 2 4 6q-3 11 -3 21q0 7 6 58q1 2 1 10q0 5 -1 31q0 21 7 48q0 9 4 20q6 52 12 84q12 50 27 97
q10 41 10 70q10 48 10 59q0 14 20 77v0q2 -4 4 -4q4 0 17 36q4 12 14 12h1l2 -1q-49 -146 -92 -391q-17 -88 -17 -205v-25v-162q0 -32 -2 -32h-2h-5q-19 1 -20 3q-1 25 -3 25q0 -2 -8 -21q0 -4 -2 -4q-5 -1 -11 -1h-7q-38 0 -51 21q-19 22 -29 33q-29 21 -44 123
q-9 68 -9 148q0 161 42 348q29 108 32 120q-9 5 -18 19q-17 27 -26 58q-22 84 -22 106v12q1 39 5 42q9 11 35 16l61 6q1 0 27 7v-11q0 -3 5 -4h1q6 0 13 21q11 29 40 126q4 16 22 31q7 6 7 14q-2 13 -2 27q0 21 10 45q2 6 2 10q0 2 -1 6q16 75 16 150q-21 -6 -36 -6h-2
q-73 0 -97 122q21 10 42 26q7 5 42 17l1 1h-1h-4v1q2 1 2 4v2q-2 3 -10 3q-24 0 -46 -14l-1 -1l-3 1q-7 0 -37 -12q-1 -1 -3 -1h-1q-3 10 -3 15q0 85 419 138q90 12 243 26q34 2 62 2zM853 1589l-59 2q-10 0 -59 -4h-5h-18q-23 0 -55 -11q-2 -1 -6 -1h-13q-64 0 -127 -16
q-6 -4 -7 -8q1 -7 8 -7q67 6 113 14q42 8 194 16q6 0 17 1q16 0 108 -7l64 -3q-11 16 -37 16q-78 11 -94 11h-2q-16 0 -22 -3zM329 1511q-30 -4 -30 -5q1 0 1 -1q-4 -3 -44 -16q-16 -6 -20 -11v-2q0 -6 11 -6q12 0 19 4h-9q-1 0 -1 1q15 8 66 20q21 3 21 4q2 0 2 2
q0 8 -13 10h-2h-1zM484 1344v-1h3v1h-3zM480 1343v0h2v0h-2zM361 949q1 -6 5 -6q5 0 7 9q12 28 12 41q10 42 13 57q4 36 8 43q8 24 11 45q7 24 22 92l20 71q1 5 1 11v1q0 6 -1 19q-2 -2 -13 -35q-11 -51 -19 -71q-26 -106 -46 -176q-20 -90 -20 -101zM559 937q0 -4 6 -4
q3 0 3 3v3q0 3 -4 3v0q-4 0 -5 -5zM516 925v-1q0 -4 5 -4t8 4q0 5 -6 6q-7 0 -7 -5zM471 911q0 -4 5 -4h1q8 0 8 9q-2 5 -5 5q-9 0 -9 -10zM393 885v-1q0 -3 6 -5h1q18 0 39 17q7 6 7 13q-3 6 -8 6q-19 -4 -40 -22q-5 -6 -5 -8zM175 -4q0 -1 1 -9h1l1 9q0 6 -2 12
q-1 0 -1 -12zM167 -75v-1q0 -21 6 -45v0q9 28 9 55v2q0 19 -5 42q-3 -5 -7 -23q-3 -14 -3 -30z" />
    <glyph glyph-name="g" unicode="g" horiz-adv-x="1038" 
d="M865 1490v0q29 0 119 -90q17 -16 17 -23q3 -8 3 -19q0 -30 -11 -57q-2 -4 -16 -18q-42 -58 -83 -148q-9 -19 -9 -20h-1q7 33 17 61q14 36 40 79q9 21 31 32q5 4 5 7v3q0 8 -8 10h-1q-7 0 -16 -15q-126 -167 -126 -283v-7q0 -61 39 -112v-1q-4 -19 -4 -30q13 12 14 19l1 1
q10 -10 31 -17q11 -8 20 -17v-1q-31 -13 -72 -13q-81 0 -165 44q-22 12 -50 39q-30 33 -30 66q2 49 2 66v2q0 5 7 20l5 13v0q-18 -13 -44 -44q-60 -73 -101 -139q-88 -140 -148 -271q-34 -72 -56 -132q-15 -105 -28 -133q-4 -41 -10 -62q-4 -23 -4 -40v-5q0 -36 27 -48
q15 -6 38 -6q35 0 104 13q28 21 45 25v0h-10h-24v1q55 11 168 95q109 88 117 88q39 16 42 16v0q-44 11 -56 21q-11 10 -17 34q-4 21 -4 71q-2 24 -5 24q0 20 261 53h3q22 0 57 -35q27 -32 27 -63v-3q0 -13 -4 -15q-17 -17 -26 -41q-7 -24 -7 -29q1 -7 6 -7h1q11 0 14 10
q2 18 5 24q5 10 12 21q14 -7 14 -12v-1q0 -2 -11 -17q-24 -47 -53 -116q-30 -106 -94 -376q-54 -224 -68 -293q-12 -93 -26 -108l-3 -2q-15 3 -17 5q7 35 19 104q6 23 18 48q6 13 14 50q3 10 6 47q34 130 34 137l-3 3v0q-6 0 -14 -31q-29 -91 -37 -113q-4 -10 -14 -25v-3
q2 -11 2 -19v0q0 -18 -12 -75q-11 -35 -24 -60q-4 -5 -4 -7t6 -14q2 -4 2 -9q-4 -28 -5 -28q-22 9 -67 38q-12 16 -19 31q-7 19 -7 26q0 59 24 199q30 176 69 369h-1q-144 -75 -249 -117q-160 -64 -265 -64q-139 0 -187 111q-9 21 -16 53l-7 37v0l-2 -1q-4 16 -4 43
q0 44 9 117q34 122 74 215q75 185 169 347q45 77 105 162q35 50 95 117q141 150 250 150h8q26 0 57 -12v0q25 29 49 49q34 31 43 31zM111 592v-1q0 -4 3 -6q12 6 12 22q8 20 31 82q46 116 121 238q35 57 89 130q35 53 89 115q56 59 77 75q15 12 45 42q0 1 17 19q5 5 5 11
q0 9 -6 10q-8 0 -17 -12q-31 -32 -64 -60q-19 -17 -62 -61q-37 -39 -54 -65q-21 -33 -33 -48q-42 -53 -75 -105q-20 -37 -66 -110q-43 -75 -68 -139q-26 -69 -32 -87q-4 -18 -7 -34q-5 -10 -5 -16zM805 1122v-4q15 17 28 48q11 27 26 79q4 7 4 12h-6q-10 -2 -25 -34
q-8 -17 -15 -44q-12 -30 -12 -57zM800 1069v-8q7 8 7 18l-1 8q-6 -6 -6 -18zM777 983v-1q0 -9 4 -16q14 12 14 30v2q0 6 -2 15h-1q-15 -13 -15 -30zM749 995q-4 -3 -4 -9h1q4 3 4 7v1q0 1 -1 1zM234 779v0q27 27 31 52h-1q-18 -10 -26 -35q-3 -7 -4 -17zM223 751v0
q10 8 10 20v2v1v0q-10 -9 -10 -23zM204 713v0q10 11 10 22q-10 -11 -10 -22zM187 677v-1v0q6 12 7 20q-7 -12 -7 -19zM100 577l-1 -3v0h1v2v1zM95 564q-9 -18 -9 -23v0h1q8 18 8 23v0zM59 462v-4v0q17 23 24 68q0 2 1 9q-25 -39 -25 -73zM951 431v-2q0 -2 7 -3q14 0 18 11
q1 1 1 3q0 4 -4 4q-10 0 -21 -13h-1zM39 424q0 -3 3 -5q5 0 7 5q2 7 2 10v0q0 5 -4 5q-5 0 -5 -5zM695 295l5 -1h1q25 0 47 13q3 15 3 18q-16 -8 -38 -16q-11 -6 -18 -14z" />
    <glyph glyph-name="h" unicode="h" horiz-adv-x="1050" 
d="M945 1415q23 0 63 -42q42 -51 52 -94q3 -12 3 -24q0 -10 -15 -82q-58 -278 -83 -420q-48 -268 -71 -369q-33 -128 -92 -417q-12 -69 -27 -110q-20 -52 -39 -52q-15 1 -40 21q-15 15 -44 47q-21 20 -43 28q-20 10 -22 17q-6 12 -6 35q0 32 76 364q33 143 53 261q1 7 6 33
v0q-211 -23 -271 -31q-57 -11 -73 -11h-17q-25 0 -60 3q-12 -79 -28 -133q-18 -60 -31 -116q-12 -63 -18 -87q-10 -29 -23 -51q-39 -61 -86 -61h-1q-29 0 -58 24q-31 19 -56 19q-10 3 -10 7q-5 8 -5 42q0 51 43 190q21 67 30 119q23 109 67 286q5 10 8 33q14 56 31 128h1
l-11 -157q0 -10 3 -16q-17 -64 -45 -164q-16 -65 -35 -147q-11 -42 -11 -56q0 -15 15 -25q19 10 19 45q0 60 29 131q17 52 31 136q18 87 41 174q31 129 54 262q2 17 2 33q0 37 -13 75v0l-7 -58h-1q-7 13 -7 27v4q0 19 17 63q4 15 8 44q2 10 3 10q23 -10 37 -10q0 -1 43 -1
q13 0 30 -8q15 -8 23 -36q15 -53 15 -86q0 -27 -19 -123q-21 -119 -54 -323l116 21q111 8 184 18q53 8 79 18q3 2 23 8q-10 -7 -18 -14q-4 -4 -5 -13v0q3 -10 10 -10q15 3 36 18q17 14 17 19v1q0 4 -9 6l-1 2q6 1 6 5q35 168 40 189q16 16 16 21q32 137 34 151q0 5 2 17v1
h-1l-26 -71h-1q27 134 27 197q0 6 -2 34q0 21 20 27q0 2 72 4zM228 1193h1q-13 -90 -35 -202h-1v19q0 57 17 105q6 22 6 38q0 5 -3 21q0 5 15 19zM937 1074q-8 -56 -16 -171q-6 -42 -19 -73q-11 -48 -11 -81q0 -3 1 -32q-21 -119 -27 -171v-2q3 -5 5 -5q7 0 11 27
q24 107 29 136q6 24 15 40q5 7 5 10v3q-6 18 -6 36q4 63 7 84q9 40 20 66q6 11 6 14v1q0 4 -6 11q-6 10 -6 20q0 4 1 35q-2 46 -4 46q-4 6 -5 6zM657 794q2 -6 6 -6h2q9 1 9 9q0 7 -7 7q-10 0 -10 -10zM596 780q7 -1 12 -1h3q18 0 33 13q-8 2 -14 2h-2q-19 0 -32 -14z
M498 761v-1h3h20q15 0 36 3q1 -3 6 -3q3 0 5 6q12 4 24 14q-8 1 -19 1q-37 0 -75 -20zM594 781v-1h1v1h-1zM325 740v-1q18 -3 36 -3h3q22 0 63 7q44 2 50 8q3 0 16 8h-16q-72 0 -152 -19zM292 735v0q7 -1 9 -1q10 0 16 5q-5 2 -10 2h-1q-6 0 -14 -6zM319 739v-1q1 1 3 1v0
h-3zM791 388v-1q3 -3 4 -3q5 3 5 11q0 2 -2 6q-7 0 -7 -7v-6zM818 351v-13q0 -9 -12 -34q-6 -12 -9 -47q-4 -19 -11 -31q1 -10 1 -14v-3q0 -12 -8 -34q-8 -30 -25 -130q-19 -89 -38 -164v-4q1 -9 8 -9q13 0 20 56q20 107 43 192q23 91 23 107q5 24 12 39q9 31 19 90
q5 24 5 27v10q0 9 -5 9h-2q-6 0 -10 -11q-11 -20 -11 -36zM12 312q0 -7 10 -15v-2q-8 -32 -8 -59q0 -10 -5 -36v-2q0 -12 6 -16l4 -1q11 0 19 30q9 28 9 55q0 11 12 50q8 16 8 42q0 33 -13 33q-15 0 -22 -45q-3 -12 -13 -22q-6 -7 -7 -12zM57 357q5 0 6 -7q0 -4 -6 -5h-2
q-6 2 -6 7q0 4 8 5z" />
    <glyph glyph-name="i" unicode="i" horiz-adv-x="467" 
d="M468 1569q25 0 33 -6q-40 -29 -65 -42q-44 -22 -68 -41q-29 -26 -38 -41q-14 -19 -27 -41q-20 -20 -25 -37q0 -3 -8 -15q-1 -2 -1 -3q1 -2 4 -5q14 2 14 7q0 7 12 17q4 5 16 26q13 23 50 63q43 40 66 53q40 25 83 43h1q0 -2 10 -7q15 -12 18 -23q6 -8 10 -92q1 -20 1 -32
q0 -19 -26 -44q-26 -27 -50 -33q-85 -37 -115 -110q-14 -38 -14 -73q-1 -28 -16 -33l-5 -1q-25 0 -78 59q-9 3 -31 27q-18 22 -18 60v2q0 76 60 178q17 25 40 54q81 90 167 90zM209 1030q17 0 104 -28q15 -6 43 -6q12 -3 18 -11q6 -11 6 -27q0 -14 -9 -56q-6 -77 -23 -190
q-4 -31 -6 -31q-2 -4 -2 -5h-2q-8 6 -8 13q3 9 16 87q0 2 1 9v1h-1q-18 -75 -18 -107v-5q2 -24 2 -27q0 -26 -20 -85q-6 -21 -38 -202q-5 -31 -5 -92q-2 -36 -2 -68q0 -60 15 -72q4 -8 4 -13v-1q0 -16 -26 -18h-4q-14 0 -28 4q-17 48 -17 90v27q0 23 -10 48v4q0 8 8 21
q20 36 20 73q0 16 -6 44q-3 14 -3 38v14q0 16 -11 19h-3q-12 0 -15 -33q-14 -73 -14 -105q0 -17 -8 -120v-8q0 -65 27 -95l6 -9v-1q-19 4 -79 14q-40 10 -55 27q-15 19 -15 41q-3 20 -3 66v11q0 89 6 177q11 72 24 128q6 31 6 61q0 22 -3 45q13 71 16 76q9 16 19 53
q8 29 17 100l12 68q25 56 64 56zM294 810q0 -27 10 -27h2q12 0 18 39q4 11 12 19q6 7 6 11q0 5 -8 13v2q7 30 7 53q0 6 5 30v1q-2 14 -7 14h-2v0q-10 0 -18 -31q-7 -22 -7 -44q-6 -30 -12 -46q-6 -12 -6 -34z" />
    <glyph glyph-name="j" unicode="j" horiz-adv-x="648" 
d="M616 1454h12q1 0 1 -1q-36 -110 -71 -266q-3 -16 -10 -75q-5 -23 -11 -30q-6 -8 -8 -8q-20 3 -21 5q4 23 13 87q4 17 13 35q7 8 14 36q5 19 5 33q-1 5 -1 10v7q0 2 23 90q6 22 7 31l-4 3h-1q-6 0 -10 -16l-36 -103q-5 -11 -18 -26v-2q6 -13 6 -23q-4 -42 -10 -61t-16 -37
l-9 -15q0 -1 -1 -1q0 -2 9 -12q3 -5 3 -10q-2 -18 -3 -23q-27 9 -88 33q-40 32 -40 58q-9 54 -9 83v1q0 47 15 122q15 31 63 48q36 12 51 12q100 15 132 15zM412 1063q23 -1 58 -30q31 -29 38 -41q37 -51 37 -86v-5l1 -1q-7 -30 -19 -78q-58 -233 -98 -463
q-24 -149 -42 -295q-10 -58 -22 -93q-33 -91 -101 -143q-75 -59 -180 -59q-95 0 -191 47q-24 12 -52 35q-30 26 -30 46q0 17 19 21q51 11 62 20q11 12 19 12h1q4 0 29 -15q42 -21 89 -21h2q39 0 56 32q9 15 25 53q2 2 4 2q3 0 17 -6q0 -1 3 -1h1q6 0 6 11q1 27 7 27
q5 3 8 16q0 2 5 15q0 8 14 23q46 184 95 624q16 135 23 191q2 0 2 3q10 58 10 94l-1 34q0 21 21 27q9 3 62 3q10 1 22 1zM244 -66q2 -9 3 -9q22 0 42 16q13 13 20 38q29 72 54 183q15 59 26 148q3 33 4 33h1q4 20 23 146q9 43 9 77q1 12 6 39q22 149 48 240q2 7 2 13
q0 12 -7 12t-15 -15q-4 -8 -12 -52q-16 -72 -24 -107q-5 -22 -9 -63q0 -27 -15 -73q-15 -56 -15 -136q0 -31 -9 -59q-16 -53 -23 -118q0 -13 -17 -81q0 -38 -33 -119q-20 -63 -35 -76q0 -1 -24 -37z" />
    <glyph glyph-name="k" unicode="k" horiz-adv-x="1067" 
d="M1052 1438q16 0 24 -23q8 -19 22 -34q27 -23 27 -40v-3q0 -41 -112 -165q-42 -49 -140 -157q-123 -133 -309 -334v0q67 -118 109 -185q33 -52 80 -105q116 -128 268 -128h10q1 0 1 -2q-4 -29 -14 -53q-38 -74 -138 -74h-2q-84 0 -185 52q-29 16 -63 44q-46 44 -58 60
q-63 74 -111 146q-20 29 -22 35q0 13 -25 43q-7 15 -9 18l-2 1h-2q-8 -9 -10 -9q-7 0 -13 -9q-13 -12 -15 -12q-1 0 -8 2h-1q-4 0 -12 -10q-17 -10 -27 -41q0 -2 -12 -2q-20 -6 -31 -19q-21 -22 -33 -54q-6 -18 -12 -54l-7 -22h1l4 1v-1q-12 -25 -12 -27q-13 -48 -13 -56
l-1 -14v-8q-5 -25 -5 -69q-9 -60 -9 -99v-13q0 -18 3 -52q-1 -20 -3 -35h-1v2h-1q0 -1 -12 -20h-1l1 3v4q0 15 -8 32v4v2q0 2 7 5q2 0 3 40q5 52 7 153q3 41 9 81q6 33 12 54q-1 0 -4 -6h-1q14 48 16 55q-11 -12 -16 -32l-20 -127q-10 -61 -19 -170q-1 -14 -1 -18
q0 -13 3 -27q-3 -46 -4 -46q-6 -10 -6 -25v-2q0 -9 5 -15v-2l-1 -2q13 -19 45 -53v-1q-116 29 -149 55q-48 40 -48 169q0 193 113 618q75 279 101 380q14 55 19 101q19 126 42 217q18 31 70 48q17 5 32 5h3q47 0 69 -44q13 -32 13 -88v-17q0 -114 -37 -293q-15 -66 -30 -99
q-12 -31 -18 -55v0l48 5q93 101 209 236q89 103 191 210q81 80 105 98q39 32 66 49q38 23 55 23zM418 1298v-3l2 -41v-1q0 -20 -13 -57q-2 -8 -2 -15v-19q-3 0 -12 -36q-3 -22 -8 -40q-4 -13 -8 -21v-3l1 -2v-14q0 -33 -12 -77q-9 -40 -22 -75q-7 -14 -7 -20v-10
q0 -10 -12 -77q-1 -7 -1 -12l2 -2h1q6 2 6 8q10 37 28 96q8 32 8 48q11 63 23 93q14 45 24 104q12 83 17 83q0 -1 1 -2h1l6 76q-5 34 -11 34q-2 1 -4 1h-1q-6 0 -7 -16zM837 1054q1 0 1 -2q-9 -19 -9 -31v-3q51 55 118 132v0q-23 0 -40 -24q-70 -67 -70 -72zM575 760v-1
q1 -5 5 -5h1q7 1 40 39q18 24 90 103l86 99q13 13 21 23v0q-16 -2 -36 -19q-32 -30 -56 -49q-25 -23 -30 -35q-16 -25 -54 -66q-28 -28 -50 -57q-17 -24 -17 -32zM308 723q0 -4 4 -4h2q6 1 6 9q1 7 2 17q-7 0 -14 -20v-2zM294 660q-17 -28 -17 -48v-2q0 -15 3 -18
q14 27 14 40q1 6 1 16q-1 11 -1 12zM265 565v-5l1 -5q13 7 13 25v7h-1q-13 -11 -13 -22zM977 1211v-2q1 -2 3 -2q19 3 68 65q15 18 43 55v0q-13 -6 -35 -29q-27 -33 -46 -52l-27 -21q-6 -8 -6 -14zM942 1158h1q28 25 32 45h-1q-32 -25 -32 -45z" />
    <glyph glyph-name="l" unicode="l" horiz-adv-x="958" 
d="M386 1505q124 0 124 -196q0 -181 -111 -567q-71 -244 -98 -350q-8 -33 -14 -64h1q64 28 165 52q44 10 122 22q79 16 253 54q72 14 107 14q10 0 23 -3h4q42 -1 54 -26q2 -6 2 -13q0 -25 -34 -60q-36 -38 -38 -48q-1 -3 -2 -3h-30q-53 0 -94 -25q22 -4 40 -4h11q29 0 68 6
h1q0 -18 -171 -52q-251 -52 -373 -98q-69 -28 -123 -47q2 -11 2 -21q0 -40 -27 -62q-11 -7 -22 -7q-13 0 -36 18q-12 8 -34 27q-63 -10 -120 -53q-32 -30 -39 -42q-16 -21 -26 -41q-6 -13 -9 -14h-1q-8 2 -12 107v19q0 65 12 79q6 16 24 36q39 41 95 41v4q0 22 10 37
q8 20 8 24v1q-1 2 -3 3h-1q-5 -5 -8 -5t-4 18q-1 0 -6 43q19 9 19 25v0q0 151 37 299q25 100 52 181q52 164 81 264q31 114 31 131q19 126 19 194v7q0 23 -11 37q-1 5 -25 26q-4 4 -4 7q0 7 67 19q24 6 44 6zM434 1422q0 -10 7 -46v-10q0 -16 -6 -49v-8q4 -39 4 -53
q0 -31 -8 -98q0 -26 -11 -50v-1q0 -2 2 -4q1 -16 1 -26q0 -31 -18 -103q-8 -30 -17 -56v-16q0 -5 -8 -75q-1 -5 -1 -11q1 -2 3 -4q6 4 6 13q8 39 20 84q7 30 11 74q5 32 17 74q20 65 20 137q5 67 5 117v13q-3 83 -5 83q-3 29 -17 29q-4 0 -5 -14zM238 327v-7q0 -15 5 -28v0
q6 7 12 21q7 17 10 52q22 109 40 160q13 37 32 117q28 87 35 114q-17 -17 -24 -36q-10 -41 -36 -106q-30 -79 -57 -197q-13 -50 -13 -56q-4 -28 -4 -34zM315 711q-18 -36 -18 -62v-6h1q17 35 17 46q1 3 1 8v5q0 3 -1 9zM729 253q15 0 47 13q14 6 36 22l2 2v1q-10 1 -19 1
q-39 0 -66 -39z" />
    <glyph glyph-name="m" unicode="m" horiz-adv-x="1175" 
d="M466 1318h3q15 -2 15 -8q49 -193 87 -328q23 -80 52 -170h1q0 5 27 43q23 26 40 38q25 23 30 34q3 8 16 19q7 20 18 40q15 35 16 36v-1q-6 -28 -6 -36v-3v0q7 9 22 51q3 9 15 35q7 22 17 58q36 78 56 114q9 15 24 28q12 8 31 14q82 16 121 16h13q55 0 63 -33q1 -6 3 -37
q4 -9 4 -13q0 -6 -16 -27q-7 -12 -7 -19q1 -3 10 -15q12 -18 12 -47q6 -12 6 -14v-3l-6 -37q-2 -11 -2 -24v-21q-4 -62 -7 -91q-6 -54 -6 -89q0 -4 2 -58q-16 -22 -20 -57q0 -21 -13 -56q-7 -13 -7 -23v-1q0 -8 7 -14q0 -54 -11 -259q-4 -104 -7 -104q-13 -14 -28 -20h-1
q10 101 10 213q0 15 -1 61v4q4 0 9 59q1 13 1 20q0 6 -1 9q1 7 1 15v27q-1 30 -7 30v0q-10 0 -13 -9q-4 -44 -10 -74t-10 -30h-1l-1 1v-1q4 -46 4 -60v0q0 -12 -10 -51q-4 -18 -4 -33q0 -14 6 -31v0q0 -6 -16 -25q-4 -7 -4 -10v-2q13 -19 13 -38q0 -21 -15 -70
q-3 -15 -5 -49q-1 -2 -9 -8q-64 -62 -87 -62h-4q-9 0 -12 10q-7 18 -7 67q5 168 5 183q13 411 16 411l2 20q-39 -72 -90 -141q-30 -40 -72 -91q-24 -29 -38 -53q-36 -59 -95 -88q-16 -11 -61 -54q-12 -10 -20 -10h-1q-13 0 -34 45q-22 45 -44 108q-22 86 -64 317
q-7 43 -8 48h-1q-6 0 -22 -72q-20 -98 -56 -283q-15 -72 -34 -122q-35 -118 -57 -145q-13 -18 -50 -28q-56 -22 -79 -42q-7 -6 -20 -19q-8 -7 -13 -7h-4q-19 0 -32 36q-5 16 -5 35q0 23 14 67q27 108 75 384q55 314 102 435q20 50 39 76q12 13 20 18q11 32 37 46
q18 11 58 16q64 3 73 8q48 21 58 21zM769 915q2 -8 9 -8h2q5 0 19 36q12 29 55 104q30 58 71 142q-24 -28 -38 -51q-24 -39 -81 -141q-30 -48 -30 -56q-7 -17 -7 -26zM759 907q1 -4 2 -4q4 0 4 6v1q0 2 -3 2t-3 -5zM731 859q-5 -14 -5 -18h3h3h8v1q-6 9 -9 17zM686 622
q0 -7 7 -10l3 -1q20 13 48 41q34 41 41 75v2q-3 4 -7 7h-1q-37 -37 -49 -58q-19 -28 -29 -41zM618 550q1 -10 7 -10h1q14 0 29 37v0q-19 -3 -28 -13q-9 -8 -9 -14zM173 268q-1 -3 7 -3q6 8 19 52q25 42 56 242l11 33q5 19 6 26q0 9 -7 9q-8 0 -10 -12q-12 -41 -12 -58
q-24 -158 -48 -204q-9 -31 -19 -64q-3 -19 -3 -21z" />
    <glyph glyph-name="n" unicode="n" horiz-adv-x="1034" 
d="M130 1367h1q27 -1 27 -4t15 -14q0 -4 21 -7q17 -7 38 -24q20 -10 70 -32q0 -1 4 -1q11 2 12 2q12 0 27 -48q10 -27 18 -31q18 -9 18 -13q44 -87 92 -223q12 -34 37 -82q65 -128 125 -251v-6q0 -3 7 -27q0 -9 11 -28l12 -29l16 -12h4q67 320 113 523q25 102 45 210
q7 29 15 43q14 22 40 22q28 0 74 -22q5 -5 17 -22l5 -4q-3 -17 -9 -69q-10 -56 -24 -96q-7 -16 -11 -40q-3 -22 -3 -27v-1l1 1q1 -1 1 -2q-21 -123 -21 -164q-1 0 -4 -47q5 -38 11 -38q0 -2 6 -2q7 0 8 22q-3 41 -3 48v3q0 22 13 64q3 11 3 20q-1 36 -1 44q3 22 13 69
q1 23 16 64l-1 5v22q0 4 -1 5h-1h-1l15 64q9 35 14 45q5 3 7 3h3q11 0 17 -25v-1q-22 -109 -59 -344q-66 -402 -99 -591q-42 -244 -73 -377q-8 -33 -17 -51q-21 0 -83 17q-46 10 -65 20q-50 27 -50 94v12q0 16 8 108l1 26q0 64 -29 107q-65 116 -200 372q-44 81 -90 171h-1
q0 -18 -13 -59q-12 -29 -12 -48q-34 -343 -50 -461q-6 -54 -14 -88q-6 -24 -13 -34q-5 -8 -14 -8q-37 4 -120 69q-32 26 -32 37q-10 36 -10 97v8q0 119 45 401q31 190 52 360q9 96 9 152v17v42v1q0 40 16 62zM553 694q6 -25 20 -38q10 -10 17 -10q3 -1 5 -1q7 4 7 10v1
q-8 27 -34 45q-5 4 -6 4h-2q-5 0 -6 -8q0 -1 -1 -3zM164 344q0 -2 1 -10v-16q0 -25 10 -46h1q12 27 12 47q0 6 -1 31q7 96 9 96q15 76 15 105q9 47 15 90q-11 -13 -16 -28q-4 -9 -9 -50q-6 -26 -22 -96q-6 -31 -15 -123zM598 610q0 -11 8 -11h3q6 2 6 6v2q-1 8 -8 8h-1
q-8 0 -8 -5zM620 556v-1q2 -8 7 -8q6 4 6 8v1q-1 7 -6 7v0q-7 0 -7 -7zM642 507q0 -6 3 -6q8 0 9 6q0 6 -6 6h-1q-5 0 -5 -6zM761 -75q0 -5 10 -5q8 10 23 71q15 65 31 170l13 45q6 27 6 36q0 13 -10 13t-12 -17q-14 -57 -14 -80q-7 -45 -22 -118q-9 -42 -22 -87
q-3 -26 -3 -28z" />
    <glyph glyph-name="o" unicode="o" horiz-adv-x="829" 
d="M444 1155q106 0 207 -76q20 -4 41 -20q13 -10 25 -25q15 -22 23 -39q14 -27 27 -82q17 -79 17 -161v-22q0 -131 -35 -257q-16 -48 -36 -85q-18 -32 -46 -68q-34 -39 -64 -62q-100 -77 -204 -77q-128 0 -225 114q-111 60 -152 174q-24 64 -24 134v10q0 120 62 252
q20 40 46 79q22 33 64 79q42 41 64 56q36 26 61 37q77 39 149 39zM219 1006v-1v-1v0q23 8 23 13q0 3 1 5q-1 6 -2 10q-13 -3 -17 -10q-5 -7 -5 -16zM226 595q0 -161 106 -263q19 -16 29 -23q47 14 77 51q32 38 87 177q12 30 25 98q10 48 20 153q11 138 11 239h-11
q-78 0 -138 -33q-20 -12 -42 -29q-40 -37 -50 -51q-24 -30 -43 -62q-22 -37 -40 -88q-31 -87 -31 -169zM199 982l1 -5q3 1 5 3l-3 4h-2zM45 705h3q16 0 16 23q1 16 6 27q21 60 49 105q13 21 40 51q25 28 39 63q-2 1 -6 1h-2q-8 0 -15 -12q-38 -40 -60 -72q-28 -39 -34 -62
l-16 -27q-20 -41 -20 -97zM42 683q-7 -17 -7 -36q0 -23 5 -23q4 -2 5 -2h1q3 0 3 6q4 20 4 35v3q0 16 -7 16zM727 605v-16q0 -10 -22 -75q-13 -32 -29 -61q-11 -16 -31 -41q-16 -24 -24 -46q-4 -12 -4 -13h5q12 0 17 12q58 71 76 116l9 26q0 2 9 21q12 31 12 65q0 16 -2 31
q-16 0 -16 -19zM618 507q4 -15 8 -15h1q1 3 3 15q1 0 1 2v0q-2 -1 -13 -2zM610 347q1 -2 3 -3h3v2l-1 4q-2 0 -5 -3zM573 306v-1q1 -11 3 -11q13 4 18 12q3 8 3 14v2q-22 -9 -23 -13zM520 248v-3q0 -1 8 -6q24 10 34 32q1 0 1 1q-7 8 -11 8q-30 -21 -32 -32z" />
    <glyph glyph-name="p" unicode="p" horiz-adv-x="885" 
d="M350 1376q12 0 94 -12q111 -14 185 -32q85 -22 138 -48q143 -70 143 -193q0 -62 -35 -136q-22 -41 -58 -90q-34 -46 -90 -106q-60 -64 -97 -97l-30 -26v0q34 41 38 43q36 30 48 48q7 12 33 43q21 29 34 58q13 14 28 54q11 33 24 56q8 14 16 42q4 15 4 19v1h-1q-4 0 -8 1
q-3 0 -4 -4q-4 -17 -7 -30q-40 -82 -107 -195q-7 -13 -13 -13q-25 -11 -38 -34q-15 -20 -36 -41q-18 -16 -27 -20q-17 -13 -23 -36q-1 -11 -2 -11q-21 -7 -29 -23q-3 -5 -3 -6q0 -2 4 -9q-60 -45 -108 -74q-7 5 -9 5h-1q-5 0 -23 -23q-7 -8 -52 -22q-71 -23 -107 -23v0
q-13 0 -24 4h-3q-2 0 -2 -11q0 -2 -9 -12v-2l1 -8q0 -2 -8 -30q-18 -43 -18 -65q-9 -6 -9 -31q0 -6 -10 -33q-5 -23 -9 -72q0 -1 -1 -7q1 -9 1 -12q0 -9 -6 -39v-1h1q15 64 15 74v5q4 41 12 67q9 25 10 26v0q2 -8 2 -11t-1 -15q0 -3 6 -8v0q-29 -149 -29 -215q0 -19 8 -54
q3 -19 3 -31v-4q0 -23 -14 -37q-3 -6 -17 -6h-3q-32 0 -74 24q-13 7 -32 27q-42 47 -42 116v9q0 157 93 552q98 409 98 416q7 32 17 86q5 18 10 65l2 41h1q6 -17 11 -23v0v5q0 12 25 75q4 13 12 35l1 4q0 2 -6 9q0 1 -5 12v0q18 3 26 3h4q12 0 12 -6v0q-8 -25 -13 -66
q-14 -68 -71 -286q-54 -207 -72 -286q-5 -27 -5 -30q0 -4 10 -5q8 7 25 62q59 207 122 506q10 55 20 73q9 21 22 33q12 11 32 11zM382 1169v0q4 -17 4 -76q0 -36 -67 -299q-23 -88 -44 -162q76 52 142 102q251 192 251 299v4q0 68 -109 104q-32 10 -91 19q-32 5 -86 9z
M858 1125q6 -44 6 -46v0q4 16 4 25q0 7 -9 19q0 2 -1 2zM859 1059q0 -2 3 -2t3 3q0 6 -2 12q-2 0 -4 -13zM850 1000q0 -3 -1 -5v0v0l2 4v1h-1zM815 907q7 0 22 36q8 21 8 42q-4 -4 -13 -34q-9 -23 -17 -44zM765 829v-1l2 -1h1v2h-1h-2zM128 667q-12 -27 -12 -43
q-2 -8 -2 -25q2 -1 3 -1v0q0 2 9 37q3 11 3 25v7h-1zM573 613v0l-7 -6v0v1q0 4 7 5zM134 122v-1v0v1zM134 120v-1v0v1z" />
    <glyph glyph-name="q" unicode="q" horiz-adv-x="1022" 
d="M563 1322q107 0 207 -76q31 -8 50 -28q21 -21 33 -43q50 -98 50 -268q0 -153 -40 -282q-16 -45 -36 -80q-18 -31 -49 -68q-20 -22 -39 -39h1q132 27 177 27q13 0 29 -3q25 0 46 -14q14 -12 14 -30v-1q0 -27 -38 -68q-29 -8 -66 -12q-4 0 -44 -6q-49 -4 -94 -4h-10
q-2 0 -30 -9q-24 -6 -91 -17q-23 -5 -23 -6q-2 -3 -2 -4q6 -4 7 -4q76 7 84 7q68 3 98 9q12 2 29 7q85 15 119 15h2l2 1v-1q-14 -18 -14 -31q1 -3 1 -4v0v-1v-2q0 -18 -158 -45q-161 -31 -257 -56q-91 -26 -137 -46q-49 -19 -186 -69q-93 -36 -137 -59q-16 -9 -16 -16
q-12 -45 -19 -45h-1q-13 0 -25 108q-1 8 -1 25v5q-1 2 -1 11q0 63 160 168q78 48 157 78q33 14 85 29h1v0q-15 7 -46 28q-18 13 -48 44q-15 18 -19 18q-103 58 -146 166q-25 66 -25 144v0q0 159 96 318q22 34 58 77q36 39 58 57q40 32 69 48q86 47 165 47zM338 1172v-1
q23 8 23 14q1 2 1 4q0 1 -1 10v0q-23 -4 -23 -27zM346 761q0 -138 80 -235q21 -23 36 -35q11 -10 19 -15q47 15 74 48q31 33 86 173q14 33 26 91q10 45 19 131q14 152 14 264v11h-9q-103 0 -169 -53q-36 -24 -76 -77q-25 -35 -38 -60q-62 -119 -62 -243zM319 1151v-3v-1v-3
q5 1 5 3q-2 4 -4 4h-1zM165 872h3q10 0 13 10l5 29q26 75 56 120q12 21 42 53q16 21 27 43l6 14q-3 1 -7 1q-9 0 -16 -12q-49 -53 -64 -77q-24 -36 -30 -57l-16 -30q-19 -41 -19 -94zM162 850q-7 -18 -7 -37q0 -22 4 -22q3 -2 6 -2h1q3 0 3 7q3 20 3 32v1q0 1 1 2q-1 0 -1 1
v3q0 14 -8 14zM846 777v-24q-17 -68 -37 -106q-12 -25 -32 -52q-20 -23 -30 -46q-11 -26 -11 -29h5q12 0 17 13q57 69 74 111q5 11 9 28q18 35 20 51q4 17 4 37q0 14 -3 31q-13 0 -16 -12v-2zM737 674v0q5 -14 7 -14q1 -1 2 -1q2 0 3 13q1 0 2 4zM730 514l2 -3h2q1 0 1 1v1
q0 4 -1 4q-3 -1 -4 -3zM693 472q0 -4 1 -11q8 0 18 10q4 8 4 14v4q-23 -10 -23 -14v-3zM671 447q-16 -11 -27 -23q-3 -4 -3 -5h1q33 6 33 7q6 8 8 13q-9 8 -12 8zM81 33h1q99 49 147 66q24 9 55 16v0q-5 8 -14 8q-27 -4 -49 -9q-25 -7 -42 -16q-41 -26 -45 -26
q-33 -14 -42 -24q-8 -8 -11 -15z" />
    <glyph glyph-name="r" unicode="r" horiz-adv-x="942" 
d="M820 1273q25 -16 55 -45q33 -33 46 -57q16 -25 25 -54q5 -13 5 -16q-6 -4 -6 -8q3 -9 3 -15q0 -9 -9 -39q-7 -15 -7 -27q0 -8 9 -30q1 -5 1 -8q0 -8 -16 -42q-17 -44 -24 -56q-3 -7 -12 -10q-9 -8 -17 -24q-30 -41 -49 -83q-8 -17 -56 -71h1q26 23 56 49h1v0
q-50 -67 -135 -160q-73 -77 -124 -123l-44 -40q85 -45 215 -104q99 -46 138 -73q7 -6 21 -21q20 -15 27 -37l1 -8q0 -39 -78 -56v0q-28 11 -56 26l-59 33q-32 19 -71 48q-4 4 -27 10q-24 10 -87 41q-19 9 -21 9h-1q-1 0 -4 -2q2 -8 7 -11q48 -27 103 -63q42 -26 95 -47
q36 -17 69 -37q12 -8 22 -15l-13 -5q-16 -7 -21 -20q-3 -4 -6 -4h-3q-10 0 -60 30q-61 36 -141 65q-52 18 -125 35q-124 36 -207 57h-1q-9 -5 -21 -15q-2 0 -7 -20q-32 -107 -32 -131v-1q0 -9 10 -58q4 -25 4 -39q0 -27 -14 -40q-5 -9 -17 -9h-4q-28 0 -67 15q-22 10 -40 24
q-58 47 -58 125q0 51 20 164q28 145 74 311q27 97 100 334q31 110 54 211q0 1 1 6h-1q-33 -11 -55 -11q-50 0 -65 53q0 4 -17 32q-4 10 -4 16v2q0 5 4 7q85 52 139 63q32 8 72 8q30 3 41 7q8 4 9 5q-11 1 -28 1h-13q-23 0 -45 -7l-52 -10q-26 -6 -50 -17q-4 -2 -23 -7
q-17 -6 -44 -21q0 -1 -1 -1h-1l-1 1q4 7 16 15q21 14 44 26q45 23 104 35q56 11 232 8.5t316 -74.5zM275 1201q0 -5 4 -5v0q3 0 3 4q-1 4 -1 5h-5q-1 -1 -1 -4zM455 1150l1 -3v-7q0 -5 -10 -36q-3 -8 -5 -38q-5 -31 -7 -34q-22 -16 -28 -37q-3 -14 -13 -39q-3 -8 -8 -32
q-27 -96 -27 -121v-5q0 -7 3 -7q6 0 26 57q11 30 18 53h1q-64 -253 -116 -423q50 34 112 86q35 28 97 90q71 73 97 109q121 153 121 256q0 106 -262 131zM917 1115v0q8 -45 8 -46v0q2 12 3 22q0 10 -9 21zM61 344q0 -3 10 -5q8 9 13 23q31 89 86 318q37 130 75 302
q6 16 16 40q9 29 9 40v1q-1 12 -9 12h-2q-8 0 -11 -16q0 -2 -11 -34l-13 -62q-106 -387 -153 -577q-4 -13 -10 -42zM921 1050q1 -3 3 -3q3 1 3 2v2q0 4 -2 12q-2 0 -4 -11v-2zM648 608q-10 -4 -18 -10q-11 -10 -13 -19q3 -13 9 -13h1q7 0 9 4q13 13 16 25q3 7 6 7
q16 6 32 30q1 0 30 36q37 32 44 45q14 21 37 51q12 19 23 42q0 4 10 20q9 13 20 48q11 37 26 66q11 37 11 50h-1q-2 0 -9 2q-3 0 -4 -13q-2 -4 -4 -22q-17 -40 -57 -120q-32 -63 -46 -86q-26 -9 -40 -34q-9 -15 -37 -44q-14 -14 -24 -19q-21 -19 -21 -46zM916 990
q0 -2 -2 -5v0h1l2 5h-1zM914 984v-1v0v1zM911 975q-4 -6 -10 -30q-4 -15 -15 -47v0q4 0 8 10q17 29 17 56v11zM405 903h1v-1h-1v1zM841 819q0 -2 1 -2h1v2v1zM70 316q-15 -29 -15 -49l-1 -19q2 -1 2 -2q1 0 3 10q12 33 12 58v2h-1zM290 287q-11 -12 -17 -14v0q45 -10 68 -19
q3 0 39 -15v1q0 13 -12 17q-32 17 -62 26q-8 3 -16 4z" />
    <glyph glyph-name="s" unicode="s" horiz-adv-x="841" 
d="M750 1458q81 -5 81 -8q16 -5 26 -20q17 -24 17 -71q0 -32 -7 -66q-31 -73 -50 -126q-27 -81 -53 -183q-3 -33 -8 -45q-13 -22 -33 -22q-2 0 -10 2q-3 -1 -4 -1v0l24 141v1v0q-15 -45 -36 -139l-1 -1q-35 0 -48 29q-7 10 -15 19q-8 17 -8 67q0 69 12 172
q-95 -62 -173 -123q-62 -47 -161 -139l-4 1h-4q-3 0 -5 -4v0l1 -8q-28 -26 -65 -63q41 -40 60 -51q39 -22 69 -44q30 -21 73 -56q64 -53 70 -59q9 -18 40 -54q7 -7 33 -41q14 -15 28 -43q1 0 9 -15h1v0q-29 61 -29 62q25 -34 38 -61q38 -77 38 -149v-15h-1q-1 4 -5 10
q0 -4 -10 -14q-3 0 -8 -29q-3 -10 -3 -33q-4 -37 -9 -50q-2 -11 -2 -29q-2 -10 -16 -26q-3 -10 -34 -47l3 -3v0q-42 -39 -75 -62q-83 -61 -117 -67q-20 -4 -28 -4l-4 12q-10 -5 -17 -6l-2 -4q9 -2 17 -2v-1q-3 0 -38 -19q-8 -6 -72 -23q-37 -8 -60 -8h-3q-12 0 -23 3
q-19 -3 -33 -3h-2q-69 0 -113 102q-10 29 -18 61q-9 44 -9 62h1q33 -22 80 -22q81 0 189 59q31 17 69 45q53 44 94 83q0 1 12 14q34 38 45 70q7 18 7 39q-1 9 -1 13q-20 35 -27 44q-28 24 -57 40q-17 10 -123 72q-49 30 -85 58q-73 57 -81 96l-3 19q-31 27 -39 42
q-15 23 -15 54q0 89 21 128q14 35 62 88q23 25 39 37q73 56 154 104q116 72 216 119q38 17 71 28q27 8 54 8q17 0 37 -3q3 19 10 34q8 15 22 20q12 4 24 4zM474 1305q1 -7 6 -7q46 20 56 32l1 1v0q-4 4 -5 4q-34 -10 -58 -30zM449 1294l7 3v2q0 1 -2 1v0q-4 0 -5 -6z
M134 1041q12 0 23 11q2 2 19 25q64 63 102 92q47 37 81 58q29 15 78 57l8 8h-4q-14 0 -30 -14q-75 -44 -149 -101q-15 -14 -29 -27q-22 -17 -39 -33q-31 -30 -45 -50q-16 -24 -16 -26h1zM722 938v0q15 1 15 2t3 12l-2 1q-2 0 -15 -13zM385 687q28 -23 51 -27v0
q-10 17 -34 24q-12 3 -17 3zM439 658v0q0 -9 11 -16q46 -44 53 -56q27 -32 45 -63q18 -34 24 -39q4 -4 13 -6q0 9 -7 22q-22 43 -63 92q-41 46 -57 56q-6 4 -19 10zM444 83q0 -7 7 -9q3 -2 5 -2q37 18 76 47q53 43 70 87q-4 4 -9 8h-1q-27 -29 -81 -83q-16 -17 -39 -29
q-16 -10 -27 -18z" />
    <glyph glyph-name="t" unicode="t" horiz-adv-x="813" 
d="M687 1662h15q29 0 38 -16q3 -7 3 -20q0 -9 -1 -22v0q183 31 286 31q175 0 291 -69q28 -19 44 -81q11 -46 11 -67q0 -6 -21 -7q-31 0 -100 26q-33 10 -66 10q-41 0 -156 -23q-57 -10 -149 -21q-119 -11 -172 -17v0q8 0 8 -2v0q-11 -2 -11 -3q-63 -319 -128 -570
q-20 -88 -42 -203q-2 0 -2 -4q-25 -126 -40 -237q-3 -31 -11 -88q-24 -175 -24 -231v-11q0 -47 11 -242v-17q0 -10 -2 -10h-17q-4 0 -8 6q-8 5 -11 5v3q0 10 13 28q4 8 4 12v4q0 8 -21 21l1 1q-2 10 -2 21v1q0 1 -1 2l1 3v3q0 21 11 50v3q0 4 -6 20q-6 22 -6 50v10
q0 51 10 83q2 5 7 10q5 10 5 19q0 7 -7 28q-4 16 -4 27v7q0 15 9 48q4 19 6 71q5 43 13 82q10 44 27 153q7 42 7 55q0 7 -8 7q-10 -2 -10 -9q-10 -25 -19 -65q-5 -18 -7 -51q-9 -67 -26 -160q-11 -59 -19 -142q-19 -102 -19 -177q0 -28 3 -50l-1 -2v-62q0 -51 3 -102h-1h-1
q-10 3 -32 17q-41 29 -52 59q-30 72 -30 239q0 146 22 317q12 79 34 189q1 0 1 6l-1 1q69 355 164 731q-171 -44 -312 -96q-105 -38 -122 -38q-36 0 -61 31q-17 23 -17 44q-2 26 -35 73q-2 2 -2 5v2q0 24 154 71q96 31 168 60q98 34 248 68v1v1q0 16 -3 57q49 19 99 33
q45 10 69 10zM405 1491v0q25 4 25 10q-2 8 -7 8q-6 0 -18 -18zM56 1360v0q10 -4 20 -4q19 0 47 11q105 33 185 73q47 22 91 49h-5q-36 0 -74 -20q-14 -7 -70 -25q-76 -26 -176 -67q-4 -2 -18 -17zM27 1354v-1q0 -2 5 -2q9 0 19 8q0 1 -12 3h-3q-9 -1 -9 -8zM583 972
q-13 -25 -13 -47v-4v-4h1q15 32 15 49v2q0 2 -3 4zM568 911q-24 -39 -24 -82v-6v-5h1q24 36 24 89v4h-1zM531 776q-9 -18 -9 -35q1 -8 1 -12q10 16 10 31v6q0 4 -1 10h-1zM514 699q-16 -31 -16 -58v-11h1q16 33 16 65q-1 2 -1 4z" />
    <glyph glyph-name="u" unicode="u" horiz-adv-x="1057" 
d="M915 1230q55 0 109 -21q19 -5 27 -14q9 -11 9 -25q1 0 1 -4v-6q0 -55 -95 -474q-25 -108 -33 -136q-57 -193 -94 -366q-17 -84 -17 -136v-4q0 -56 18 -107q1 -6 1 -8q0 -7 -12 -8q-11 -1 -19 -1q-62 0 -112 48q-16 20 -22 50q-15 62 -15 164q0 101 13 161l24 130
q-81 -94 -196 -220q-104 -115 -113 -131q-25 -28 -47 -44q-88 -69 -135 -69q-17 0 -28 14q-2 0 -77 40q-44 19 -55 32q-18 17 -26 31q-18 34 -18 68q0 39 64 334q68 300 121 451q9 21 25 43q22 29 50 38q13 3 29 3q27 0 46 -16l14 -6q-9 -13 -18 -39q-3 -12 -12 -46
q-10 -26 -17 -51q-5 -27 -13 -87q-6 -31 -15 -60q-9 -26 -9 -31v-1q0 -6 1 -20q19 8 39 65q12 33 25 100q9 55 22 167l1 2q11 0 20 -16q9 -20 9 -61q0 -80 -26 -175q-63 -234 -93 -350q-43 -177 -43 -223q23 5 61 28q12 9 40 37l26 30q39 50 77 107q81 119 181 289
q87 148 113 189q20 24 83 184q48 119 73 144q6 7 23 7h15zM1079 1183v0q9 -11 9 -25q0 -10 -10 -45q-23 -128 -63 -309q-2 -7 -2 -9h-1v20q0 45 14 104q9 45 22 89l15 46q0 40 8 75q6 36 8 54zM895 610v-6v-7q1 -20 10 -20h2q7 5 7 36v12q0 24 16 65q3 9 7 46q7 37 18 76
q8 23 14 51q5 19 12 33v2v1q0 24 11 70l16 51q10 29 22 57l3 25l14 58q-16 -19 -16 -25q-21 -53 -30 -93q0 -14 -24 -87q-16 -40 -33 -109q-8 -38 -30 -127q-10 -42 -14 -77zM1005 767h1v-1h-1v1zM1005 765h1q-8 -32 -8 -34h-1q3 14 8 34zM393 185h1q46 39 76 65
q49 48 58 62q90 106 101 127q30 45 53 98q-7 -9 -81 -113q-30 -43 -106 -128q-18 -20 -50 -53q-40 -41 -52 -58zM383 172q-12 -10 -12 -14v-1q1 -6 5 -6t8 18v2q0 1 -1 1z" />
    <glyph glyph-name="v" unicode="v" horiz-adv-x="896" 
d="M66 1283h2q21 0 77 -26q8 -4 25 -10v-1q-2 -24 -2 -49v-49v-115q0 -59 -6 -95q-4 -22 -4 -47v-2q0 -51 19 -272q0 -59 30 -129h1v9t-9 72q-11 102 -11 198q5 210 5 325q0 16 6 142q1 5 1 6q8 -3 16 -22q9 -33 9 -48q4 -34 4 -126q3 -15 3 -62q-3 -431 -3 -508
q0 -107 3 -107l2 -2q18 35 40 69l2 1q3 -5 9 -5q12 1 25 10q14 13 16 21q4 13 4 18q0 17 -9 23q-2 2 -2 3v0q0 8 27 28q6 7 6 12v2q0 2 -5 12q88 175 223 458q24 51 35 68q34 65 58 108q17 29 42 57q13 12 20 12h2q23 -4 34 -4q56 4 72 4h5q47 0 60 -34q3 -10 3 -15
q-14 -32 -17 -34q-32 -40 -42 -67q-37 -73 -89 -161l-69 -131q-26 -46 -26 -52q1 -4 1 -7v-3q0 -19 -29 -87q-5 -9 -62 -121h-1q-1 0 -4 2q0 -1 -3 -5q0 -3 3 -6q-100 -195 -134 -270q-58 -140 -91 -179q-40 -51 -88 -51q-40 0 -91 37q-16 10 -35 17q-21 6 -70 19
q-26 9 -39 23q-5 6 -7 287q-1 170 -1 269q0 403 4 562q25 28 55 28zM863 1200q-21 -25 -23 -37q-1 -3 -3 -12q28 32 28 47zM786 1062q23 21 27 31q10 16 17 37q2 6 4 16q-21 -19 -26 -30q-8 -11 -16 -33q-3 -8 -6 -21zM744 983q20 20 20 43q-14 -14 -18 -28q-2 -12 -2 -15z
M695 895q17 19 25 39q3 5 8 23q-20 -21 -28 -42q-5 -17 -5 -20zM656 866q-185 -373 -189 -382l14 -7q76 138 136 272l50 113v0q-9 4 -11 4zM571 592q-2 -4 -2 -5q1 -3 2 -3h2q2 2 2 4v2l-2 2h-2z" />
    <glyph glyph-name="w" unicode="w" horiz-adv-x="1439" 
d="M1301 1343q18 -3 32 -3h5q56 3 63 3h15q41 0 56 -32q4 -11 4 -16q-15 -35 -21 -39q-33 -46 -41 -68q-30 -59 -96 -172q-30 -54 -58 -112q-39 -65 -68 -131q-14 -34 -27 -80q-1 -1 -22 -56q-2 -2 -64 -124v0q-2 0 -4 1q-3 -4 -3 -5t3 -5q-95 -185 -133 -268
q-32 -82 -43 -93q-14 -20 -47 -28q-28 -8 -145 -18q-95 -13 -125 -13q-43 0 -55 17q-5 7 -8 357v11v0q-78 -153 -104 -214q-32 -78 -43 -87q-14 -21 -57 -32q-39 -9 -150 -20q-67 -10 -99 -10q-51 0 -64 20q-8 64 -8 538v33q0 418 4 547q27 26 53 26h5q21 0 88 -31l13 -5
q-2 -21 -2 -46v-123v-30q0 -75 -6 -102q-4 -25 -4 -50v-10q0 -47 19 -265q0 -60 27 -125q3 -7 3 -8h1v14q0 3 -10 80q-10 96 -10 187q3 157 4 224q0 133 6 212q1 26 1 35h1q8 -2 15 -21q14 -34 14 -174q3 -18 3 -74q-3 -378 -3 -476v-38q0 -89 3 -89l2 -2q21 41 41 70
q6 -7 11 -7v0q3 0 5 9q32 92 69 156q16 26 31 42q6 7 25 23q6 7 6 13q0 2 -5 13q77 150 167 359q12 27 22 44q38 75 71 128q32 46 49 46h1q23 -3 34 -3q55 3 71 3h8q43 0 57 -32q3 -5 4 -15q-14 -34 -19 -39q-23 -29 -34 -49q-32 -68 -86 -160q-4 -5 -8 -13q-3 -285 -3 -409
v-55q0 -147 6 -147l1 -3h1q5 10 51 70q67 90 67 112v0q0 3 -5 13q97 192 271 548q35 71 45 89q5 6 21 37q73 147 105 147zM1412 1233q24 27 26 40q1 1 2 6l-2 3q-23 -26 -24 -39zM1361 1144v0q22 20 30 37q11 19 17 42v5q-22 -22 -29 -36q-14 -25 -17 -45q-1 0 -1 -3z
M824 1139v0v0q28 32 28 46q0 1 -1 3h-1q-20 -22 -23 -36q-1 -4 -3 -13zM773 1050q21 19 27 31q11 18 18 43q1 2 3 10q-21 -19 -29 -34q-15 -26 -19 -50zM1318 1064q20 20 20 44q-12 -12 -18 -34q-2 -7 -2 -10zM1269 976q24 25 33 62q-20 -21 -26 -40q-7 -17 -7 -22z
M742 1003v-19q9 16 9 30h-1q-8 -9 -8 -11zM703 931q-18 -25 -21 -48q17 20 21 32v16zM702 867q-10 -21 -30 -58v0q3 -40 17 -230q1 -164 4 -191q3 -44 8 -52l11 -27v0q0 5 1 10q0 4 -7 59q-8 95 -8 247q0 93 5 242v0h-1zM1081 551q0 -4 3 -4q3 1 3 4q0 4 -3 4h-1q-1 0 -2 -4
zM334 189v-1q0 -10 9 -10h3q10 0 18 33q24 64 53 114q13 21 89 160q-37 -43 -68 -91q-60 -95 -98 -182q-6 -19 -6 -23z" />
    <glyph glyph-name="x" unicode="x" horiz-adv-x="1041" 
d="M919 1340q1 0 14 -7q55 -16 83 -34q34 -25 34 -57q0 -34 -40 -83q-22 -31 -54 -69q-6 -7 -65 -65q-23 -25 -56 -62v1l141 184q0 2 3 9q-1 4 -3 4q-7 -3 -11 -11q-20 -24 -29 -34q-52 -55 -85 -100q-73 -99 -107 -143q-18 -24 -41 -49q-25 -25 -29 -39q-13 -28 -13 -38
q17 20 23 29q16 20 29 27q6 3 13 18q13 22 49 61q12 13 30 29v0v-4q1 0 6 -5h2v0q-73 -85 -162 -185q-2 -1 -15 -8q-1 -3 -1 -4q3 -18 28 -47q2 -2 4 -2v1v3h1q20 -32 20 -38q5 -18 15 -38q21 -39 21 -40v-1q-1 -1 -2 -1q8 -7 24 -20q15 -25 15 -28q6 -25 11 -29
q11 -12 21 -18q2 -3 18 -28q41 -60 41 -63q0 -11 -5 -33v-1q0 -7 12 -23q12 -22 16 -26q0 -1 16 -16q50 -51 55 -51l2 -1q2 0 9 1q13 -1 18 -1q7 0 15 3q11 -8 11 -15q0 -13 -29 -23q-12 -6 -59 -6q-31 -2 -68 -8q-53 -11 -55 -11q-40 0 -137 97q0 1 -13 14q-41 46 -58 76
q-20 31 -47 82q-23 42 -46 83q-8 -2 -26 -18q-3 -2 -6 -2v0q-2 0 -3 7l-1 1h-1q-10 0 -19 -13q-84 -93 -175 -197q-101 -108 -121 -139q-28 -41 -28 -79q0 -19 10 -48v-3q0 -5 -10 -6h-4q-20 0 -50 20q-35 35 -44 40l-4 3q21 34 21 43q6 24 20 51q9 20 24 35q3 2 3 4
q-19 -11 -36 -46q-8 -18 -22 -51l-2 -1l-3 4q-2 0 -12 -30q-1 0 -2 -3q-26 12 -51 30q-9 7 -9 18v2q0 27 19 63q50 103 254 367q80 101 145 181v1q-141 252 -184 352q-5 10 -16 47q-11 27 -34 82q-9 24 -9 38q0 24 27 35q10 3 25 3h6q20 0 43 -10q14 -3 27 -3q27 0 57 9h2
q18 -3 51 -56q12 -23 21 -45q61 -113 144 -258v0q113 133 223 255q38 42 100 103q60 57 80 57zM345 1165v-1q16 -50 33 -85q14 -30 37 -65q11 -17 27 -48q20 -26 49 -38q-13 20 -19 27q-12 15 -19 41q-1 3 -9 11q-17 20 -26 35q-14 20 -39 73q-12 25 -34 50zM834 962h1v0h-1
zM845 962q1 0 8 -8q-3 -3 -8 -14q-12 -13 -22 -20q0 -1 -3 -3h-1v5q0 20 20 33zM624 674q7 -39 27 -69q22 -28 38 -63q24 -45 49 -82q23 -34 64 -86v-1q2 -5 8 -22q3 -8 14 -20v-1v0l9 3l-1 4v1l4 -4l-6 10v0v0q1 -3 1 -4v0q-13 14 -28 33v1v0q5 -1 13 -6q-169 287 -182 309
q-6 -1 -10 -3zM399 486q1 0 7 -8q14 8 20 12q9 7 9 25v0q-4 -2 -18 -10q-9 -7 -16 -17q-1 0 -2 -2zM352 431q13 5 13 7q-2 2 -4 3q-5 0 -6 -5zM148 179v0h1q16 21 24 35q17 21 30 28q10 7 10 12q10 22 31 50q8 10 26 30q51 51 54 58q13 15 24 36v0q-18 -12 -47 -36
q-46 -40 -72 -74q-21 -28 -49 -60q-18 -17 -27 -52q-3 -13 -5 -27zM818 365v-1q7 -9 9 -14v0v1q-6 12 -9 14z" />
    <glyph glyph-name="y" unicode="y" horiz-adv-x="931" 
d="M837 1522v0q13 0 75 -32q21 -10 46 -16q14 0 20 -11q1 -6 1 -8q0 -22 -38 -95q-6 -15 -13 -33q-23 -49 -89 -175q-5 -11 -6 -11h-2h-1q2 11 2 21q-1 8 -2 8q-19 -16 -20 -19q-8 -14 -12 -20q-1 -4 -2 -13q-8 -19 -8 -22q-43 -69 -44 -80v-4q9 -8 9 -9q-1 -3 -25 -37
q-17 -30 -19 -37q0 -4 -12 -23q-24 -45 -27 -71q-107 -199 -137 -262q-92 -195 -167 -372q-77 -186 -77 -231v-2q0 -5 6 -23q2 -12 2 -18q0 -22 -20 -22q-43 0 -135 87q-19 19 -21 26q-10 18 -10 44q0 47 31 121q42 114 103 261q62 151 108 256v0q-16 -3 -28 -4h-6h-6
q-14 2 -29 4q-25 6 -40 11q-15 6 -15 9q0 1 20 3q2 0 6 -1q-14 8 -20 14q3 3 3 6q0 6 -22 23q-4 4 -14 12q-24 45 -26 58q-7 27 -13 37h-3q-6 0 -12 16v1v14q0 19 -24 37q-88 192 -154 360q-30 79 -30 99q32 51 67 51q18 -1 20 -1q3 0 10 6q16 6 30 6h6q43 0 69 -52
q28 -51 57 -110v0q-10 3 -15 10q-4 8 -29 41q-8 13 -8 15h-1v-1q22 -62 41 -85q11 -15 19 -18q9 -5 9 -16q0 -4 17 -27q0 -20 12 -41q3 -11 17 -22q14 -19 22 -36q27 -41 27 -70q0 -3 -1 -11q0 -12 31 -52q19 -26 25 -41q11 -17 23 -47q18 -40 25 -40q1 -2 11 -6q3 0 7 18
q40 85 72 134q17 28 75 136q82 148 156 265q77 117 103 117zM903 1359v-1h1q26 34 26 49q-1 2 -2 2q-22 -26 -24 -45zM118 1388v0q12 -44 32 -61v0q-7 27 -13 39q-3 7 -19 22zM856 1265q10 10 15 17q14 19 23 46q3 10 7 25q-19 -19 -28 -37q-9 -17 -15 -38q-1 -8 -2 -13z
M153 1320v-5q0 -29 16 -56q16 -35 36 -87q29 -71 67 -140q46 -87 48 -88q6 -8 15 -22q18 -23 33 -29v0q-4 19 -8 28q-7 17 -20 34q-24 34 -59 103q-14 27 -43 92q-35 62 -66 133l-18 38q-1 0 -1 -1zM816 1181q19 21 19 46q-19 -23 -19 -46zM279 46v0h1q8 16 19 52
q47 139 108 255q58 115 129 264q119 242 237 477q27 50 31 60q2 6 2 10v1q0 12 -12 12q-7 0 -20 -27q-28 -50 -58 -118q-149 -312 -280 -567q-36 -61 -36 -65q-42 -98 -93 -235q-8 -16 -18 -50q-9 -40 -9 -66q-1 0 -1 -3z" />
    <glyph glyph-name="z" unicode="z" horiz-adv-x="961" 
d="M738 1296q11 0 26 -4q4 1 5 1h4q10 0 70 -49q36 -27 59 -36q10 -6 10 -17v-1q0 -22 -42 -82q-8 -15 -16 -32q-25 -41 -99 -150q-6 -8 -8 -10q-2 1 -2 2q3 14 3 22q-1 6 -2 6t-13 -8q-4 0 -10 -9q-12 -12 -12 -20q0 -3 -10 -23q0 -3 -29 -36q-21 -28 -21 -37v0q0 -2 8 -11
v-1q0 -2 -23 -26q-25 -32 -25 -37l-27 -39q-15 -29 -17 -42q-59 -83 -83 -124q-65 -106 -127 -218v0q40 11 113 23q77 9 129 9q64 4 118 10q90 12 128 12q28 0 47 -7q19 -2 38 -14q16 -12 16 -26v-3q0 -30 -49 -70q-40 -6 -77 -6l-5 1q-3 -1 -7 -1h-12q-9 0 -18 5
q-12 3 -25 4h-3q-2 0 -29 -6q-17 -2 -66 -6q-9 -3 -18 -5q-4 -2 -4 -4h1v-1q-16 0 -53 -8q-78 -11 -118 -19q-51 -8 -78 -16q-17 -8 -56 -20q-64 -21 -64 -33q0 -5 15 -9h2q13 0 19 10q0 6 4 6h1q14 -3 16 -3q5 0 7 13q15 7 29 7h7q1 0 14 9q34 14 54 14q2 0 8 -2h4
q4 0 15 9q13 7 32 7q12 2 44 10l94 12q25 5 25 7t1 2h1h28q45 -3 53 -4q0 3 78 6q11 1 31 1h5q11 0 22 -1v-1q-18 -18 -18 -31q0 -11 -12 -15q-23 -10 -173 -24q-148 -17 -232 -38q-70 -20 -138 -37q-40 -10 -47 -12q6 -21 6 -32q0 -21 -14 -21q-20 0 -60 36
q-103 -27 -153 -48q-22 -9 -39 -46q-2 -4 -4 -4q-4 4 -9 28q-2 13 -2 22q0 10 5 37q0 18 5 51q0 46 94 104q-1 11 -1 14q0 46 27 90l242 456l65 120q38 57 96 137v0q-124 -16 -193 -16q-119 0 -176 40q-18 18 -23 30q-9 18 -14 38q-13 48 -13 80h1q24 -12 73 -12
q102 0 333 55q124 29 199 58q23 9 39 9zM858 1158l-9 -9q5 -7 5 -9q6 8 6 14zM778 1033q31 18 47 67l3 8h-1q-33 -21 -47 -67q-2 -7 -2 -8zM535 1072v-1h14h5q1 0 16 20h-1q-27 -16 -34 -19zM504 1061q2 -7 6 -7v0q7 0 19 16q-25 -2 -25 -9zM733 961q10 7 15 16q7 14 7 24
q-15 -13 -20 -28zM299 298h1q21 7 22 8q0 1 21 38q26 44 78 123q31 51 137 220q91 144 156 240q8 11 8 21q-2 15 -11 15h-2q-6 -1 -21 -23q-33 -46 -47 -73q-110 -182 -196 -315q-17 -27 -34 -46q-24 -33 -46 -77q-34 -64 -66 -131z" />
    <glyph glyph-name="braceleft" unicode="{" 
 />
    <glyph glyph-name="bar" unicode="|" 
 />
    <glyph glyph-name="braceright" unicode="}" 
 />
    <glyph glyph-name="asciitilde" unicode="~" 
 />
    <glyph glyph-name="exclamdown" unicode="&#xa1;" 
 />
    <glyph glyph-name="cent" unicode="&#xa2;" 
 />
    <glyph glyph-name="sterling" unicode="&#xa3;" 
 />
    <glyph glyph-name="currency" unicode="&#xa4;" 
 />
    <glyph glyph-name="yen" unicode="&#xa5;" 
 />
    <glyph glyph-name="brokenbar" unicode="&#xa6;" 
 />
    <glyph glyph-name="section" unicode="&#xa7;" 
 />
    <glyph glyph-name="dieresis" unicode="&#xa8;" 
 />
    <glyph glyph-name="copyright" unicode="&#xa9;" 
 />
    <glyph glyph-name="guillemotleft" unicode="&#xab;" 
 />
    <glyph glyph-name="registered" unicode="&#xae;" 
 />
    <glyph glyph-name="macron" unicode="&#xaf;" 
 />
    <glyph glyph-name="degree" unicode="&#xb0;" 
 />
    <glyph glyph-name="plusminus" unicode="&#xb1;" 
 />
    <glyph glyph-name="acute" unicode="&#xb4;" 
 />
    <glyph glyph-name="periodcentered" unicode="&#xb7;" 
 />
    <glyph glyph-name="periodcentered" unicode="&#x2219;" 
 />
    <glyph glyph-name="cedilla" unicode="&#xb8;" 
 />
    <glyph glyph-name="guillemotright" unicode="&#xbb;" 
 />
    <glyph glyph-name="questiondown" unicode="&#xbf;" 
 />
    <glyph glyph-name="Agrave" unicode="&#xc0;" 
 />
    <glyph glyph-name="Aacute" unicode="&#xc1;" 
 />
    <glyph glyph-name="Acircumflex" unicode="&#xc2;" 
 />
    <glyph glyph-name="Atilde" unicode="&#xc3;" 
 />
    <glyph glyph-name="Adieresis" unicode="&#xc4;" 
 />
    <glyph glyph-name="Aring" unicode="&#xc5;" 
 />
    <glyph glyph-name="AE" unicode="&#xc6;" 
 />
    <glyph glyph-name="Ccedilla" unicode="&#xc7;" 
 />
    <glyph glyph-name="Egrave" unicode="&#xc8;" 
 />
    <glyph glyph-name="Eacute" unicode="&#xc9;" 
 />
    <glyph glyph-name="Ecircumflex" unicode="&#xca;" 
 />
    <glyph glyph-name="Edieresis" unicode="&#xcb;" 
 />
    <glyph glyph-name="Igrave" unicode="&#xcc;" 
 />
    <glyph glyph-name="Iacute" unicode="&#xcd;" 
 />
    <glyph glyph-name="Icircumflex" unicode="&#xce;" 
 />
    <glyph glyph-name="Idieresis" unicode="&#xcf;" 
 />
    <glyph glyph-name="Eth" unicode="&#xd0;" 
 />
    <glyph glyph-name="Ntilde" unicode="&#xd1;" 
 />
    <glyph glyph-name="Ograve" unicode="&#xd2;" 
 />
    <glyph glyph-name="Oacute" unicode="&#xd3;" 
 />
    <glyph glyph-name="Ocircumflex" unicode="&#xd4;" 
 />
    <glyph glyph-name="Otilde" unicode="&#xd5;" 
 />
    <glyph glyph-name="Odieresis" unicode="&#xd6;" 
 />
    <glyph glyph-name="multiply" unicode="&#xd7;" 
 />
    <glyph glyph-name="Oslash" unicode="&#xd8;" 
 />
    <glyph glyph-name="Ugrave" unicode="&#xd9;" 
 />
    <glyph glyph-name="Uacute" unicode="&#xda;" 
 />
    <glyph glyph-name="Ucircumflex" unicode="&#xdb;" 
 />
    <glyph glyph-name="Udieresis" unicode="&#xdc;" 
 />
    <glyph glyph-name="Yacute" unicode="&#xdd;" 
 />
    <glyph glyph-name="Thorn" unicode="&#xde;" 
 />
    <glyph glyph-name="germandbls" unicode="&#xdf;" 
 />
    <glyph glyph-name="agrave" unicode="&#xe0;" 
 />
    <glyph glyph-name="aacute" unicode="&#xe1;" 
 />
    <glyph glyph-name="acircumflex" unicode="&#xe2;" 
 />
    <glyph glyph-name="atilde" unicode="&#xe3;" 
 />
    <glyph glyph-name="adieresis" unicode="&#xe4;" 
 />
    <glyph glyph-name="aring" unicode="&#xe5;" 
 />
    <glyph glyph-name="ae" unicode="&#xe6;" 
 />
    <glyph glyph-name="ccedilla" unicode="&#xe7;" 
 />
    <glyph glyph-name="egrave" unicode="&#xe8;" 
 />
    <glyph glyph-name="eacute" unicode="&#xe9;" 
 />
    <glyph glyph-name="ecircumflex" unicode="&#xea;" 
 />
    <glyph glyph-name="edieresis" unicode="&#xeb;" 
 />
    <glyph glyph-name="igrave" unicode="&#xec;" 
 />
    <glyph glyph-name="iacute" unicode="&#xed;" 
 />
    <glyph glyph-name="idieresis" unicode="&#xef;" 
 />
    <glyph glyph-name="eth" unicode="&#xf0;" 
 />
    <glyph glyph-name="ntilde" unicode="&#xf1;" 
 />
    <glyph glyph-name="ograve" unicode="&#xf2;" 
 />
    <glyph glyph-name="oacute" unicode="&#xf3;" 
 />
    <glyph glyph-name="ocircumflex" unicode="&#xf4;" 
 />
    <glyph glyph-name="otilde" unicode="&#xf5;" 
 />
    <glyph glyph-name="odieresis" unicode="&#xf6;" 
 />
    <glyph glyph-name="divide" unicode="&#xf7;" 
 />
    <glyph glyph-name="oslash" unicode="&#xf8;" 
 />
    <glyph glyph-name="ugrave" unicode="&#xf9;" 
 />
    <glyph glyph-name="uacute" unicode="&#xfa;" 
 />
    <glyph glyph-name="ucircumflex" unicode="&#xfb;" 
 />
    <glyph glyph-name="udieresis" unicode="&#xfc;" 
 />
    <glyph glyph-name="yacute" unicode="&#xfd;" 
 />
    <glyph glyph-name="thorn" unicode="&#xfe;" 
 />
    <glyph glyph-name="ydieresis" unicode="&#xff;" 
 />
    <glyph glyph-name="Amacron" unicode="&#x100;" 
 />
    <glyph glyph-name="amacron" unicode="&#x101;" 
 />
    <glyph glyph-name="Abreve" unicode="&#x102;" 
 />
    <glyph glyph-name="abreve" unicode="&#x103;" 
 />
    <glyph glyph-name="Aogonek" unicode="&#x104;" 
 />
    <glyph glyph-name="aogonek" unicode="&#x105;" 
 />
    <glyph glyph-name="Cacute" unicode="&#x106;" 
 />
    <glyph glyph-name="cacute" unicode="&#x107;" 
 />
    <glyph glyph-name="Ccircumflex" unicode="&#x108;" 
 />
    <glyph glyph-name="ccircumflex" unicode="&#x109;" 
 />
    <glyph glyph-name="Ccaron" unicode="&#x10c;" 
 />
    <glyph glyph-name="ccaron" unicode="&#x10d;" 
 />
    <glyph glyph-name="Emacron" unicode="&#x112;" 
 />
    <glyph glyph-name="emacron" unicode="&#x113;" 
 />
    <glyph glyph-name="Ecaron" unicode="&#x11a;" 
 />
    <glyph glyph-name="ecaron" unicode="&#x11b;" 
 />
    <glyph glyph-name="Imacron" unicode="&#x12a;" 
 />
    <glyph glyph-name="imacron" unicode="&#x12b;" 
 />
    <glyph glyph-name="dotlessi" unicode="&#x131;" 
 />
    <glyph glyph-name="OE" unicode="&#x152;" 
 />
    <glyph glyph-name="oe" unicode="&#x153;" 
 />
    <glyph glyph-name="Racute" unicode="&#x154;" 
 />
    <glyph glyph-name="racute" unicode="&#x155;" 
 />
    <glyph glyph-name="Rcaron" unicode="&#x158;" 
 />
    <glyph glyph-name="rcaron" unicode="&#x159;" 
 />
    <glyph glyph-name="Sacute" unicode="&#x15a;" 
 />
    <glyph glyph-name="sacute" unicode="&#x15b;" 
 />
    <glyph glyph-name="Scircumflex" unicode="&#x15c;" 
 />
    <glyph glyph-name="scircumflex" unicode="&#x15d;" 
 />
    <glyph glyph-name="Scedilla" unicode="&#x15e;" 
 />
    <glyph glyph-name="scedilla" unicode="&#x15f;" 
 />
    <glyph glyph-name="Scaron" unicode="&#x160;" 
 />
    <glyph glyph-name="scaron" unicode="&#x161;" 
 />
    <glyph glyph-name="Uogonek" unicode="&#x172;" 
 />
    <glyph glyph-name="uogonek" unicode="&#x173;" 
 />
    <glyph glyph-name="Wcircumflex" unicode="&#x174;" 
 />
    <glyph glyph-name="wcircumflex" unicode="&#x175;" 
 />
    <glyph glyph-name="Ycircumflex" unicode="&#x176;" 
 />
    <glyph glyph-name="ycircumflex" unicode="&#x177;" 
 />
    <glyph glyph-name="Ydieresis" unicode="&#x178;" 
 />
    <glyph glyph-name="Zacute" unicode="&#x179;" 
 />
    <glyph glyph-name="zacute" unicode="&#x17a;" 
 />
    <glyph glyph-name="Zcaron" unicode="&#x17d;" 
 />
    <glyph glyph-name="zcaron" unicode="&#x17e;" 
 />
    <glyph glyph-name="circumflex" unicode="&#x2c6;" 
 />
    <glyph glyph-name="caron" unicode="&#x2c7;" 
 />
    <glyph glyph-name="breve" unicode="&#x2d8;" 
 />
    <glyph glyph-name="dotaccent" unicode="&#x2d9;" 
 />
    <glyph glyph-name="ring" unicode="&#x2da;" 
 />
    <glyph glyph-name="ogonek" unicode="&#x2db;" 
 />
    <glyph glyph-name="tilde" unicode="&#x2dc;" 
 />
    <glyph glyph-name="hungarumlaut" unicode="&#x2dd;" 
 />
    <glyph glyph-name="endash" unicode="&#x2013;" 
 />
    <glyph glyph-name="emdash" unicode="&#x2014;" 
 />
    <glyph glyph-name="quoteleft" unicode="&#x2018;" 
 />
    <glyph glyph-name="quoteright" unicode="&#x2019;" 
 />
    <glyph glyph-name="quotesinglbase" unicode="&#x201a;" 
 />
    <glyph glyph-name="quotedblleft" unicode="&#x201c;" 
 />
    <glyph glyph-name="quotedblright" unicode="&#x201d;" 
 />
    <glyph glyph-name="quotedblbase" unicode="&#x201e;" 
 />
    <glyph glyph-name="bullet" unicode="&#x2022;" 
 />
    <glyph glyph-name="ellipsis" unicode="&#x2026;" 
 />
    <glyph glyph-name="guilsinglleft" unicode="&#x2039;" 
 />
    <glyph glyph-name="guilsinglright" unicode="&#x203a;" 
 />
    <glyph glyph-name="fraction" unicode="&#x2044;" 
 />
    <glyph glyph-name="fraction" unicode="&#x2215;" 
 />
    <glyph glyph-name="lira" unicode="&#x20a4;" 
 />
    <glyph glyph-name="peseta" unicode="&#x20a7;" 
 />
    <glyph glyph-name="Euro" unicode="&#x20ac;" 
 />
    <glyph glyph-name="uni2116" unicode="&#x2116;" 
 />
    <glyph glyph-name="trademark" unicode="&#x2122;" 
 />
    <glyph glyph-name="approxequal" unicode="&#x2248;" 
 />
    <glyph glyph-name="lessequal" unicode="&#x2264;" 
 />
    <glyph glyph-name="greaterequal" unicode="&#x2265;" 
 />
    <glyph glyph-name="Name_Priview" unicode="&#xe000;" horiz-adv-x="6310" 
d="M3616 1745h26q32 -5 32 -26v-32q179 30 284 30h22q157 0 278 -71q35 -37 45 -103q6 -27 6 -42h-2q-85 25 -129 25q-45 0 -421 -47q0 -3 -3 -3q-105 -6 -105 -10q0 -1 -11 -5q-65 -332 -140 -622l-55 -278q-52 -363 -52 -443q3 -95 9 -216h2q710 0 1286 -110
q120 -29 232 -49v-1q-71 -43 -110 -51v-3q56 -35 56 -52q0 -6 -18 -25v-8q3 -16 32 -46v-1q-176 -20 -193 -20q0 13 -57 21q-19 7 -45 7v-1q1 -3 1 -6q-3 -3 -15 -4q-94 5 -94 18q-61 47 -83 47q-175 37 -245 37q-25 0 -76 -8v-2q59 0 197 -24q38 -10 75 -25q8 -6 8 -7h-2
q-377 33 -494 66q-299 53 -357 53h-4q-16 0 -68 -21q-15 0 -25 -15q7 0 7 -10v-1q-20 2 -44 2q-12 0 -72 -4q-17 7 -22 13l1 2q-10 8 -18 25q-37 -13 -66 -22q-71 13 -95 13q-24 -13 -32 -13q-27 0 -96 25v1q2 2 5 2v3h-5l-3 -2l1 -3q0 -3 -67 -9l-217 -29q-382 -9 -382 -21
q-51 -11 -192 -21q-84 -12 -123 -12h-18q-36 0 -138 25h-20q-33 0 -71 -24v-1h2q85 -4 111 -4l3 -4q0 -5 -94 -18q-74 -11 -141 -11q-61 0 -61 8q2 0 2 1q18 -2 40 -2h31q68 0 97 27h1v3q-48 5 -77 5q-18 0 -208 -13h-17q-57 0 -119 16v2q7 2 129 19q69 12 98 22v1h-18
q-11 0 -28 6q-4 -3 -8 -3h-1q-20 0 -25 20l4 2h1q10 0 31 -15h1q8 25 17 25v1h-7q-17 0 -73 -5q-13 0 -23 9q297 82 1043 167q171 16 360 25q-25 78 -25 207v39q0 225 57 493l-2 3q82 405 164 730l-2 1q-206 -54 -374 -117q-46 -15 -62 -15q-43 0 -69 51q-9 53 -38 94
q-5 1 -5 12q4 19 105 55q74 21 254 87q82 26 212 57v5q0 35 -3 53q114 45 180 45q47 0 47 -26v-25q0 -7 -2 -20q166 26 206 30v14q0 21 -3 33q111 44 169 44zM3182 1589q3 -1 4 -1q2 0 17 5v6q0 2 -4 4q-9 0 -17 -14zM2557 1390l17 -3q29 0 99 36q226 90 487 159h3v1
q-23 2 -35 2q-21 0 -88 -24q-275 -77 -432 -140q-43 -17 -51 -31zM927 1485q44 -11 130 -102q8 -10 8 -26v-8q0 -49 -28 -72q-47 -69 -89 -164v-2h-3q0 23 34 101q33 63 50 69q8 3 8 11q0 7 -8 10q-8 -2 -25 -28q-116 -158 -116 -267v-10q0 -60 39 -111q-4 -22 -4 -29
q12 10 12 18h3q8 -6 37 -20l13 -13v-3q-35 -12 -75 -12q-84 0 -178 54q-64 50 -64 90q0 93 10 93l3 10q-31 -25 -68 -73q-117 -158 -204 -340q-53 -107 -75 -175q-12 -85 -27 -132q-14 -86 -14 -98q0 -56 64 -56h1q113 9 113 21q16 10 28 14v1h-27v2q0 2 28 9q53 22 148 93
q104 88 136 92q0 2 11 4v2q-13 0 -51 18q-23 12 -23 105q0 9 -4 29q0 11 161 37q85 11 100 14q29 0 69 -49q18 -24 18 -56q0 -10 -21 -32q-17 -37 -17 -51q2 -6 4 -6h3q14 0 17 28q0 8 14 26h2q8 -4 11 -9v-2q0 -2 -24 -47q-47 -103 -47 -121q-53 -194 -144 -591l-25 -130
q-8 -21 -14 -22q-7 0 -18 6q19 113 35 145q17 37 25 114q19 67 32 126l-3 1q-6 0 -44 -128q-15 -36 -20 -37q2 -19 2 -27q0 -50 -33 -128q-2 0 -7 -11q8 -15 8 -21q0 -4 -4 -29h-2q-19 5 -69 39q-20 30 -24 54q0 99 92 566h-1q-340 -180 -517 -180q-170 0 -201 184
q-8 31 -8 43v26q0 101 29 177q33 107 111 281q92 199 232 395q186 243 333 243q27 0 59 -13q67 73 93 80zM6085 1454q94 -5 94 -14q32 -23 32 -75v-20q0 -53 -26 -104q-45 -106 -85 -269q0 -41 -24 -55q-10 -4 -14 -4q-14 1 -17 2q3 12 21 122v1h-1q-21 -80 -31 -123h-1
q-36 0 -54 39q-17 10 -17 61v27q0 63 11 159q-132 -81 -299 -230q-30 -29 -35 -29q-9 0 -9 -6q0 -10 -18 -22l-47 -47q60 -55 74 -58q69 -39 199 -153q15 -25 66 -86q19 -22 35 -51v2q-11 21 -21 44h3q73 -104 73 -211v-10h-1q-3 0 -4 7q-21 -14 -21 -72l-11 -65v-12
q0 -8 -18 -32q-8 -14 -32 -44q2 -3 2 -4q-152 -133 -220 -133q-4 10 -4 13q-18 -6 -18 -10q15 0 15 -3v-1q-42 -25 -116 -43q-31 -6 -54 -7q-23 2 -23 4q-17 -3 -36 -4q-71 0 -116 111q-17 48 -23 96h-2q-19 -21 -56 -29q-11 -3 -13 -3q-47 18 -156 86q-33 28 -69 36
q-86 44 -96 44h-2q0 -11 53 -37q85 -58 149 -83q34 -14 92 -51v-3q-25 -7 -33 -23q-3 -6 -8 -6q-29 10 -102 53q-86 42 -181 66q-194 54 -253 67q-26 -16 -26 -38q-32 -104 -32 -127q14 -73 14 -90v-14q0 -25 -23 -41q-2 -1 -9 -1q-61 0 -117 45q-51 48 -51 116
q0 193 199 828q49 187 49 198q-18 -10 -111 -20q-160 -31 -322 -70q-35 -8 -75 -8q0 -1 7 -7v-2l-145 -16q0 -1 -29 -7v-1q177 -61 363 -119q10 -3 11 -39q14 -36 14 -65q0 -13 -36 -26q-76 -38 -142 -41q-238 -40 -361 -83v-2q11 -7 11 -9v-3q-45 -30 -45 -47
q-23 -35 -40 -98q-2 -9 -9 -66q-18 0 -36 -162q-2 0 -2 -19q0 -29 29 -58h2q-7 37 -7 46q0 6 1 48l-4 18q22 41 22 62q0 5 -3 33q0 60 45 163q12 22 41 57q5 17 10 17h7q16 -3 16 -16q0 -3 -55 -123q-48 -117 -48 -203q0 -51 19 -120h1q54 0 344 135q52 27 84 49
q56 30 105 30q21 0 24 -17l-5 -38q2 -8 2 -11q-25 -8 -72 -47l-1 -3h1q14 0 65 37h3q0 -1 -2 -4q3 -22 3 -34q-14 -31 -77 -75q-110 -70 -218 -108h-2v7q-30 -15 -94 -22q-14 0 -69 -26q-86 -15 -140 -29h-6q-79 0 -137 112q-23 57 -23 119v26q0 115 73 308q-33 0 -54 98
q7 99 20 99q71 19 99 29v4q-10 2 -11 2l-84 -20q-2 2 -3 15q6 25 25 25q224 53 501 97q4 0 4 3l-315 77h-29q-77 0 -105 92q0 17 -17 82v5q0 26 104 45q93 26 416 59q163 14 269 14h14q35 0 72 -6q46 29 107 47q52 15 165 15h76q209 0 350 -84q87 -66 113 -150q3 -9 3 -13
q-3 0 -5 -7q2 -9 2 -15q0 -11 -15 -61v-1q0 -9 10 -41v-2q-33 -90 -47 -105q-12 -4 -37 -48q-16 -22 -39 -69q-19 -26 -41 -51h1l44 37h1v-1q-60 -82 -180 -207q-52 -52 -120 -113q119 -60 271 -130q92 -48 97 -64q33 -26 33 -48q-1 -2 -1 -6v-5q34 -17 70 -17
q116 0 267 109q98 84 125 126q24 41 24 72v11q-12 31 -38 56q-34 25 -187 114q-53 31 -124 99q-27 35 -27 64q-54 42 -54 89v13q0 116 57 176q37 51 97 93q201 137 332 196q79 39 130 39q18 0 37 -3q0 28 25 51q19 7 29 7zM2963 73v-4q0 -40 5 -168h2q114 1 185 1h103
q-48 61 -48 250v46q0 223 58 486l-1 5q37 174 124 534q33 160 41 225h-1q-124 -16 -221 -36q-66 -340 -135 -606q-40 -179 -71 -364q-41 -303 -41 -369zM2528 1387v-5h4q12 0 18 8q-12 1 -12 3q-10 -2 -10 -6zM1496 1343h75q207 0 351 -84q72 -60 86 -94q13 -16 29 -62l1 -7
q-2 0 -6 -5q0 -8 3 -17q0 -5 -16 -63q0 -6 9 -38v-4q0 -10 -41 -101q-17 -9 -29 -33q-34 -47 -47 -80q-16 -24 -44 -58v-1q42 37 45 37q-60 -82 -198 -226l-103 -95q104 -53 268 -129q77 -38 96 -59q37 -32 37 -54q0 -39 -79 -57q-64 25 -172 97q-7 11 -53 25q-76 38 -95 44
h-3v-1q0 -11 40 -29q94 -63 160 -90q44 -18 93 -52l-25 -14q-10 -16 -15 -17q-11 0 -104 53q-82 41 -172 64q-51 13 -221 60q-35 9 -37 9q-28 -13 -28 -35q-32 -101 -32 -132q14 -79 14 -96q0 -33 -26 -48h-3q-92 0 -149 78q-24 41 -24 84q0 181 183 772q31 96 66 251h-1
q-32 -9 -54 -9h-4q-47 0 -65 63q-17 25 -17 36v7q20 16 77 44q67 32 149 32q18 3 35 8v1l-14 2h-16q-39 0 -140 -28q-12 -6 -52 -19l-31 -17v4q34 32 98 57q63 26 201 26zM5813 1299v-1q0 -2 4 -4q37 15 57 33q-3 3 -6 3q-46 -18 -55 -31zM175 588q1 -2 1 -4h3q6 0 15 36
q59 160 137 288q94 150 189 263q46 48 114 107q28 31 28 36q-2 10 -7 10q-6 0 -47 -44q-92 -78 -139 -141q-38 -55 -98 -137q-95 -150 -133 -230q-55 -130 -58 -169q-3 0 -5 -15zM4547 1277v-1q1 0 17 -6q71 39 162 39q19 3 35 8v1l-13 2h-20q-32 0 -134 -26
q-16 -10 -47 -17zM5788 1292v-1q3 1 5 1v3h-2q-3 0 -3 -3zM5474 1038h1q16 0 40 36q119 116 196 158q35 22 71 55h-3q-21 0 -169 -108q-8 -5 -44 -39q-74 -62 -83 -87q-9 -10 -9 -15zM867 1117q19 17 41 84q15 48 15 51h-2q-24 0 -54 -120v-15zM3984 1209q7 -5 15 -5
q126 11 168 16q22 -1 22 -2q5 2 5 4q0 11 -27 11h-6q-99 0 -174 -17q-3 -4 -3 -7zM3729 1164q0 -10 21 -13q18 0 84 23q96 19 116 26v4q0 4 -21 5q-93 -18 -101 -18q-99 -8 -99 -27zM1364 1200v-7h5v7h-5zM4674 1200v-4q1 -3 3 -3h3v4q0 3 -3 3h-3zM2430 1151q107 0 210 -77
q28 0 69 -51q62 -95 62 -291q0 -216 -76 -355q-28 -50 -81 -101q-114 -96 -214 -96h-9q-3 0 -5 -2q-3 2 -6 2h-5q-113 0 -217 116q-104 55 -146 167q-26 64 -26 140q0 186 124 361q59 75 123 120q104 67 197 67zM1544 1145v-6l-13 -57q-5 -62 -19 -62q-17 -13 -43 -113
q-16 -58 -23 -110l1 -9h2q8 4 42 107v4h3v-2q-58 -231 -114 -419q80 51 216 183q207 221 207 352q0 100 -226 129q-4 0 -33 3zM4855 1145v-3l-13 -64q-5 -55 -16 -55q-18 -12 -37 -84q-32 -111 -32 -149l3 -2q19 31 43 111h3q-47 -188 -115 -421q85 54 213 181
q100 105 140 172q69 107 69 177v12q0 82 -183 115q-40 7 -75 10zM2005 1106q5 -30 5 -36h2l1 19q0 10 -8 17zM5316 1106v-1q4 -32 7 -32q2 17 2 18l-7 15h-2zM862 1063v-3q4 0 5 14v7q-4 0 -5 -18zM1150 341q5 -3 9 -3q11 0 56 170q68 262 109 432q1 19 27 86q5 20 6 34
q-3 10 -5 10h-7q-8 0 -29 -92q0 -7 -99 -375q-60 -224 -67 -262zM4462 341v-1l10 -2q21 37 67 220l80 316q24 105 32 126q17 33 17 62q0 5 -6 8h-3q-11 0 -16 -33q-7 -12 -21 -86q-160 -585 -160 -610zM5320 1058l-1 -14h4v4l-1 10h-2zM2009 1056q-1 -10 -1 -11l2 -1l3 1
l-1 7v4h-3zM3512 1049q-11 -28 -11 -47v-1h2q13 30 13 47l-2 1h-2zM6066 1042v-2h1v2h-1zM2208 1001q22 6 22 19l-2 7q-18 0 -20 -26zM2215 594v-6q0 -164 116 -266q17 -14 18 -14q33 8 70 43q31 31 95 190q53 189 53 478v4q-147 0 -232 -105q-78 -85 -113 -244
q-7 -42 -7 -80zM838 979q3 -15 6 -15q11 14 11 25v12l-1 7q-16 -12 -16 -29zM3084 998q-11 -27 -11 -40v-9h2q12 30 12 45v4h-3zM808 986v-2h1l2 6q-3 0 -3 -4zM1966 987q-6 -41 -16 -55q-51 -115 -94 -185q-19 -4 -42 -36q0 -9 -52 -56q-28 -21 -28 -52q-14 0 -29 -24v-3
q2 -10 6 -11h8q15 13 22 33q15 5 40 36q0 6 67 72q37 52 49 74q28 50 39 77q12 44 27 76q13 32 13 51v2zM5278 987q-8 -45 -27 -74q-41 -93 -84 -166q-24 -8 -43 -37q0 -11 -67 -69q-11 -21 -11 -36q-22 -9 -29 -25q0 -1 -2 -4q4 -11 7 -11h7q18 15 24 34q14 0 67 71
q37 28 60 67q44 60 44 75q15 18 40 98q22 42 22 76q-7 1 -8 1zM3475 908v-8q23 31 23 86q-23 -33 -23 -78zM2188 980q0 -1 -1 -1q1 -3 1 -4h3v3q0 2 -3 2zM2034 703h4q14 0 17 41q33 103 99 173q30 43 30 54h-5q-9 0 -31 -29q-66 -74 -81 -122q-33 -45 -33 -117zM5307 968
q-10 -34 -22 -72q23 34 23 70v2h-1zM1995 966q-8 -31 -22 -70h3q21 38 21 69v1h-2zM6060 935q16 0 16 11v3q-4 0 -16 -14zM3069 936q-22 -39 -22 -74v-14h1q23 39 23 84v4h-2zM3454 822v-13h2q7 19 7 32v11q-6 0 -9 -30zM3863 833v-3h7v5h-4q-3 0 -3 -2zM299 782v-2
q27 28 27 47q-17 -10 -26 -39q-1 -2 -1 -6zM3830 826v-7h4l4 3q-1 2 -1 4h-7zM3794 815v-6h7l1 7l-3 1h-2q-3 0 -3 -2zM3729 791q1 -5 8 -5q33 8 33 23l-4 6q-26 -9 -37 -24zM3032 801q-7 -21 -7 -37v-2q0 -3 3 -3q7 21 7 29v10q0 3 -3 3zM3442 772q-13 -28 -13 -47v-13h2
q12 34 12 57v3h-1zM286 750q9 5 9 16v2q-9 -7 -9 -18zM268 714q4 0 7 14q-7 -6 -7 -14zM3014 722q-13 -32 -13 -50v-11h2q12 34 12 51v10h-1zM5726 684q24 -22 46 -25q-21 25 -46 25zM2030 679q-6 -19 -6 -34v-7q0 -18 11 -18q4 16 6 44q0 15 -11 15zM3417 678
q-30 -72 -30 -130q-34 -185 -51 -341q-13 -65 -13 -117v-4q0 -6 -1 -11q2 -39 4 -49q-1 -13 -1 -20v-94l1 -10h54q0 4 -21 21l-1 8v21q0 20 9 52q-9 44 -9 64v30q0 62 20 94v6q-11 41 -11 59v1q0 7 14 86q0 55 30 206q18 96 18 124q-1 3 -1 4h-11zM5777 655v-2q0 -4 49 -50
q45 -53 83 -120q8 -7 13 -7q-6 41 -98 144q-30 29 -47 35zM3881 643h3q2 0 4 -4v-4q-10 -18 -31 -18q-2 0 -4 4v7q0 8 28 15zM2894 22q3 -23 3 -100v-24h11q7 0 20 1v2q0 14 11 54v2q-11 37 -11 68v18q0 68 21 95q0 8 1 10q-11 36 -11 59q11 70 18 138q0 11 36 213
q4 22 8 66q-5 4 -8 4q-12 0 -32 -95q-8 -69 -38 -254q-29 -209 -29 -257zM2714 606v-12q0 -37 -48 -138q-59 -78 -61 -104h6q9 0 30 33q39 48 58 89q32 81 32 110v8q-1 21 -1 28h-3q-11 0 -13 -14zM144 528q-21 -38 -21 -65v-3h2q19 38 21 66v2h-2zM2605 504q4 -14 7 -14h2
q0 4 2 15q-7 -1 -11 -1zM1012 427l3 -2h8q14 4 14 14q-3 0 -3 3q-10 0 -22 -15zM103 420l3 -2h2q5 0 6 17l-3 1h-1q-4 0 -7 -16zM2598 347v-2q1 -2 3 -2h2v1q0 3 -3 3h-2zM758 294v-1h2q49 3 49 19q2 2 2 10q-49 -20 -53 -28zM2561 307v-7l2 -7q15 0 20 25v1h-1
q-21 -9 -21 -12zM4469 314q-14 -32 -14 -54v-6l-1 -7l2 -1q14 51 14 66v2h-1zM1157 312q-13 -28 -13 -65v-1h1q14 45 14 63v3h-2zM1377 285q-9 -11 -13 -11v-3q19 0 103 -32v1q0 15 -43 29q-34 15 -47 16zM4688 285q0 -2 -14 -14q20 0 104 -32v1q0 20 -90 45zM2538 278
q-31 -23 -31 -35q7 -3 7 -5q25 11 35 33q-8 7 -11 7zM4223 235h1q8 0 17 10h-1q-8 0 -17 -10zM4160 207h7q23 0 37 21h-2q-28 0 -42 -21zM5783 83v-4q0 -4 11 -7q51 24 101 69q43 47 43 65l-7 5h-2q-99 -107 -125 -114q-19 -14 -21 -14zM1493 -292v-3q12 -2 12 -3l3 1h10
q8 0 22 2q15 -6 20 -6h6v2q-24 16 -39 16h-12q-17 0 -22 -9zM3290 -290q0 -1 -1 -1l1 -7v-1q0 -13 -15 -28l9 -1h28q13 25 24 27v2h-3q-7 -2 -8 -2q-14 3 -35 11zM3493 -303h1q28 0 87 -35v-3h-4q-68 0 -68 13q-16 20 -16 25z" />
    <glyph glyph-name="ki" unicode="&#xe226;" horiz-adv-x="1347" 
d="M1344 1615h4q26 0 32 -6q-63 -44 -69 -44q-42 -21 -71 -45q-33 -33 -46 -57q-9 -16 -27 -36q-7 -12 -13 -27q-6 -6 -6 -10v0q0 -4 4 -6q15 0 15 12q17 17 26 36q15 25 38 51q37 39 57 51q29 21 61 39q28 14 44 20q17 -9 21 -17q15 -21 15 -60q4 -35 4 -67v-15
q0 -19 -52 -62q-9 -4 -42 -19q-75 -40 -99 -107q-10 -20 -14 -77q0 -17 -15 -23h-5q-24 0 -78 58q-33 24 -40 44q-8 17 -8 44q0 82 67 190q18 28 57 68q52 44 77 51q32 14 63 14zM379 1493q54 0 75 -55q10 -36 10 -87q0 -135 -45 -330q-12 -45 -31 -92q-5 -14 -10 -33v0
q45 5 48 6q76 82 186 210q71 82 167 181q4 3 43 40q28 24 54 44q67 48 94 50h6q13 0 26 -34q2 -9 29 -35q14 -14 14 -28v-2q0 -39 -100 -152q-88 -102 -381 -414q6 -13 44 -108q34 -79 80 -142q48 -61 97 -91q36 -25 99 -37q16 -2 18 -2v-1q-54 -123 -139 -123
q-132 0 -325 293q0 14 -23 43q-9 17 -12 20q-2 0 -11 -10q-8 0 -13 -8q-13 -13 -17 -13l-8 3q-3 0 -12 -11q-16 -11 -23 -31q-3 -12 -9 -12q-41 0 -72 -76q-5 -17 -11 -44q0 -1 1 -1q0 -3 -8 -27v0h1h4v0q-11 -23 -15 -41q-10 -34 -10 -49q-1 -3 -1 -10l1 -4q-7 -32 -7 -77
q-8 -49 -8 -90v-19q0 -8 2 -53q0 -11 -2 -30h-1v1h-1q-3 -7 -12 -19v5q0 17 -8 34l-1 5q0 2 8 6q2 0 4 61q3 26 5 134q8 74 17 116q1 0 4 15v1v0q-2 -5 -4 -5v1l16 53q-11 -10 -17 -32q0 -4 -18 -114q-21 -156 -21 -202v0q0 -14 3 -26q-3 -47 -5 -47q-5 -9 -5 -22v-4
q0 -8 6 -15v-1l-2 -2v0q2 -6 45 -53v-1q-98 24 -140 48q-58 36 -58 176q0 204 132 687q68 243 93 357q7 35 23 142q18 96 29 132q21 27 40 34q33 17 62 17zM417 1376q3 -36 3 -45q0 -17 -14 -58l-1 -17v-10v-4q-5 0 -14 -47q0 -11 -12 -47l-2 -3q1 -7 1 -10v-11
q0 -33 -14 -84q-12 -49 -26 -83v-9q0 -12 -15 -93q2 -3 3 -3q6 0 10 24q30 97 30 108q2 19 10 61q0 3 27 93q11 47 21 116q6 30 9 30q0 -1 1 -1q1 9 7 76q-5 34 -14 34h-4q-6 -4 -6 -17zM945 1252h-2v2q-15 -6 -22 -20q-2 -5 -2 -7q1 -2 2 -2h1q22 1 89 91h-1
q-17 -8 -49 -45q-7 -11 -16 -19zM885 1175q25 22 30 38l2 8q-32 -26 -32 -46zM793 1087h1q10 9 16 12l1 -2q-8 -14 -8 -26v-2l-1 -1l1 -1q31 34 77 90q1 0 10 10h-2q-22 0 -44 -29q-42 -39 -51 -51zM1085 1076h6q13 0 97 -27q17 -7 48 -7q8 -1 17 -12q6 -10 6 -26
q0 -13 -9 -58q0 -28 -27 -216q-1 0 -5 -9q-9 5 -9 14q16 83 16 94v2v0q-18 -74 -18 -104v-8q0 -5 2 -26q0 -24 -21 -89q-5 -17 -36 -189q-5 -18 -8 -129v-40q0 -59 14 -73q5 -6 5 -13v-1q0 -12 -19 -17l-12 -1q-28 2 -28 6q-16 46 -16 87v26q0 26 -10 51l-1 4q0 7 14 30
q15 31 15 59v10q0 11 -7 40q-2 12 -2 35v16q0 17 -13 19q-12 0 -15 -26q-15 -83 -15 -118q0 -14 -8 -112v-16q0 -62 30 -93l3 -5v-1q-18 4 -86 16q-36 9 -51 28q-15 14 -15 99v10q0 78 6 180q12 77 26 139q4 25 4 46v14q0 21 -4 39q14 67 17 75q14 28 22 69q6 28 20 120
l6 34q27 54 61 54zM574 839q0 -4 7 -6q11 6 45 47q0 3 90 100q32 40 76 87h-1q-19 -2 -57 -39q-18 -18 -27 -18q-3 -2 -27 -38q-16 -20 -42 -47q-63 -68 -64 -86zM1173 856q0 -27 11 -27q13 0 20 42q0 2 15 21q2 4 2 5q0 6 -8 13v1q6 26 8 66l3 17v6q0 9 -8 12
q-14 0 -25 -65q0 -24 -16 -68q-2 -15 -2 -23zM307 802q1 -3 5 -3h2q7 0 7 24v2q-7 -2 -13 -18zM293 739q-16 -28 -16 -50q0 -6 2 -18h1q14 27 14 46q1 4 1 11l-1 11h-1zM265 644v-8q0 -1 2 -1q12 8 12 25v6h-1q-13 -10 -13 -22z" />
    </font>
</defs>
</svg>
